ISO-10303-21;
HEADER;
FILE_DESCRIPTION((''),'2;1');
FILE_NAME('tinytouch-v2-top.step','1970-01-01T00:00:00Z',(''),(''),'','','');

FILE_SCHEMA (('AUTOMOTIVE_DESIGN { 1 0 10303 214 3 1 1 }'));
ENDSEC;

DATA;
#10=MECHANICAL_DESIGN_GEOMETRIC_PRESENTATION_REPRESENTATION('',(#13),#2039);
#11=SHAPE_REPRESENTATION_RELATIONSHIP('SRR','None',#2045,#12);
#12=ADVANCED_BREP_SHAPE_REPRESENTATION('',(#14),#2038);
#13=STYLED_ITEM('',(#2054),#14);
#14=MANIFOLD_SOLID_BREP('tinytouch-v2-top',#1246);
#15=FACE_BOUND('',#157,.T.);
#16=FACE_BOUND('',#161,.T.);
#17=FACE_BOUND('',#175,.T.);
#18=FACE_BOUND('',#177,.T.);
#19=FACE_BOUND('',#202,.T.);
#20=FACE_BOUND('',#208,.T.);
#21=FACE_BOUND('',#213,.T.);
#22=CYLINDRICAL_SURFACE('',#1270,1.25);
#23=CYLINDRICAL_SURFACE('',#1273,1.25);
#24=CYLINDRICAL_SURFACE('',#1280,9.65);
#25=CYLINDRICAL_SURFACE('',#1299,4.);
#26=CYLINDRICAL_SURFACE('',#1302,4.);
#27=CYLINDRICAL_SURFACE('',#1309,4.);
#28=CYLINDRICAL_SURFACE('',#1310,4.);
#29=CYLINDRICAL_SURFACE('',#1335,1.25);
#30=CYLINDRICAL_SURFACE('',#1337,1.25);
#31=CIRCLE('',#1256,1.75);
#32=CIRCLE('',#1257,1.25);
#33=CIRCLE('',#1260,1.75);
#34=CIRCLE('',#1261,1.25);
#35=CIRCLE('',#1264,1.75);
#36=CIRCLE('',#1265,1.25);
#37=CIRCLE('',#1268,1.75);
#38=CIRCLE('',#1269,1.25);
#39=CIRCLE('',#1271,1.25);
#40=CIRCLE('',#1274,1.25);
#41=CIRCLE('',#1278,10.15);
#42=CIRCLE('',#1279,9.65);
#43=CIRCLE('',#1281,9.65);
#44=CIRCLE('',#1285,4.);
#45=CIRCLE('',#1286,3.);
#46=CIRCLE('',#1289,4.);
#47=CIRCLE('',#1290,3.);
#48=CIRCLE('',#1293,4.);
#49=CIRCLE('',#1294,3.);
#50=CIRCLE('',#1297,4.);
#51=CIRCLE('',#1298,3.);
#52=CIRCLE('',#1300,4.);
#53=CIRCLE('',#1303,4.);
#54=CIRCLE('',#1307,4.);
#55=CIRCLE('',#1308,4.);
#56=CIRCLE('',#1333,1.25);
#57=CIRCLE('',#1334,1.25);
#58=CONICAL_SURFACE('',#1255,1.5,0.785398163397449);
#59=CONICAL_SURFACE('',#1259,1.5,0.785398163397449);
#60=CONICAL_SURFACE('',#1263,1.5,0.78539816339745);
#61=CONICAL_SURFACE('',#1267,1.5,0.78539816339745);
#62=CONICAL_SURFACE('',#1277,9.9,0.785398163397448);
#63=CONICAL_SURFACE('',#1284,3.5,0.785398163397447);
#64=CONICAL_SURFACE('',#1288,3.5,0.785398163397447);
#65=CONICAL_SURFACE('',#1292,3.5,0.785398163397447);
#66=CONICAL_SURFACE('',#1296,3.5,0.785398163397448);
#67=FACE_OUTER_BOUND('',#138,.T.);
#68=FACE_OUTER_BOUND('',#139,.T.);
#69=FACE_OUTER_BOUND('',#140,.T.);
#70=FACE_OUTER_BOUND('',#141,.T.);
#71=FACE_OUTER_BOUND('',#142,.T.);
#72=FACE_OUTER_BOUND('',#143,.T.);
#73=FACE_OUTER_BOUND('',#144,.T.);
#74=FACE_OUTER_BOUND('',#145,.T.);
#75=FACE_OUTER_BOUND('',#146,.T.);
#76=FACE_OUTER_BOUND('',#147,.T.);
#77=FACE_OUTER_BOUND('',#148,.T.);
#78=FACE_OUTER_BOUND('',#149,.T.);
#79=FACE_OUTER_BOUND('',#150,.T.);
#80=FACE_OUTER_BOUND('',#151,.T.);
#81=FACE_OUTER_BOUND('',#152,.T.);
#82=FACE_OUTER_BOUND('',#153,.T.);
#83=FACE_OUTER_BOUND('',#154,.T.);
#84=FACE_OUTER_BOUND('',#155,.T.);
#85=FACE_OUTER_BOUND('',#156,.T.);
#86=FACE_OUTER_BOUND('',#158,.T.);
#87=FACE_OUTER_BOUND('',#159,.T.);
#88=FACE_OUTER_BOUND('',#160,.T.);
#89=FACE_OUTER_BOUND('',#162,.T.);
#90=FACE_OUTER_BOUND('',#163,.T.);
#91=FACE_OUTER_BOUND('',#164,.T.);
#92=FACE_OUTER_BOUND('',#165,.T.);
#93=FACE_OUTER_BOUND('',#166,.T.);
#94=FACE_OUTER_BOUND('',#167,.T.);
#95=FACE_OUTER_BOUND('',#168,.T.);
#96=FACE_OUTER_BOUND('',#169,.T.);
#97=FACE_OUTER_BOUND('',#170,.T.);
#98=FACE_OUTER_BOUND('',#171,.T.);
#99=FACE_OUTER_BOUND('',#172,.T.);
#100=FACE_OUTER_BOUND('',#173,.T.);
#101=FACE_OUTER_BOUND('',#174,.T.);
#102=FACE_OUTER_BOUND('',#176,.T.);
#103=FACE_OUTER_BOUND('',#178,.T.);
#104=FACE_OUTER_BOUND('',#179,.T.);
#105=FACE_OUTER_BOUND('',#180,.T.);
#106=FACE_OUTER_BOUND('',#181,.T.);
#107=FACE_OUTER_BOUND('',#182,.T.);
#108=FACE_OUTER_BOUND('',#183,.T.);
#109=FACE_OUTER_BOUND('',#184,.T.);
#110=FACE_OUTER_BOUND('',#185,.T.);
#111=FACE_OUTER_BOUND('',#186,.T.);
#112=FACE_OUTER_BOUND('',#187,.T.);
#113=FACE_OUTER_BOUND('',#188,.T.);
#114=FACE_OUTER_BOUND('',#189,.T.);
#115=FACE_OUTER_BOUND('',#190,.T.);
#116=FACE_OUTER_BOUND('',#191,.T.);
#117=FACE_OUTER_BOUND('',#192,.T.);
#118=FACE_OUTER_BOUND('',#193,.T.);
#119=FACE_OUTER_BOUND('',#194,.T.);
#120=FACE_OUTER_BOUND('',#195,.T.);
#121=FACE_OUTER_BOUND('',#196,.T.);
#122=FACE_OUTER_BOUND('',#197,.T.);
#123=FACE_OUTER_BOUND('',#198,.T.);
#124=FACE_OUTER_BOUND('',#199,.T.);
#125=FACE_OUTER_BOUND('',#200,.T.);
#126=FACE_OUTER_BOUND('',#201,.T.);
#127=FACE_OUTER_BOUND('',#203,.T.);
#128=FACE_OUTER_BOUND('',#204,.T.);
#129=FACE_OUTER_BOUND('',#205,.T.);
#130=FACE_OUTER_BOUND('',#206,.T.);
#131=FACE_OUTER_BOUND('',#207,.T.);
#132=FACE_OUTER_BOUND('',#209,.T.);
#133=FACE_OUTER_BOUND('',#210,.T.);
#134=FACE_OUTER_BOUND('',#211,.T.);
#135=FACE_OUTER_BOUND('',#212,.T.);
#136=FACE_OUTER_BOUND('',#214,.T.);
#137=FACE_OUTER_BOUND('',#215,.T.);
#138=EDGE_LOOP('',(#780,#781,#782,#783));
#139=EDGE_LOOP('',(#784,#785,#786,#787));
#140=EDGE_LOOP('',(#788,#789,#790,#791));
#141=EDGE_LOOP('',(#792,#793,#794,#795));
#142=EDGE_LOOP('',(#796,#797,#798,#799));
#143=EDGE_LOOP('',(#800,#801,#802,#803,#804,#805,#806,#807,#808,#809,#810,
#811));
#144=EDGE_LOOP('',(#812,#813,#814,#815));
#145=EDGE_LOOP('',(#816,#817,#818,#819));
#146=EDGE_LOOP('',(#820,#821,#822,#823));
#147=EDGE_LOOP('',(#824,#825,#826,#827));
#148=EDGE_LOOP('',(#828,#829,#830,#831,#832,#833));
#149=EDGE_LOOP('',(#834,#835,#836,#837));
#150=EDGE_LOOP('',(#838,#839,#840,#841));
#151=EDGE_LOOP('',(#842,#843,#844,#845));
#152=EDGE_LOOP('',(#846,#847,#848,#849));
#153=EDGE_LOOP('',(#850,#851,#852,#853));
#154=EDGE_LOOP('',(#854,#855,#856,#857));
#155=EDGE_LOOP('',(#858,#859,#860,#861));
#156=EDGE_LOOP('',(#862,#863,#864,#865));
#157=EDGE_LOOP('',(#866,#867,#868,#869,#870,#871,#872,#873));
#158=EDGE_LOOP('',(#874,#875,#876,#877));
#159=EDGE_LOOP('',(#878,#879,#880,#881));
#160=EDGE_LOOP('',(#882,#883,#884,#885,#886,#887,#888,#889));
#161=EDGE_LOOP('',(#890));
#162=EDGE_LOOP('',(#891,#892,#893,#894));
#163=EDGE_LOOP('',(#895,#896,#897,#898));
#164=EDGE_LOOP('',(#899,#900,#901,#902));
#165=EDGE_LOOP('',(#903,#904,#905,#906));
#166=EDGE_LOOP('',(#907,#908,#909,#910));
#167=EDGE_LOOP('',(#911,#912,#913,#914));
#168=EDGE_LOOP('',(#915,#916,#917,#918));
#169=EDGE_LOOP('',(#919,#920,#921,#922));
#170=EDGE_LOOP('',(#923,#924,#925,#926));
#171=EDGE_LOOP('',(#927,#928,#929,#930));
#172=EDGE_LOOP('',(#931,#932,#933,#934));
#173=EDGE_LOOP('',(#935,#936,#937,#938));
#174=EDGE_LOOP('',(#939,#940,#941,#942,#943,#944,#945,#946));
#175=EDGE_LOOP('',(#947));
#176=EDGE_LOOP('',(#948,#949,#950,#951,#952,#953,#954,#955));
#177=EDGE_LOOP('',(#956,#957,#958,#959,#960,#961,#962,#963));
#178=EDGE_LOOP('',(#964,#965,#966,#967));
#179=EDGE_LOOP('',(#968,#969,#970,#971));
#180=EDGE_LOOP('',(#972,#973,#974,#975));
#181=EDGE_LOOP('',(#976,#977,#978,#979));
#182=EDGE_LOOP('',(#980,#981,#982,#983));
#183=EDGE_LOOP('',(#984,#985,#986,#987));
#184=EDGE_LOOP('',(#988,#989,#990,#991));
#185=EDGE_LOOP('',(#992,#993,#994,#995));
#186=EDGE_LOOP('',(#996,#997,#998,#999));
#187=EDGE_LOOP('',(#1000,#1001,#1002,#1003));
#188=EDGE_LOOP('',(#1004,#1005,#1006,#1007));
#189=EDGE_LOOP('',(#1008,#1009,#1010,#1011));
#190=EDGE_LOOP('',(#1012,#1013,#1014,#1015));
#191=EDGE_LOOP('',(#1016,#1017,#1018,#1019));
#192=EDGE_LOOP('',(#1020,#1021,#1022,#1023));
#193=EDGE_LOOP('',(#1024,#1025,#1026,#1027));
#194=EDGE_LOOP('',(#1028,#1029,#1030,#1031));
#195=EDGE_LOOP('',(#1032,#1033,#1034,#1035));
#196=EDGE_LOOP('',(#1036,#1037,#1038,#1039));
#197=EDGE_LOOP('',(#1040,#1041,#1042,#1043));
#198=EDGE_LOOP('',(#1044,#1045,#1046,#1047));
#199=EDGE_LOOP('',(#1048,#1049,#1050));
#200=EDGE_LOOP('',(#1051,#1052,#1053));
#201=EDGE_LOOP('',(#1054,#1055,#1056,#1057));
#202=EDGE_LOOP('',(#1058,#1059,#1060,#1061,#1062,#1063,#1064,#1065,#1066,
#1067,#1068,#1069));
#203=EDGE_LOOP('',(#1070,#1071,#1072,#1073));
#204=EDGE_LOOP('',(#1074,#1075,#1076,#1077));
#205=EDGE_LOOP('',(#1078,#1079,#1080,#1081));
#206=EDGE_LOOP('',(#1082,#1083,#1084,#1085));
#207=EDGE_LOOP('',(#1086,#1087,#1088,#1089));
#208=EDGE_LOOP('',(#1090,#1091,#1092,#1093));
#209=EDGE_LOOP('',(#1094,#1095,#1096,#1097));
#210=EDGE_LOOP('',(#1098,#1099,#1100,#1101));
#211=EDGE_LOOP('',(#1102,#1103,#1104,#1105));
#212=EDGE_LOOP('',(#1106,#1107,#1108,#1109));
#213=EDGE_LOOP('',(#1110,#1111,#1112,#1113));
#214=EDGE_LOOP('',(#1114,#1115,#1116,#1117));
#215=EDGE_LOOP('',(#1118,#1119,#1120,#1121));
#216=LINE('',#1692,#360);
#217=LINE('',#1694,#361);
#218=LINE('',#1696,#362);
#219=LINE('',#1697,#363);
#220=LINE('',#1700,#364);
#221=LINE('',#1702,#365);
#222=LINE('',#1703,#366);
#223=LINE('',#1706,#367);
#224=LINE('',#1708,#368);
#225=LINE('',#1709,#369);
#226=LINE('',#1711,#370);
#227=LINE('',#1713,#371);
#228=LINE('',#1716,#372);
#229=LINE('',#1718,#373);
#230=LINE('',#1720,#374);
#231=LINE('',#1722,#375);
#232=LINE('',#1724,#376);
#233=LINE('',#1726,#377);
#234=LINE('',#1728,#378);
#235=LINE('',#1730,#379);
#236=LINE('',#1731,#380);
#237=LINE('',#1735,#381);
#238=LINE('',#1737,#382);
#239=LINE('',#1739,#383);
#240=LINE('',#1740,#384);
#241=LINE('',#1744,#385);
#242=LINE('',#1750,#386);
#243=LINE('',#1751,#387);
#244=LINE('',#1752,#388);
#245=LINE('',#1755,#389);
#246=LINE('',#1760,#390);
#247=LINE('',#1761,#391);
#248=LINE('',#1765,#392);
#249=LINE('',#1771,#393);
#250=LINE('',#1772,#394);
#251=LINE('',#1773,#395);
#252=LINE('',#1779,#396);
#253=LINE('',#1783,#397);
#254=LINE('',#1784,#398);
#255=LINE('',#1787,#399);
#256=LINE('',#1791,#400);
#257=LINE('',#1792,#401);
#258=LINE('',#1796,#402);
#259=LINE('',#1798,#403);
#260=LINE('',#1800,#404);
#261=LINE('',#1801,#405);
#262=LINE('',#1806,#406);
#263=LINE('',#1810,#407);
#264=LINE('',#1815,#408);
#265=LINE('',#1817,#409);
#266=LINE('',#1819,#410);
#267=LINE('',#1821,#411);
#268=LINE('',#1823,#412);
#269=LINE('',#1825,#413);
#270=LINE('',#1827,#414);
#271=LINE('',#1828,#415);
#272=LINE('',#1832,#416);
#273=LINE('',#1834,#417);
#274=LINE('',#1836,#418);
#275=LINE('',#1837,#419);
#276=LINE('',#1842,#420);
#277=LINE('',#1847,#421);
#278=LINE('',#1848,#422);
#279=LINE('',#1849,#423);
#280=LINE('',#1853,#424);
#281=LINE('',#1857,#425);
#282=LINE('',#1858,#426);
#283=LINE('',#1863,#427);
#284=LINE('',#1868,#428);
#285=LINE('',#1869,#429);
#286=LINE('',#1870,#430);
#287=LINE('',#1876,#431);
#288=LINE('',#1880,#432);
#289=LINE('',#1881,#433);
#290=LINE('',#1884,#434);
#291=LINE('',#1888,#435);
#292=LINE('',#1889,#436);
#293=LINE('',#1895,#437);
#294=LINE('',#1899,#438);
#295=LINE('',#1901,#439);
#296=LINE('',#1903,#440);
#297=LINE('',#1905,#441);
#298=LINE('',#1907,#442);
#299=LINE('',#1909,#443);
#300=LINE('',#1911,#444);
#301=LINE('',#1912,#445);
#302=LINE('',#1914,#446);
#303=LINE('',#1916,#447);
#304=LINE('',#1920,#448);
#305=LINE('',#1922,#449);
#306=LINE('',#1924,#450);
#307=LINE('',#1925,#451);
#308=LINE('',#1928,#452);
#309=LINE('',#1930,#453);
#310=LINE('',#1931,#454);
#311=LINE('',#1934,#455);
#312=LINE('',#1936,#456);
#313=LINE('',#1937,#457);
#314=LINE('',#1939,#458);
#315=LINE('',#1940,#459);
#316=LINE('',#1943,#460);
#317=LINE('',#1945,#461);
#318=LINE('',#1946,#462);
#319=LINE('',#1949,#463);
#320=LINE('',#1950,#464);
#321=LINE('',#1954,#465);
#322=LINE('',#1955,#466);
#323=LINE('',#1957,#467);
#324=LINE('',#1961,#468);
#325=LINE('',#1963,#469);
#326=LINE('',#1965,#470);
#327=LINE('',#1966,#471);
#328=LINE('',#1969,#472);
#329=LINE('',#1971,#473);
#330=LINE('',#1972,#474);
#331=LINE('',#1975,#475);
#332=LINE('',#1977,#476);
#333=LINE('',#1978,#477);
#334=LINE('',#1980,#478);
#335=LINE('',#1981,#479);
#336=LINE('',#1984,#480);
#337=LINE('',#1986,#481);
#338=LINE('',#1987,#482);
#339=LINE('',#1990,#483);
#340=LINE('',#1991,#484);
#341=LINE('',#1995,#485);
#342=LINE('',#1996,#486);
#343=LINE('',#1998,#487);
#344=LINE('',#2001,#488);
#345=LINE('',#2003,#489);
#346=LINE('',#2004,#490);
#347=LINE('',#2006,#491);
#348=LINE('',#2008,#492);
#349=LINE('',#2010,#493);
#350=LINE('',#2011,#494);
#351=LINE('',#2015,#495);
#352=LINE('',#2018,#496);
#353=LINE('',#2020,#497);
#354=LINE('',#2023,#498);
#355=LINE('',#2025,#499);
#356=LINE('',#2027,#500);
#357=LINE('',#2029,#501);
#358=LINE('',#2031,#502);
#359=LINE('',#2033,#503);
#360=VECTOR('',#1350,10.);
#361=VECTOR('',#1351,10.);
#362=VECTOR('',#1352,10.);
#363=VECTOR('',#1353,10.);
#364=VECTOR('',#1356,10.);
#365=VECTOR('',#1357,10.);
#366=VECTOR('',#1358,10.);
#367=VECTOR('',#1361,10.);
#368=VECTOR('',#1362,10.);
#369=VECTOR('',#1363,10.);
#370=VECTOR('',#1366,10.);
#371=VECTOR('',#1369,10.);
#372=VECTOR('',#1372,10.);
#373=VECTOR('',#1373,10.);
#374=VECTOR('',#1374,10.);
#375=VECTOR('',#1375,10.);
#376=VECTOR('',#1376,10.);
#377=VECTOR('',#1377,10.);
#378=VECTOR('',#1378,10.);
#379=VECTOR('',#1379,10.);
#380=VECTOR('',#1380,10.);
#381=VECTOR('',#1383,10.);
#382=VECTOR('',#1384,10.);
#383=VECTOR('',#1385,10.);
#384=VECTOR('',#1386,10.);
#385=VECTOR('',#1389,10.);
#386=VECTOR('',#1396,10.);
#387=VECTOR('',#1397,10.);
#388=VECTOR('',#1398,10.);
#389=VECTOR('',#1401,10.);
#390=VECTOR('',#1408,10.);
#391=VECTOR('',#1409,10.);
#392=VECTOR('',#1412,10.);
#393=VECTOR('',#1419,10.);
#394=VECTOR('',#1420,10.);
#395=VECTOR('',#1421,10.);
#396=VECTOR('',#1430,10.);
#397=VECTOR('',#1435,10.);
#398=VECTOR('',#1436,10.);
#399=VECTOR('',#1439,10.);
#400=VECTOR('',#1444,10.);
#401=VECTOR('',#1445,10.);
#402=VECTOR('',#1448,10.);
#403=VECTOR('',#1449,10.);
#404=VECTOR('',#1450,10.);
#405=VECTOR('',#1451,10.);
#406=VECTOR('',#1456,9.9);
#407=VECTOR('',#1461,9.65);
#408=VECTOR('',#1466,10.);
#409=VECTOR('',#1467,10.);
#410=VECTOR('',#1468,10.);
#411=VECTOR('',#1469,10.);
#412=VECTOR('',#1470,10.);
#413=VECTOR('',#1471,10.);
#414=VECTOR('',#1472,10.);
#415=VECTOR('',#1473,10.);
#416=VECTOR('',#1476,10.);
#417=VECTOR('',#1477,10.);
#418=VECTOR('',#1478,10.);
#419=VECTOR('',#1479,10.);
#420=VECTOR('',#1484,10.);
#421=VECTOR('',#1489,10.);
#422=VECTOR('',#1490,10.);
#423=VECTOR('',#1491,10.);
#424=VECTOR('',#1496,10.);
#425=VECTOR('',#1501,10.);
#426=VECTOR('',#1502,10.);
#427=VECTOR('',#1507,10.);
#428=VECTOR('',#1512,10.);
#429=VECTOR('',#1513,10.);
#430=VECTOR('',#1514,10.);
#431=VECTOR('',#1523,10.);
#432=VECTOR('',#1528,10.);
#433=VECTOR('',#1529,10.);
#434=VECTOR('',#1532,10.);
#435=VECTOR('',#1537,10.);
#436=VECTOR('',#1538,10.);
#437=VECTOR('',#1545,10.);
#438=VECTOR('',#1548,10.);
#439=VECTOR('',#1549,10.);
#440=VECTOR('',#1550,10.);
#441=VECTOR('',#1551,10.);
#442=VECTOR('',#1552,10.);
#443=VECTOR('',#1553,10.);
#444=VECTOR('',#1554,10.);
#445=VECTOR('',#1555,10.);
#446=VECTOR('',#1558,10.);
#447=VECTOR('',#1561,10.);
#448=VECTOR('',#1564,10.);
#449=VECTOR('',#1565,10.);
#450=VECTOR('',#1566,10.);
#451=VECTOR('',#1567,10.);
#452=VECTOR('',#1570,10.);
#453=VECTOR('',#1571,10.);
#454=VECTOR('',#1572,10.);
#455=VECTOR('',#1575,10.);
#456=VECTOR('',#1576,10.);
#457=VECTOR('',#1577,10.);
#458=VECTOR('',#1580,10.);
#459=VECTOR('',#1581,10.);
#460=VECTOR('',#1584,10.);
#461=VECTOR('',#1585,10.);
#462=VECTOR('',#1586,10.);
#463=VECTOR('',#1589,10.);
#464=VECTOR('',#1590,10.);
#465=VECTOR('',#1595,10.);
#466=VECTOR('',#1596,10.);
#467=VECTOR('',#1599,10.);
#468=VECTOR('',#1602,10.);
#469=VECTOR('',#1603,10.);
#470=VECTOR('',#1604,10.);
#471=VECTOR('',#1605,10.);
#472=VECTOR('',#1608,10.);
#473=VECTOR('',#1609,10.);
#474=VECTOR('',#1610,10.);
#475=VECTOR('',#1613,10.);
#476=VECTOR('',#1614,10.);
#477=VECTOR('',#1615,10.);
#478=VECTOR('',#1618,10.);
#479=VECTOR('',#1619,10.);
#480=VECTOR('',#1622,10.);
#481=VECTOR('',#1623,10.);
#482=VECTOR('',#1624,10.);
#483=VECTOR('',#1627,10.);
#484=VECTOR('',#1628,10.);
#485=VECTOR('',#1633,10.);
#486=VECTOR('',#1634,10.);
#487=VECTOR('',#1637,10.);
#488=VECTOR('',#1640,10.);
#489=VECTOR('',#1641,10.);
#490=VECTOR('',#1642,10.);
#491=VECTOR('',#1645,10.);
#492=VECTOR('',#1648,10.);
#493=VECTOR('',#1651,10.);
#494=VECTOR('',#1652,10.);
#495=VECTOR('',#1655,10.);
#496=VECTOR('',#1660,10.);
#497=VECTOR('',#1663,10.);
#498=VECTOR('',#1668,10.);
#499=VECTOR('',#1671,10.);
#500=VECTOR('',#1674,10.);
#501=VECTOR('',#1677,10.);
#502=VECTOR('',#1680,10.);
#503=VECTOR('',#1683,10.);
#504=VERTEX_POINT('',#1690);
#505=VERTEX_POINT('',#1691);
#506=VERTEX_POINT('',#1693);
#507=VERTEX_POINT('',#1695);
#508=VERTEX_POINT('',#1699);
#509=VERTEX_POINT('',#1701);
#510=VERTEX_POINT('',#1705);
#511=VERTEX_POINT('',#1707);
#512=VERTEX_POINT('',#1715);
#513=VERTEX_POINT('',#1717);
#514=VERTEX_POINT('',#1719);
#515=VERTEX_POINT('',#1721);
#516=VERTEX_POINT('',#1723);
#517=VERTEX_POINT('',#1725);
#518=VERTEX_POINT('',#1727);
#519=VERTEX_POINT('',#1729);
#520=VERTEX_POINT('',#1733);
#521=VERTEX_POINT('',#1734);
#522=VERTEX_POINT('',#1736);
#523=VERTEX_POINT('',#1738);
#524=VERTEX_POINT('',#1742);
#525=VERTEX_POINT('',#1743);
#526=VERTEX_POINT('',#1748);
#527=VERTEX_POINT('',#1749);
#528=VERTEX_POINT('',#1754);
#529=VERTEX_POINT('',#1759);
#530=VERTEX_POINT('',#1763);
#531=VERTEX_POINT('',#1764);
#532=VERTEX_POINT('',#1769);
#533=VERTEX_POINT('',#1770);
#534=VERTEX_POINT('',#1778);
#535=VERTEX_POINT('',#1782);
#536=VERTEX_POINT('',#1786);
#537=VERTEX_POINT('',#1790);
#538=VERTEX_POINT('',#1794);
#539=VERTEX_POINT('',#1795);
#540=VERTEX_POINT('',#1797);
#541=VERTEX_POINT('',#1799);
#542=VERTEX_POINT('',#1803);
#543=VERTEX_POINT('',#1805);
#544=VERTEX_POINT('',#1809);
#545=VERTEX_POINT('',#1813);
#546=VERTEX_POINT('',#1814);
#547=VERTEX_POINT('',#1816);
#548=VERTEX_POINT('',#1818);
#549=VERTEX_POINT('',#1820);
#550=VERTEX_POINT('',#1822);
#551=VERTEX_POINT('',#1824);
#552=VERTEX_POINT('',#1826);
#553=VERTEX_POINT('',#1830);
#554=VERTEX_POINT('',#1831);
#555=VERTEX_POINT('',#1833);
#556=VERTEX_POINT('',#1835);
#557=VERTEX_POINT('',#1839);
#558=VERTEX_POINT('',#1841);
#559=VERTEX_POINT('',#1845);
#560=VERTEX_POINT('',#1846);
#561=VERTEX_POINT('',#1852);
#562=VERTEX_POINT('',#1856);
#563=VERTEX_POINT('',#1860);
#564=VERTEX_POINT('',#1862);
#565=VERTEX_POINT('',#1866);
#566=VERTEX_POINT('',#1867);
#567=VERTEX_POINT('',#1875);
#568=VERTEX_POINT('',#1879);
#569=VERTEX_POINT('',#1883);
#570=VERTEX_POINT('',#1887);
#571=VERTEX_POINT('',#1892);
#572=VERTEX_POINT('',#1894);
#573=VERTEX_POINT('',#1897);
#574=VERTEX_POINT('',#1898);
#575=VERTEX_POINT('',#1900);
#576=VERTEX_POINT('',#1902);
#577=VERTEX_POINT('',#1904);
#578=VERTEX_POINT('',#1906);
#579=VERTEX_POINT('',#1908);
#580=VERTEX_POINT('',#1910);
#581=VERTEX_POINT('',#1918);
#582=VERTEX_POINT('',#1919);
#583=VERTEX_POINT('',#1921);
#584=VERTEX_POINT('',#1923);
#585=VERTEX_POINT('',#1927);
#586=VERTEX_POINT('',#1929);
#587=VERTEX_POINT('',#1933);
#588=VERTEX_POINT('',#1935);
#589=VERTEX_POINT('',#1942);
#590=VERTEX_POINT('',#1944);
#591=VERTEX_POINT('',#1948);
#592=VERTEX_POINT('',#1953);
#593=VERTEX_POINT('',#1959);
#594=VERTEX_POINT('',#1960);
#595=VERTEX_POINT('',#1962);
#596=VERTEX_POINT('',#1964);
#597=VERTEX_POINT('',#1968);
#598=VERTEX_POINT('',#1970);
#599=VERTEX_POINT('',#1974);
#600=VERTEX_POINT('',#1976);
#601=VERTEX_POINT('',#1983);
#602=VERTEX_POINT('',#1985);
#603=VERTEX_POINT('',#1989);
#604=VERTEX_POINT('',#1994);
#605=VERTEX_POINT('',#2000);
#606=VERTEX_POINT('',#2002);
#607=VERTEX_POINT('',#2012);
#608=VERTEX_POINT('',#2014);
#609=EDGE_CURVE('',#504,#505,#216,.T.);
#610=EDGE_CURVE('',#506,#505,#217,.T.);
#611=EDGE_CURVE('',#507,#506,#218,.T.);
#612=EDGE_CURVE('',#504,#507,#219,.T.);
#613=EDGE_CURVE('',#508,#504,#220,.T.);
#614=EDGE_CURVE('',#509,#507,#221,.T.);
#615=EDGE_CURVE('',#508,#509,#222,.T.);
#616=EDGE_CURVE('',#510,#508,#223,.T.);
#617=EDGE_CURVE('',#511,#509,#224,.T.);
#618=EDGE_CURVE('',#510,#511,#225,.T.);
#619=EDGE_CURVE('',#505,#510,#226,.T.);
#620=EDGE_CURVE('',#511,#506,#227,.T.);
#621=EDGE_CURVE('',#512,#511,#228,.T.);
#622=EDGE_CURVE('',#512,#513,#229,.T.);
#623=EDGE_CURVE('',#514,#513,#230,.T.);
#624=EDGE_CURVE('',#514,#515,#231,.T.);
#625=EDGE_CURVE('',#516,#515,#232,.T.);
#626=EDGE_CURVE('',#517,#516,#233,.T.);
#627=EDGE_CURVE('',#518,#517,#234,.T.);
#628=EDGE_CURVE('',#519,#518,#235,.T.);
#629=EDGE_CURVE('',#506,#519,#236,.T.);
#630=EDGE_CURVE('',#520,#521,#237,.T.);
#631=EDGE_CURVE('',#521,#522,#238,.T.);
#632=EDGE_CURVE('',#522,#523,#239,.T.);
#633=EDGE_CURVE('',#523,#520,#240,.T.);
#634=EDGE_CURVE('',#524,#525,#241,.T.);
#635=EDGE_CURVE('',#525,#521,#31,.T.);
#636=EDGE_CURVE('',#520,#524,#32,.T.);
#637=EDGE_CURVE('',#526,#527,#242,.T.);
#638=EDGE_CURVE('',#527,#525,#243,.T.);
#639=EDGE_CURVE('',#524,#526,#244,.T.);
#640=EDGE_CURVE('',#512,#528,#245,.T.);
#641=EDGE_CURVE('',#528,#527,#33,.T.);
#642=EDGE_CURVE('',#526,#512,#34,.T.);
#643=EDGE_CURVE('',#519,#529,#246,.T.);
#644=EDGE_CURVE('',#529,#528,#247,.T.);
#645=EDGE_CURVE('',#530,#531,#248,.T.);
#646=EDGE_CURVE('',#531,#529,#35,.T.);
#647=EDGE_CURVE('',#519,#530,#36,.T.);
#648=EDGE_CURVE('',#532,#533,#249,.T.);
#649=EDGE_CURVE('',#533,#531,#250,.T.);
#650=EDGE_CURVE('',#530,#532,#251,.T.);
#651=EDGE_CURVE('',#522,#533,#37,.T.);
#652=EDGE_CURVE('',#532,#523,#38,.T.);
#653=EDGE_CURVE('',#526,#534,#252,.T.);
#654=EDGE_CURVE('',#513,#534,#39,.T.);
#655=EDGE_CURVE('',#524,#535,#253,.T.);
#656=EDGE_CURVE('',#534,#535,#254,.T.);
#657=EDGE_CURVE('',#520,#536,#255,.T.);
#658=EDGE_CURVE('',#535,#536,#40,.T.);
#659=EDGE_CURVE('',#523,#537,#256,.T.);
#660=EDGE_CURVE('',#536,#537,#257,.T.);
#661=EDGE_CURVE('',#538,#539,#258,.T.);
#662=EDGE_CURVE('',#540,#538,#259,.T.);
#663=EDGE_CURVE('',#541,#540,#260,.T.);
#664=EDGE_CURVE('',#539,#541,#261,.T.);
#665=EDGE_CURVE('',#542,#542,#41,.T.);
#666=EDGE_CURVE('',#542,#543,#262,.T.);
#667=EDGE_CURVE('',#543,#543,#42,.T.);
#668=EDGE_CURVE('',#543,#544,#263,.T.);
#669=EDGE_CURVE('',#544,#544,#43,.T.);
#670=EDGE_CURVE('',#545,#546,#264,.T.);
#671=EDGE_CURVE('',#547,#545,#265,.T.);
#672=EDGE_CURVE('',#548,#547,#266,.T.);
#673=EDGE_CURVE('',#549,#548,#267,.T.);
#674=EDGE_CURVE('',#550,#549,#268,.T.);
#675=EDGE_CURVE('',#551,#550,#269,.T.);
#676=EDGE_CURVE('',#552,#551,#270,.T.);
#677=EDGE_CURVE('',#546,#552,#271,.T.);
#678=EDGE_CURVE('',#553,#554,#272,.T.);
#679=EDGE_CURVE('',#554,#555,#273,.T.);
#680=EDGE_CURVE('',#555,#556,#274,.T.);
#681=EDGE_CURVE('',#556,#553,#275,.T.);
#682=EDGE_CURVE('',#553,#557,#44,.T.);
#683=EDGE_CURVE('',#557,#558,#276,.T.);
#684=EDGE_CURVE('',#558,#554,#45,.T.);
#685=EDGE_CURVE('',#559,#560,#277,.T.);
#686=EDGE_CURVE('',#560,#558,#278,.T.);
#687=EDGE_CURVE('',#557,#559,#279,.T.);
#688=EDGE_CURVE('',#559,#538,#46,.T.);
#689=EDGE_CURVE('',#538,#561,#280,.T.);
#690=EDGE_CURVE('',#561,#560,#47,.T.);
#691=EDGE_CURVE('',#539,#562,#281,.T.);
#692=EDGE_CURVE('',#562,#561,#282,.T.);
#693=EDGE_CURVE('',#539,#563,#48,.T.);
#694=EDGE_CURVE('',#563,#564,#283,.T.);
#695=EDGE_CURVE('',#564,#562,#49,.T.);
#696=EDGE_CURVE('',#565,#566,#284,.T.);
#697=EDGE_CURVE('',#566,#564,#285,.T.);
#698=EDGE_CURVE('',#563,#565,#286,.T.);
#699=EDGE_CURVE('',#565,#556,#50,.T.);
#700=EDGE_CURVE('',#555,#566,#51,.T.);
#701=EDGE_CURVE('',#559,#567,#287,.T.);
#702=EDGE_CURVE('',#567,#540,#52,.T.);
#703=EDGE_CURVE('',#568,#557,#288,.T.);
#704=EDGE_CURVE('',#567,#568,#289,.T.);
#705=EDGE_CURVE('',#553,#569,#290,.T.);
#706=EDGE_CURVE('',#569,#568,#53,.T.);
#707=EDGE_CURVE('',#570,#556,#291,.T.);
#708=EDGE_CURVE('',#569,#570,#292,.T.);
#709=EDGE_CURVE('',#571,#570,#54,.T.);
#710=EDGE_CURVE('',#571,#572,#293,.T.);
#711=EDGE_CURVE('',#541,#572,#55,.T.);
#712=EDGE_CURVE('',#573,#574,#294,.T.);
#713=EDGE_CURVE('',#574,#575,#295,.T.);
#714=EDGE_CURVE('',#575,#576,#296,.T.);
#715=EDGE_CURVE('',#576,#577,#297,.T.);
#716=EDGE_CURVE('',#577,#578,#298,.T.);
#717=EDGE_CURVE('',#578,#579,#299,.T.);
#718=EDGE_CURVE('',#579,#580,#300,.T.);
#719=EDGE_CURVE('',#580,#573,#301,.T.);
#720=EDGE_CURVE('',#565,#571,#302,.T.);
#721=EDGE_CURVE('',#572,#563,#303,.T.);
#722=EDGE_CURVE('',#581,#582,#304,.T.);
#723=EDGE_CURVE('',#582,#583,#305,.T.);
#724=EDGE_CURVE('',#583,#584,#306,.T.);
#725=EDGE_CURVE('',#581,#584,#307,.T.);
#726=EDGE_CURVE('',#585,#583,#308,.T.);
#727=EDGE_CURVE('',#582,#586,#309,.T.);
#728=EDGE_CURVE('',#586,#585,#310,.T.);
#729=EDGE_CURVE('',#587,#585,#311,.T.);
#730=EDGE_CURVE('',#586,#588,#312,.T.);
#731=EDGE_CURVE('',#588,#587,#313,.T.);
#732=EDGE_CURVE('',#584,#587,#314,.T.);
#733=EDGE_CURVE('',#588,#581,#315,.T.);
#734=EDGE_CURVE('',#589,#584,#316,.T.);
#735=EDGE_CURVE('',#590,#589,#317,.T.);
#736=EDGE_CURVE('',#590,#587,#318,.T.);
#737=EDGE_CURVE('',#591,#583,#319,.T.);
#738=EDGE_CURVE('',#589,#591,#320,.T.);
#739=EDGE_CURVE('',#592,#590,#321,.T.);
#740=EDGE_CURVE('',#592,#585,#322,.T.);
#741=EDGE_CURVE('',#591,#592,#323,.T.);
#742=EDGE_CURVE('',#593,#594,#324,.T.);
#743=EDGE_CURVE('',#594,#595,#325,.T.);
#744=EDGE_CURVE('',#595,#596,#326,.T.);
#745=EDGE_CURVE('',#593,#596,#327,.T.);
#746=EDGE_CURVE('',#594,#597,#328,.T.);
#747=EDGE_CURVE('',#597,#598,#329,.T.);
#748=EDGE_CURVE('',#598,#595,#330,.T.);
#749=EDGE_CURVE('',#597,#599,#331,.T.);
#750=EDGE_CURVE('',#599,#600,#332,.T.);
#751=EDGE_CURVE('',#600,#598,#333,.T.);
#752=EDGE_CURVE('',#596,#600,#334,.T.);
#753=EDGE_CURVE('',#599,#593,#335,.T.);
#754=EDGE_CURVE('',#601,#596,#336,.T.);
#755=EDGE_CURVE('',#602,#601,#337,.T.);
#756=EDGE_CURVE('',#602,#600,#338,.T.);
#757=EDGE_CURVE('',#603,#595,#339,.T.);
#758=EDGE_CURVE('',#601,#603,#340,.T.);
#759=EDGE_CURVE('',#604,#598,#341,.T.);
#760=EDGE_CURVE('',#603,#604,#342,.T.);
#761=EDGE_CURVE('',#604,#602,#343,.T.);
#762=EDGE_CURVE('',#605,#516,#344,.T.);
#763=EDGE_CURVE('',#515,#606,#345,.T.);
#764=EDGE_CURVE('',#605,#606,#346,.T.);
#765=EDGE_CURVE('',#517,#605,#347,.T.);
#766=EDGE_CURVE('',#606,#514,#348,.T.);
#767=EDGE_CURVE('',#573,#549,#349,.T.);
#768=EDGE_CURVE('',#550,#580,#350,.T.);
#769=EDGE_CURVE('',#537,#607,#56,.T.);
#770=EDGE_CURVE('',#607,#608,#351,.T.);
#771=EDGE_CURVE('',#608,#518,#57,.T.);
#772=EDGE_CURVE('',#532,#607,#352,.T.);
#773=EDGE_CURVE('',#530,#608,#353,.T.);
#774=EDGE_CURVE('',#548,#574,#354,.T.);
#775=EDGE_CURVE('',#547,#575,#355,.T.);
#776=EDGE_CURVE('',#545,#576,#356,.T.);
#777=EDGE_CURVE('',#546,#577,#357,.T.);
#778=EDGE_CURVE('',#552,#578,#358,.T.);
#779=EDGE_CURVE('',#551,#579,#359,.T.);
#780=ORIENTED_EDGE('',*,*,#609,.T.);
#781=ORIENTED_EDGE('',*,*,#610,.F.);
#782=ORIENTED_EDGE('',*,*,#611,.F.);
#783=ORIENTED_EDGE('',*,*,#612,.F.);
#784=ORIENTED_EDGE('',*,*,#613,.T.);
#785=ORIENTED_EDGE('',*,*,#612,.T.);
#786=ORIENTED_EDGE('',*,*,#614,.F.);
#787=ORIENTED_EDGE('',*,*,#615,.F.);
#788=ORIENTED_EDGE('',*,*,#616,.T.);
#789=ORIENTED_EDGE('',*,*,#615,.T.);
#790=ORIENTED_EDGE('',*,*,#617,.F.);
#791=ORIENTED_EDGE('',*,*,#618,.F.);
#792=ORIENTED_EDGE('',*,*,#619,.F.);
#793=ORIENTED_EDGE('',*,*,#609,.F.);
#794=ORIENTED_EDGE('',*,*,#613,.F.);
#795=ORIENTED_EDGE('',*,*,#616,.F.);
#796=ORIENTED_EDGE('',*,*,#620,.F.);
#797=ORIENTED_EDGE('',*,*,#617,.T.);
#798=ORIENTED_EDGE('',*,*,#614,.T.);
#799=ORIENTED_EDGE('',*,*,#611,.T.);
#800=ORIENTED_EDGE('',*,*,#610,.T.);
#801=ORIENTED_EDGE('',*,*,#619,.T.);
#802=ORIENTED_EDGE('',*,*,#618,.T.);
#803=ORIENTED_EDGE('',*,*,#621,.F.);
#804=ORIENTED_EDGE('',*,*,#622,.T.);
#805=ORIENTED_EDGE('',*,*,#623,.F.);
#806=ORIENTED_EDGE('',*,*,#624,.T.);
#807=ORIENTED_EDGE('',*,*,#625,.F.);
#808=ORIENTED_EDGE('',*,*,#626,.F.);
#809=ORIENTED_EDGE('',*,*,#627,.F.);
#810=ORIENTED_EDGE('',*,*,#628,.F.);
#811=ORIENTED_EDGE('',*,*,#629,.F.);
#812=ORIENTED_EDGE('',*,*,#630,.T.);
#813=ORIENTED_EDGE('',*,*,#631,.T.);
#814=ORIENTED_EDGE('',*,*,#632,.T.);
#815=ORIENTED_EDGE('',*,*,#633,.T.);
#816=ORIENTED_EDGE('',*,*,#634,.T.);
#817=ORIENTED_EDGE('',*,*,#635,.T.);
#818=ORIENTED_EDGE('',*,*,#630,.F.);
#819=ORIENTED_EDGE('',*,*,#636,.T.);
#820=ORIENTED_EDGE('',*,*,#637,.T.);
#821=ORIENTED_EDGE('',*,*,#638,.T.);
#822=ORIENTED_EDGE('',*,*,#634,.F.);
#823=ORIENTED_EDGE('',*,*,#639,.T.);
#824=ORIENTED_EDGE('',*,*,#640,.T.);
#825=ORIENTED_EDGE('',*,*,#641,.T.);
#826=ORIENTED_EDGE('',*,*,#637,.F.);
#827=ORIENTED_EDGE('',*,*,#642,.T.);
#828=ORIENTED_EDGE('',*,*,#643,.T.);
#829=ORIENTED_EDGE('',*,*,#644,.T.);
#830=ORIENTED_EDGE('',*,*,#640,.F.);
#831=ORIENTED_EDGE('',*,*,#621,.T.);
#832=ORIENTED_EDGE('',*,*,#620,.T.);
#833=ORIENTED_EDGE('',*,*,#629,.T.);
#834=ORIENTED_EDGE('',*,*,#645,.T.);
#835=ORIENTED_EDGE('',*,*,#646,.T.);
#836=ORIENTED_EDGE('',*,*,#643,.F.);
#837=ORIENTED_EDGE('',*,*,#647,.T.);
#838=ORIENTED_EDGE('',*,*,#648,.T.);
#839=ORIENTED_EDGE('',*,*,#649,.T.);
#840=ORIENTED_EDGE('',*,*,#645,.F.);
#841=ORIENTED_EDGE('',*,*,#650,.T.);
#842=ORIENTED_EDGE('',*,*,#632,.F.);
#843=ORIENTED_EDGE('',*,*,#651,.T.);
#844=ORIENTED_EDGE('',*,*,#648,.F.);
#845=ORIENTED_EDGE('',*,*,#652,.T.);
#846=ORIENTED_EDGE('',*,*,#642,.F.);
#847=ORIENTED_EDGE('',*,*,#653,.T.);
#848=ORIENTED_EDGE('',*,*,#654,.F.);
#849=ORIENTED_EDGE('',*,*,#622,.F.);
#850=ORIENTED_EDGE('',*,*,#639,.F.);
#851=ORIENTED_EDGE('',*,*,#655,.T.);
#852=ORIENTED_EDGE('',*,*,#656,.F.);
#853=ORIENTED_EDGE('',*,*,#653,.F.);
#854=ORIENTED_EDGE('',*,*,#636,.F.);
#855=ORIENTED_EDGE('',*,*,#657,.T.);
#856=ORIENTED_EDGE('',*,*,#658,.F.);
#857=ORIENTED_EDGE('',*,*,#655,.F.);
#858=ORIENTED_EDGE('',*,*,#633,.F.);
#859=ORIENTED_EDGE('',*,*,#659,.T.);
#860=ORIENTED_EDGE('',*,*,#660,.F.);
#861=ORIENTED_EDGE('',*,*,#657,.F.);
#862=ORIENTED_EDGE('',*,*,#661,.F.);
#863=ORIENTED_EDGE('',*,*,#662,.F.);
#864=ORIENTED_EDGE('',*,*,#663,.F.);
#865=ORIENTED_EDGE('',*,*,#664,.F.);
#866=ORIENTED_EDGE('',*,*,#631,.F.);
#867=ORIENTED_EDGE('',*,*,#635,.F.);
#868=ORIENTED_EDGE('',*,*,#638,.F.);
#869=ORIENTED_EDGE('',*,*,#641,.F.);
#870=ORIENTED_EDGE('',*,*,#644,.F.);
#871=ORIENTED_EDGE('',*,*,#646,.F.);
#872=ORIENTED_EDGE('',*,*,#649,.F.);
#873=ORIENTED_EDGE('',*,*,#651,.F.);
#874=ORIENTED_EDGE('',*,*,#665,.T.);
#875=ORIENTED_EDGE('',*,*,#666,.T.);
#876=ORIENTED_EDGE('',*,*,#667,.T.);
#877=ORIENTED_EDGE('',*,*,#666,.F.);
#878=ORIENTED_EDGE('',*,*,#667,.F.);
#879=ORIENTED_EDGE('',*,*,#668,.T.);
#880=ORIENTED_EDGE('',*,*,#669,.F.);
#881=ORIENTED_EDGE('',*,*,#668,.F.);
#882=ORIENTED_EDGE('',*,*,#670,.F.);
#883=ORIENTED_EDGE('',*,*,#671,.F.);
#884=ORIENTED_EDGE('',*,*,#672,.F.);
#885=ORIENTED_EDGE('',*,*,#673,.F.);
#886=ORIENTED_EDGE('',*,*,#674,.F.);
#887=ORIENTED_EDGE('',*,*,#675,.F.);
#888=ORIENTED_EDGE('',*,*,#676,.F.);
#889=ORIENTED_EDGE('',*,*,#677,.F.);
#890=ORIENTED_EDGE('',*,*,#665,.F.);
#891=ORIENTED_EDGE('',*,*,#678,.T.);
#892=ORIENTED_EDGE('',*,*,#679,.T.);
#893=ORIENTED_EDGE('',*,*,#680,.T.);
#894=ORIENTED_EDGE('',*,*,#681,.T.);
#895=ORIENTED_EDGE('',*,*,#678,.F.);
#896=ORIENTED_EDGE('',*,*,#682,.T.);
#897=ORIENTED_EDGE('',*,*,#683,.T.);
#898=ORIENTED_EDGE('',*,*,#684,.T.);
#899=ORIENTED_EDGE('',*,*,#685,.T.);
#900=ORIENTED_EDGE('',*,*,#686,.T.);
#901=ORIENTED_EDGE('',*,*,#683,.F.);
#902=ORIENTED_EDGE('',*,*,#687,.T.);
#903=ORIENTED_EDGE('',*,*,#685,.F.);
#904=ORIENTED_EDGE('',*,*,#688,.T.);
#905=ORIENTED_EDGE('',*,*,#689,.T.);
#906=ORIENTED_EDGE('',*,*,#690,.T.);
#907=ORIENTED_EDGE('',*,*,#691,.T.);
#908=ORIENTED_EDGE('',*,*,#692,.T.);
#909=ORIENTED_EDGE('',*,*,#689,.F.);
#910=ORIENTED_EDGE('',*,*,#661,.T.);
#911=ORIENTED_EDGE('',*,*,#691,.F.);
#912=ORIENTED_EDGE('',*,*,#693,.T.);
#913=ORIENTED_EDGE('',*,*,#694,.T.);
#914=ORIENTED_EDGE('',*,*,#695,.T.);
#915=ORIENTED_EDGE('',*,*,#696,.T.);
#916=ORIENTED_EDGE('',*,*,#697,.T.);
#917=ORIENTED_EDGE('',*,*,#694,.F.);
#918=ORIENTED_EDGE('',*,*,#698,.T.);
#919=ORIENTED_EDGE('',*,*,#696,.F.);
#920=ORIENTED_EDGE('',*,*,#699,.T.);
#921=ORIENTED_EDGE('',*,*,#680,.F.);
#922=ORIENTED_EDGE('',*,*,#700,.T.);
#923=ORIENTED_EDGE('',*,*,#688,.F.);
#924=ORIENTED_EDGE('',*,*,#701,.T.);
#925=ORIENTED_EDGE('',*,*,#702,.T.);
#926=ORIENTED_EDGE('',*,*,#662,.T.);
#927=ORIENTED_EDGE('',*,*,#687,.F.);
#928=ORIENTED_EDGE('',*,*,#703,.F.);
#929=ORIENTED_EDGE('',*,*,#704,.F.);
#930=ORIENTED_EDGE('',*,*,#701,.F.);
#931=ORIENTED_EDGE('',*,*,#682,.F.);
#932=ORIENTED_EDGE('',*,*,#705,.T.);
#933=ORIENTED_EDGE('',*,*,#706,.T.);
#934=ORIENTED_EDGE('',*,*,#703,.T.);
#935=ORIENTED_EDGE('',*,*,#681,.F.);
#936=ORIENTED_EDGE('',*,*,#707,.F.);
#937=ORIENTED_EDGE('',*,*,#708,.F.);
#938=ORIENTED_EDGE('',*,*,#705,.F.);
#939=ORIENTED_EDGE('',*,*,#679,.F.);
#940=ORIENTED_EDGE('',*,*,#684,.F.);
#941=ORIENTED_EDGE('',*,*,#686,.F.);
#942=ORIENTED_EDGE('',*,*,#690,.F.);
#943=ORIENTED_EDGE('',*,*,#692,.F.);
#944=ORIENTED_EDGE('',*,*,#695,.F.);
#945=ORIENTED_EDGE('',*,*,#697,.F.);
#946=ORIENTED_EDGE('',*,*,#700,.F.);
#947=ORIENTED_EDGE('',*,*,#669,.T.);
#948=ORIENTED_EDGE('',*,*,#706,.F.);
#949=ORIENTED_EDGE('',*,*,#708,.T.);
#950=ORIENTED_EDGE('',*,*,#709,.F.);
#951=ORIENTED_EDGE('',*,*,#710,.T.);
#952=ORIENTED_EDGE('',*,*,#711,.F.);
#953=ORIENTED_EDGE('',*,*,#663,.T.);
#954=ORIENTED_EDGE('',*,*,#702,.F.);
#955=ORIENTED_EDGE('',*,*,#704,.T.);
#956=ORIENTED_EDGE('',*,*,#712,.T.);
#957=ORIENTED_EDGE('',*,*,#713,.T.);
#958=ORIENTED_EDGE('',*,*,#714,.T.);
#959=ORIENTED_EDGE('',*,*,#715,.T.);
#960=ORIENTED_EDGE('',*,*,#716,.T.);
#961=ORIENTED_EDGE('',*,*,#717,.T.);
#962=ORIENTED_EDGE('',*,*,#718,.T.);
#963=ORIENTED_EDGE('',*,*,#719,.T.);
#964=ORIENTED_EDGE('',*,*,#699,.F.);
#965=ORIENTED_EDGE('',*,*,#720,.T.);
#966=ORIENTED_EDGE('',*,*,#709,.T.);
#967=ORIENTED_EDGE('',*,*,#707,.T.);
#968=ORIENTED_EDGE('',*,*,#693,.F.);
#969=ORIENTED_EDGE('',*,*,#664,.T.);
#970=ORIENTED_EDGE('',*,*,#711,.T.);
#971=ORIENTED_EDGE('',*,*,#721,.T.);
#972=ORIENTED_EDGE('',*,*,#722,.T.);
#973=ORIENTED_EDGE('',*,*,#723,.T.);
#974=ORIENTED_EDGE('',*,*,#724,.T.);
#975=ORIENTED_EDGE('',*,*,#725,.F.);
#976=ORIENTED_EDGE('',*,*,#726,.T.);
#977=ORIENTED_EDGE('',*,*,#723,.F.);
#978=ORIENTED_EDGE('',*,*,#727,.T.);
#979=ORIENTED_EDGE('',*,*,#728,.T.);
#980=ORIENTED_EDGE('',*,*,#729,.T.);
#981=ORIENTED_EDGE('',*,*,#728,.F.);
#982=ORIENTED_EDGE('',*,*,#730,.T.);
#983=ORIENTED_EDGE('',*,*,#731,.T.);
#984=ORIENTED_EDGE('',*,*,#732,.T.);
#985=ORIENTED_EDGE('',*,*,#731,.F.);
#986=ORIENTED_EDGE('',*,*,#733,.T.);
#987=ORIENTED_EDGE('',*,*,#725,.T.);
#988=ORIENTED_EDGE('',*,*,#732,.F.);
#989=ORIENTED_EDGE('',*,*,#734,.F.);
#990=ORIENTED_EDGE('',*,*,#735,.F.);
#991=ORIENTED_EDGE('',*,*,#736,.T.);
#992=ORIENTED_EDGE('',*,*,#724,.F.);
#993=ORIENTED_EDGE('',*,*,#737,.F.);
#994=ORIENTED_EDGE('',*,*,#738,.F.);
#995=ORIENTED_EDGE('',*,*,#734,.T.);
#996=ORIENTED_EDGE('',*,*,#722,.F.);
#997=ORIENTED_EDGE('',*,*,#733,.F.);
#998=ORIENTED_EDGE('',*,*,#730,.F.);
#999=ORIENTED_EDGE('',*,*,#727,.F.);
#1000=ORIENTED_EDGE('',*,*,#729,.F.);
#1001=ORIENTED_EDGE('',*,*,#736,.F.);
#1002=ORIENTED_EDGE('',*,*,#739,.F.);
#1003=ORIENTED_EDGE('',*,*,#740,.T.);
#1004=ORIENTED_EDGE('',*,*,#726,.F.);
#1005=ORIENTED_EDGE('',*,*,#740,.F.);
#1006=ORIENTED_EDGE('',*,*,#741,.F.);
#1007=ORIENTED_EDGE('',*,*,#737,.T.);
#1008=ORIENTED_EDGE('',*,*,#742,.T.);
#1009=ORIENTED_EDGE('',*,*,#743,.T.);
#1010=ORIENTED_EDGE('',*,*,#744,.T.);
#1011=ORIENTED_EDGE('',*,*,#745,.F.);
#1012=ORIENTED_EDGE('',*,*,#746,.T.);
#1013=ORIENTED_EDGE('',*,*,#747,.T.);
#1014=ORIENTED_EDGE('',*,*,#748,.T.);
#1015=ORIENTED_EDGE('',*,*,#743,.F.);
#1016=ORIENTED_EDGE('',*,*,#749,.T.);
#1017=ORIENTED_EDGE('',*,*,#750,.T.);
#1018=ORIENTED_EDGE('',*,*,#751,.T.);
#1019=ORIENTED_EDGE('',*,*,#747,.F.);
#1020=ORIENTED_EDGE('',*,*,#752,.T.);
#1021=ORIENTED_EDGE('',*,*,#750,.F.);
#1022=ORIENTED_EDGE('',*,*,#753,.T.);
#1023=ORIENTED_EDGE('',*,*,#745,.T.);
#1024=ORIENTED_EDGE('',*,*,#752,.F.);
#1025=ORIENTED_EDGE('',*,*,#754,.F.);
#1026=ORIENTED_EDGE('',*,*,#755,.F.);
#1027=ORIENTED_EDGE('',*,*,#756,.T.);
#1028=ORIENTED_EDGE('',*,*,#744,.F.);
#1029=ORIENTED_EDGE('',*,*,#757,.F.);
#1030=ORIENTED_EDGE('',*,*,#758,.F.);
#1031=ORIENTED_EDGE('',*,*,#754,.T.);
#1032=ORIENTED_EDGE('',*,*,#742,.F.);
#1033=ORIENTED_EDGE('',*,*,#753,.F.);
#1034=ORIENTED_EDGE('',*,*,#749,.F.);
#1035=ORIENTED_EDGE('',*,*,#746,.F.);
#1036=ORIENTED_EDGE('',*,*,#748,.F.);
#1037=ORIENTED_EDGE('',*,*,#759,.F.);
#1038=ORIENTED_EDGE('',*,*,#760,.F.);
#1039=ORIENTED_EDGE('',*,*,#757,.T.);
#1040=ORIENTED_EDGE('',*,*,#751,.F.);
#1041=ORIENTED_EDGE('',*,*,#756,.F.);
#1042=ORIENTED_EDGE('',*,*,#761,.F.);
#1043=ORIENTED_EDGE('',*,*,#759,.T.);
#1044=ORIENTED_EDGE('',*,*,#762,.T.);
#1045=ORIENTED_EDGE('',*,*,#625,.T.);
#1046=ORIENTED_EDGE('',*,*,#763,.T.);
#1047=ORIENTED_EDGE('',*,*,#764,.F.);
#1048=ORIENTED_EDGE('',*,*,#762,.F.);
#1049=ORIENTED_EDGE('',*,*,#765,.F.);
#1050=ORIENTED_EDGE('',*,*,#626,.T.);
#1051=ORIENTED_EDGE('',*,*,#763,.F.);
#1052=ORIENTED_EDGE('',*,*,#624,.F.);
#1053=ORIENTED_EDGE('',*,*,#766,.F.);
#1054=ORIENTED_EDGE('',*,*,#674,.T.);
#1055=ORIENTED_EDGE('',*,*,#767,.F.);
#1056=ORIENTED_EDGE('',*,*,#719,.F.);
#1057=ORIENTED_EDGE('',*,*,#768,.F.);
#1058=ORIENTED_EDGE('',*,*,#627,.T.);
#1059=ORIENTED_EDGE('',*,*,#765,.T.);
#1060=ORIENTED_EDGE('',*,*,#764,.T.);
#1061=ORIENTED_EDGE('',*,*,#766,.T.);
#1062=ORIENTED_EDGE('',*,*,#623,.T.);
#1063=ORIENTED_EDGE('',*,*,#654,.T.);
#1064=ORIENTED_EDGE('',*,*,#656,.T.);
#1065=ORIENTED_EDGE('',*,*,#658,.T.);
#1066=ORIENTED_EDGE('',*,*,#660,.T.);
#1067=ORIENTED_EDGE('',*,*,#769,.T.);
#1068=ORIENTED_EDGE('',*,*,#770,.T.);
#1069=ORIENTED_EDGE('',*,*,#771,.T.);
#1070=ORIENTED_EDGE('',*,*,#652,.F.);
#1071=ORIENTED_EDGE('',*,*,#772,.T.);
#1072=ORIENTED_EDGE('',*,*,#769,.F.);
#1073=ORIENTED_EDGE('',*,*,#659,.F.);
#1074=ORIENTED_EDGE('',*,*,#650,.F.);
#1075=ORIENTED_EDGE('',*,*,#773,.T.);
#1076=ORIENTED_EDGE('',*,*,#770,.F.);
#1077=ORIENTED_EDGE('',*,*,#772,.F.);
#1078=ORIENTED_EDGE('',*,*,#647,.F.);
#1079=ORIENTED_EDGE('',*,*,#628,.T.);
#1080=ORIENTED_EDGE('',*,*,#771,.F.);
#1081=ORIENTED_EDGE('',*,*,#773,.F.);
#1082=ORIENTED_EDGE('',*,*,#673,.T.);
#1083=ORIENTED_EDGE('',*,*,#774,.T.);
#1084=ORIENTED_EDGE('',*,*,#712,.F.);
#1085=ORIENTED_EDGE('',*,*,#767,.T.);
#1086=ORIENTED_EDGE('',*,*,#672,.T.);
#1087=ORIENTED_EDGE('',*,*,#775,.T.);
#1088=ORIENTED_EDGE('',*,*,#713,.F.);
#1089=ORIENTED_EDGE('',*,*,#774,.F.);
#1090=ORIENTED_EDGE('',*,*,#758,.T.);
#1091=ORIENTED_EDGE('',*,*,#760,.T.);
#1092=ORIENTED_EDGE('',*,*,#761,.T.);
#1093=ORIENTED_EDGE('',*,*,#755,.T.);
#1094=ORIENTED_EDGE('',*,*,#671,.T.);
#1095=ORIENTED_EDGE('',*,*,#776,.T.);
#1096=ORIENTED_EDGE('',*,*,#714,.F.);
#1097=ORIENTED_EDGE('',*,*,#775,.F.);
#1098=ORIENTED_EDGE('',*,*,#670,.T.);
#1099=ORIENTED_EDGE('',*,*,#777,.T.);
#1100=ORIENTED_EDGE('',*,*,#715,.F.);
#1101=ORIENTED_EDGE('',*,*,#776,.F.);
#1102=ORIENTED_EDGE('',*,*,#677,.T.);
#1103=ORIENTED_EDGE('',*,*,#778,.T.);
#1104=ORIENTED_EDGE('',*,*,#716,.F.);
#1105=ORIENTED_EDGE('',*,*,#777,.F.);
#1106=ORIENTED_EDGE('',*,*,#676,.T.);
#1107=ORIENTED_EDGE('',*,*,#779,.T.);
#1108=ORIENTED_EDGE('',*,*,#717,.F.);
#1109=ORIENTED_EDGE('',*,*,#778,.F.);
#1110=ORIENTED_EDGE('',*,*,#735,.T.);
#1111=ORIENTED_EDGE('',*,*,#738,.T.);
#1112=ORIENTED_EDGE('',*,*,#741,.T.);
#1113=ORIENTED_EDGE('',*,*,#739,.T.);
#1114=ORIENTED_EDGE('',*,*,#675,.T.);
#1115=ORIENTED_EDGE('',*,*,#768,.T.);
#1116=ORIENTED_EDGE('',*,*,#718,.F.);
#1117=ORIENTED_EDGE('',*,*,#779,.F.);
#1118=ORIENTED_EDGE('',*,*,#698,.F.);
#1119=ORIENTED_EDGE('',*,*,#721,.F.);
#1120=ORIENTED_EDGE('',*,*,#710,.F.);
#1121=ORIENTED_EDGE('',*,*,#720,.F.);
#1122=PLANE('',#1248);
#1123=PLANE('',#1249);
#1124=PLANE('',#1250);
#1125=PLANE('',#1251);
#1126=PLANE('',#1252);
#1127=PLANE('',#1253);
#1128=PLANE('',#1254);
#1129=PLANE('',#1258);
#1130=PLANE('',#1262);
#1131=PLANE('',#1266);
#1132=PLANE('',#1272);
#1133=PLANE('',#1275);
#1134=PLANE('',#1276);
#1135=PLANE('',#1282);
#1136=PLANE('',#1283);
#1137=PLANE('',#1287);
#1138=PLANE('',#1291);
#1139=PLANE('',#1295);
#1140=PLANE('',#1301);
#1141=PLANE('',#1304);
#1142=PLANE('',#1305);
#1143=PLANE('',#1306);
#1144=PLANE('',#1311);
#1145=PLANE('',#1312);
#1146=PLANE('',#1313);
#1147=PLANE('',#1314);
#1148=PLANE('',#1315);
#1149=PLANE('',#1316);
#1150=PLANE('',#1317);
#1151=PLANE('',#1318);
#1152=PLANE('',#1319);
#1153=PLANE('',#1320);
#1154=PLANE('',#1321);
#1155=PLANE('',#1322);
#1156=PLANE('',#1323);
#1157=PLANE('',#1324);
#1158=PLANE('',#1325);
#1159=PLANE('',#1326);
#1160=PLANE('',#1327);
#1161=PLANE('',#1328);
#1162=PLANE('',#1329);
#1163=PLANE('',#1330);
#1164=PLANE('',#1331);
#1165=PLANE('',#1332);
#1166=PLANE('',#1336);
#1167=PLANE('',#1338);
#1168=PLANE('',#1339);
#1169=PLANE('',#1340);
#1170=PLANE('',#1341);
#1171=PLANE('',#1342);
#1172=PLANE('',#1343);
#1173=PLANE('',#1344);
#1174=PLANE('',#1345);
#1175=ADVANCED_FACE('',(#67),#1122,.T.);
#1176=ADVANCED_FACE('',(#68),#1123,.T.);
#1177=ADVANCED_FACE('',(#69),#1124,.T.);
#1178=ADVANCED_FACE('',(#70),#1125,.T.);
#1179=ADVANCED_FACE('',(#71),#1126,.T.);
#1180=ADVANCED_FACE('',(#72),#1127,.F.);
#1181=ADVANCED_FACE('',(#73),#1128,.T.);
#1182=ADVANCED_FACE('',(#74),#58,.F.);
#1183=ADVANCED_FACE('',(#75),#1129,.T.);
#1184=ADVANCED_FACE('',(#76),#59,.F.);
#1185=ADVANCED_FACE('',(#77),#1130,.T.);
#1186=ADVANCED_FACE('',(#78),#60,.F.);
#1187=ADVANCED_FACE('',(#79),#1131,.T.);
#1188=ADVANCED_FACE('',(#80),#61,.F.);
#1189=ADVANCED_FACE('',(#81),#22,.F.);
#1190=ADVANCED_FACE('',(#82),#1132,.F.);
#1191=ADVANCED_FACE('',(#83),#23,.F.);
#1192=ADVANCED_FACE('',(#84),#1133,.F.);
#1193=ADVANCED_FACE('',(#85,#15),#1134,.T.);
#1194=ADVANCED_FACE('',(#86),#62,.F.);
#1195=ADVANCED_FACE('',(#87),#24,.F.);
#1196=ADVANCED_FACE('',(#88,#16),#1135,.F.);
#1197=ADVANCED_FACE('',(#89),#1136,.T.);
#1198=ADVANCED_FACE('',(#90),#63,.T.);
#1199=ADVANCED_FACE('',(#91),#1137,.T.);
#1200=ADVANCED_FACE('',(#92),#64,.T.);
#1201=ADVANCED_FACE('',(#93),#1138,.T.);
#1202=ADVANCED_FACE('',(#94),#65,.T.);
#1203=ADVANCED_FACE('',(#95),#1139,.T.);
#1204=ADVANCED_FACE('',(#96),#66,.T.);
#1205=ADVANCED_FACE('',(#97),#25,.T.);
#1206=ADVANCED_FACE('',(#98),#1140,.T.);
#1207=ADVANCED_FACE('',(#99),#26,.T.);
#1208=ADVANCED_FACE('',(#100),#1141,.T.);
#1209=ADVANCED_FACE('',(#101,#17),#1142,.T.);
#1210=ADVANCED_FACE('',(#102,#18),#1143,.T.);
#1211=ADVANCED_FACE('',(#103),#27,.T.);
#1212=ADVANCED_FACE('',(#104),#28,.T.);
#1213=ADVANCED_FACE('',(#105),#1144,.T.);
#1214=ADVANCED_FACE('',(#106),#1145,.T.);
#1215=ADVANCED_FACE('',(#107),#1146,.T.);
#1216=ADVANCED_FACE('',(#108),#1147,.T.);
#1217=ADVANCED_FACE('',(#109),#1148,.F.);
#1218=ADVANCED_FACE('',(#110),#1149,.F.);
#1219=ADVANCED_FACE('',(#111),#1150,.F.);
#1220=ADVANCED_FACE('',(#112),#1151,.F.);
#1221=ADVANCED_FACE('',(#113),#1152,.F.);
#1222=ADVANCED_FACE('',(#114),#1153,.T.);
#1223=ADVANCED_FACE('',(#115),#1154,.T.);
#1224=ADVANCED_FACE('',(#116),#1155,.T.);
#1225=ADVANCED_FACE('',(#117),#1156,.T.);
#1226=ADVANCED_FACE('',(#118),#1157,.T.);
#1227=ADVANCED_FACE('',(#119),#1158,.T.);
#1228=ADVANCED_FACE('',(#120),#1159,.T.);
#1229=ADVANCED_FACE('',(#121),#1160,.T.);
#1230=ADVANCED_FACE('',(#122),#1161,.T.);
#1231=ADVANCED_FACE('',(#123),#1162,.T.);
#1232=ADVANCED_FACE('',(#124),#1163,.T.);
#1233=ADVANCED_FACE('',(#125),#1164,.T.);
#1234=ADVANCED_FACE('',(#126,#19),#1165,.T.);
#1235=ADVANCED_FACE('',(#127),#29,.F.);
#1236=ADVANCED_FACE('',(#128),#1166,.F.);
#1237=ADVANCED_FACE('',(#129),#30,.F.);
#1238=ADVANCED_FACE('',(#130),#1167,.T.);
#1239=ADVANCED_FACE('',(#131,#20),#1168,.T.);
#1240=ADVANCED_FACE('',(#132),#1169,.T.);
#1241=ADVANCED_FACE('',(#133),#1170,.T.);
#1242=ADVANCED_FACE('',(#134),#1171,.T.);
#1243=ADVANCED_FACE('',(#135,#21),#1172,.T.);
#1244=ADVANCED_FACE('',(#136),#1173,.T.);
#1245=ADVANCED_FACE('',(#137),#1174,.T.);
#1246=CLOSED_SHELL('',(#1175,#1176,#1177,#1178,#1179,#1180,#1181,#1182,
#1183,#1184,#1185,#1186,#1187,#1188,#1189,#1190,#1191,#1192,#1193,#1194,
#1195,#1196,#1197,#1198,#1199,#1200,#1201,#1202,#1203,#1204,#1205,#1206,
#1207,#1208,#1209,#1210,#1211,#1212,#1213,#1214,#1215,#1216,#1217,#1218,
#1219,#1220,#1221,#1222,#1223,#1224,#1225,#1226,#1227,#1228,#1229,#1230,
#1231,#1232,#1233,#1234,#1235,#1236,#1237,#1238,#1239,#1240,#1241,#1242,
#1243,#1244,#1245));
#1247=AXIS2_PLACEMENT_3D('',#1688,#1346,#1347);
#1248=AXIS2_PLACEMENT_3D('',#1689,#1348,#1349);
#1249=AXIS2_PLACEMENT_3D('',#1698,#1354,#1355);
#1250=AXIS2_PLACEMENT_3D('',#1704,#1359,#1360);
#1251=AXIS2_PLACEMENT_3D('',#1710,#1364,#1365);
#1252=AXIS2_PLACEMENT_3D('',#1712,#1367,#1368);
#1253=AXIS2_PLACEMENT_3D('',#1714,#1370,#1371);
#1254=AXIS2_PLACEMENT_3D('',#1732,#1381,#1382);
#1255=AXIS2_PLACEMENT_3D('',#1741,#1387,#1388);
#1256=AXIS2_PLACEMENT_3D('',#1745,#1390,#1391);
#1257=AXIS2_PLACEMENT_3D('',#1746,#1392,#1393);
#1258=AXIS2_PLACEMENT_3D('',#1747,#1394,#1395);
#1259=AXIS2_PLACEMENT_3D('',#1753,#1399,#1400);
#1260=AXIS2_PLACEMENT_3D('',#1756,#1402,#1403);
#1261=AXIS2_PLACEMENT_3D('',#1757,#1404,#1405);
#1262=AXIS2_PLACEMENT_3D('',#1758,#1406,#1407);
#1263=AXIS2_PLACEMENT_3D('',#1762,#1410,#1411);
#1264=AXIS2_PLACEMENT_3D('',#1766,#1413,#1414);
#1265=AXIS2_PLACEMENT_3D('',#1767,#1415,#1416);
#1266=AXIS2_PLACEMENT_3D('',#1768,#1417,#1418);
#1267=AXIS2_PLACEMENT_3D('',#1774,#1422,#1423);
#1268=AXIS2_PLACEMENT_3D('',#1775,#1424,#1425);
#1269=AXIS2_PLACEMENT_3D('',#1776,#1426,#1427);
#1270=AXIS2_PLACEMENT_3D('',#1777,#1428,#1429);
#1271=AXIS2_PLACEMENT_3D('',#1780,#1431,#1432);
#1272=AXIS2_PLACEMENT_3D('',#1781,#1433,#1434);
#1273=AXIS2_PLACEMENT_3D('',#1785,#1437,#1438);
#1274=AXIS2_PLACEMENT_3D('',#1788,#1440,#1441);
#1275=AXIS2_PLACEMENT_3D('',#1789,#1442,#1443);
#1276=AXIS2_PLACEMENT_3D('',#1793,#1446,#1447);
#1277=AXIS2_PLACEMENT_3D('',#1802,#1452,#1453);
#1278=AXIS2_PLACEMENT_3D('',#1804,#1454,#1455);
#1279=AXIS2_PLACEMENT_3D('',#1807,#1457,#1458);
#1280=AXIS2_PLACEMENT_3D('',#1808,#1459,#1460);
#1281=AXIS2_PLACEMENT_3D('',#1811,#1462,#1463);
#1282=AXIS2_PLACEMENT_3D('',#1812,#1464,#1465);
#1283=AXIS2_PLACEMENT_3D('',#1829,#1474,#1475);
#1284=AXIS2_PLACEMENT_3D('',#1838,#1480,#1481);
#1285=AXIS2_PLACEMENT_3D('',#1840,#1482,#1483);
#1286=AXIS2_PLACEMENT_3D('',#1843,#1485,#1486);
#1287=AXIS2_PLACEMENT_3D('',#1844,#1487,#1488);
#1288=AXIS2_PLACEMENT_3D('',#1850,#1492,#1493);
#1289=AXIS2_PLACEMENT_3D('',#1851,#1494,#1495);
#1290=AXIS2_PLACEMENT_3D('',#1854,#1497,#1498);
#1291=AXIS2_PLACEMENT_3D('',#1855,#1499,#1500);
#1292=AXIS2_PLACEMENT_3D('',#1859,#1503,#1504);
#1293=AXIS2_PLACEMENT_3D('',#1861,#1505,#1506);
#1294=AXIS2_PLACEMENT_3D('',#1864,#1508,#1509);
#1295=AXIS2_PLACEMENT_3D('',#1865,#1510,#1511);
#1296=AXIS2_PLACEMENT_3D('',#1871,#1515,#1516);
#1297=AXIS2_PLACEMENT_3D('',#1872,#1517,#1518);
#1298=AXIS2_PLACEMENT_3D('',#1873,#1519,#1520);
#1299=AXIS2_PLACEMENT_3D('',#1874,#1521,#1522);
#1300=AXIS2_PLACEMENT_3D('',#1877,#1524,#1525);
#1301=AXIS2_PLACEMENT_3D('',#1878,#1526,#1527);
#1302=AXIS2_PLACEMENT_3D('',#1882,#1530,#1531);
#1303=AXIS2_PLACEMENT_3D('',#1885,#1533,#1534);
#1304=AXIS2_PLACEMENT_3D('',#1886,#1535,#1536);
#1305=AXIS2_PLACEMENT_3D('',#1890,#1539,#1540);
#1306=AXIS2_PLACEMENT_3D('',#1891,#1541,#1542);
#1307=AXIS2_PLACEMENT_3D('',#1893,#1543,#1544);
#1308=AXIS2_PLACEMENT_3D('',#1896,#1546,#1547);
#1309=AXIS2_PLACEMENT_3D('',#1913,#1556,#1557);
#1310=AXIS2_PLACEMENT_3D('',#1915,#1559,#1560);
#1311=AXIS2_PLACEMENT_3D('',#1917,#1562,#1563);
#1312=AXIS2_PLACEMENT_3D('',#1926,#1568,#1569);
#1313=AXIS2_PLACEMENT_3D('',#1932,#1573,#1574);
#1314=AXIS2_PLACEMENT_3D('',#1938,#1578,#1579);
#1315=AXIS2_PLACEMENT_3D('',#1941,#1582,#1583);
#1316=AXIS2_PLACEMENT_3D('',#1947,#1587,#1588);
#1317=AXIS2_PLACEMENT_3D('',#1951,#1591,#1592);
#1318=AXIS2_PLACEMENT_3D('',#1952,#1593,#1594);
#1319=AXIS2_PLACEMENT_3D('',#1956,#1597,#1598);
#1320=AXIS2_PLACEMENT_3D('',#1958,#1600,#1601);
#1321=AXIS2_PLACEMENT_3D('',#1967,#1606,#1607);
#1322=AXIS2_PLACEMENT_3D('',#1973,#1611,#1612);
#1323=AXIS2_PLACEMENT_3D('',#1979,#1616,#1617);
#1324=AXIS2_PLACEMENT_3D('',#1982,#1620,#1621);
#1325=AXIS2_PLACEMENT_3D('',#1988,#1625,#1626);
#1326=AXIS2_PLACEMENT_3D('',#1992,#1629,#1630);
#1327=AXIS2_PLACEMENT_3D('',#1993,#1631,#1632);
#1328=AXIS2_PLACEMENT_3D('',#1997,#1635,#1636);
#1329=AXIS2_PLACEMENT_3D('',#1999,#1638,#1639);
#1330=AXIS2_PLACEMENT_3D('',#2005,#1643,#1644);
#1331=AXIS2_PLACEMENT_3D('',#2007,#1646,#1647);
#1332=AXIS2_PLACEMENT_3D('',#2009,#1649,#1650);
#1333=AXIS2_PLACEMENT_3D('',#2013,#1653,#1654);
#1334=AXIS2_PLACEMENT_3D('',#2016,#1656,#1657);
#1335=AXIS2_PLACEMENT_3D('',#2017,#1658,#1659);
#1336=AXIS2_PLACEMENT_3D('',#2019,#1661,#1662);
#1337=AXIS2_PLACEMENT_3D('',#2021,#1664,#1665);
#1338=AXIS2_PLACEMENT_3D('',#2022,#1666,#1667);
#1339=AXIS2_PLACEMENT_3D('',#2024,#1669,#1670);
#1340=AXIS2_PLACEMENT_3D('',#2026,#1672,#1673);
#1341=AXIS2_PLACEMENT_3D('',#2028,#1675,#1676);
#1342=AXIS2_PLACEMENT_3D('',#2030,#1678,#1679);
#1343=AXIS2_PLACEMENT_3D('',#2032,#1681,#1682);
#1344=AXIS2_PLACEMENT_3D('',#2034,#1684,#1685);
#1345=AXIS2_PLACEMENT_3D('',#2035,#1686,#1687);
#1346=DIRECTION('axis',(0.,0.,1.));
#1347=DIRECTION('refdir',(1.,0.,0.));
#1348=DIRECTION('center_axis',(-0.901252424525186,0.,0.433294434867878));
#1349=DIRECTION('ref_axis',(0.433294434867878,0.,0.901252424525186));
#1350=DIRECTION('',(0.433294434867878,0.,0.901252424525186));
#1351=DIRECTION('',(0.,-1.,0.));
#1352=DIRECTION('',(0.433294434867878,0.,0.901252424525186));
#1353=DIRECTION('',(0.,1.,0.));
#1354=DIRECTION('center_axis',(0.,0.,-1.));
#1355=DIRECTION('ref_axis',(-1.,0.,0.));
#1356=DIRECTION('',(-1.,0.,0.));
#1357=DIRECTION('',(-1.,0.,0.));
#1358=DIRECTION('',(0.,1.,0.));
#1359=DIRECTION('center_axis',(0.901252424525186,0.,0.433294434867878));
#1360=DIRECTION('ref_axis',(0.433294434867878,0.,-0.901252424525186));
#1361=DIRECTION('',(0.433294434867878,0.,-0.901252424525186));
#1362=DIRECTION('',(0.433294434867878,0.,-0.901252424525186));
#1363=DIRECTION('',(0.,1.,0.));
#1364=DIRECTION('center_axis',(0.,-1.,0.));
#1365=DIRECTION('ref_axis',(1.,0.,0.));
#1366=DIRECTION('',(1.,0.,-8.5401771125012E-17));
#1367=DIRECTION('center_axis',(0.,1.,0.));
#1368=DIRECTION('ref_axis',(0.,0.,1.));
#1369=DIRECTION('',(-1.,0.,8.5401771125012E-17));
#1370=DIRECTION('center_axis',(8.5401771125012E-17,0.,1.));
#1371=DIRECTION('ref_axis',(-1.,0.,8.5401771125012E-17));
#1372=DIRECTION('',(-1.,0.,8.5401771125012E-17));
#1373=DIRECTION('',(0.,-1.,0.));
#1374=DIRECTION('',(-1.,0.,0.));
#1375=DIRECTION('',(0.,-1.,0.));
#1376=DIRECTION('',(1.,0.,0.));
#1377=DIRECTION('',(0.,-1.,0.));
#1378=DIRECTION('',(-1.,0.,0.));
#1379=DIRECTION('',(0.,-1.,0.));
#1380=DIRECTION('',(-1.,0.,8.5401771125012E-17));
#1381=DIRECTION('center_axis',(6.03881714878374E-17,0.707106781186549,0.707106781186546));
#1382=DIRECTION('ref_axis',(1.,0.,-8.54017711250121E-17));
#1383=DIRECTION('',(0.,0.707106781186546,-0.707106781186549));
#1384=DIRECTION('',(-1.,0.,8.54017711250121E-17));
#1385=DIRECTION('',(0.,-0.707106781186546,0.707106781186549));
#1386=DIRECTION('',(1.,0.,-8.54017711250121E-17));
#1387=DIRECTION('center_axis',(0.,1.,0.));
#1388=DIRECTION('ref_axis',(1.,0.,4.44089209850063E-16));
#1389=DIRECTION('',(0.707106781186548,0.707106781186548,3.92523114670945E-16));
#1390=DIRECTION('center_axis',(0.,1.,0.));
#1391=DIRECTION('ref_axis',(1.,0.,4.44089209850063E-16));
#1392=DIRECTION('center_axis',(0.,-1.,0.));
#1393=DIRECTION('ref_axis',(1.,0.,4.44089209850063E-16));
#1394=DIRECTION('center_axis',(-0.707106781186548,0.707106781186548,0.));
#1395=DIRECTION('ref_axis',(0.,0.,1.));
#1396=DIRECTION('',(0.707106781186548,0.707106781186548,0.));
#1397=DIRECTION('',(0.,0.,-1.));
#1398=DIRECTION('',(0.,0.,1.));
#1399=DIRECTION('center_axis',(0.,1.,0.));
#1400=DIRECTION('ref_axis',(0.,0.,1.));
#1401=DIRECTION('',(0.,0.707106781186547,0.707106781186548));
#1402=DIRECTION('center_axis',(0.,1.,0.));
#1403=DIRECTION('ref_axis',(0.,0.,1.));
#1404=DIRECTION('center_axis',(0.,-1.,0.));
#1405=DIRECTION('ref_axis',(0.,0.,1.));
#1406=DIRECTION('center_axis',(-6.03881714878374E-17,0.707106781186549,
-0.707106781186546));
#1407=DIRECTION('ref_axis',(-1.,0.,8.5401771125012E-17));
#1408=DIRECTION('',(1.57009245868378E-15,0.707106781186546,0.707106781186549));
#1409=DIRECTION('',(1.,0.,-8.5401771125012E-17));
#1410=DIRECTION('center_axis',(0.,1.,0.));
#1411=DIRECTION('ref_axis',(-1.,0.,4.44089209850062E-16));
#1412=DIRECTION('',(-0.707106781186549,0.707106781186546,0.));
#1413=DIRECTION('center_axis',(0.,1.,0.));
#1414=DIRECTION('ref_axis',(-1.,0.,4.44089209850062E-16));
#1415=DIRECTION('center_axis',(0.,-1.,0.));
#1416=DIRECTION('ref_axis',(-1.,0.,4.44089209850062E-16));
#1417=DIRECTION('center_axis',(0.707106781186547,0.707106781186548,0.));
#1418=DIRECTION('ref_axis',(0.,0.,-1.));
#1419=DIRECTION('',(-0.707106781186548,0.707106781186547,0.));
#1420=DIRECTION('',(0.,0.,1.));
#1421=DIRECTION('',(0.,0.,-1.));
#1422=DIRECTION('center_axis',(0.,1.,0.));
#1423=DIRECTION('ref_axis',(1.77635683940025E-15,0.,-1.));
#1424=DIRECTION('center_axis',(0.,1.,0.));
#1425=DIRECTION('ref_axis',(1.77635683940025E-15,0.,-1.));
#1426=DIRECTION('center_axis',(0.,-1.,0.));
#1427=DIRECTION('ref_axis',(1.77635683940025E-15,0.,-1.));
#1428=DIRECTION('center_axis',(0.,-1.,0.));
#1429=DIRECTION('ref_axis',(0.,0.,1.));
#1430=DIRECTION('',(0.,-1.,0.));
#1431=DIRECTION('center_axis',(0.,1.,0.));
#1432=DIRECTION('ref_axis',(0.,0.,1.));
#1433=DIRECTION('center_axis',(1.,0.,0.));
#1434=DIRECTION('ref_axis',(0.,0.,1.));
#1435=DIRECTION('',(0.,-1.,0.));
#1436=DIRECTION('',(0.,0.,-1.));
#1437=DIRECTION('center_axis',(0.,-1.,0.));
#1438=DIRECTION('ref_axis',(1.,0.,4.44089209850063E-16));
#1439=DIRECTION('',(0.,-1.,0.));
#1440=DIRECTION('center_axis',(0.,1.,0.));
#1441=DIRECTION('ref_axis',(1.,0.,4.44089209850063E-16));
#1442=DIRECTION('center_axis',(-8.54017711250121E-17,0.,-1.));
#1443=DIRECTION('ref_axis',(1.,0.,-8.54017711250121E-17));
#1444=DIRECTION('',(0.,-1.,0.));
#1445=DIRECTION('',(-1.,0.,8.54017711250121E-17));
#1446=DIRECTION('center_axis',(0.,1.,0.));
#1447=DIRECTION('ref_axis',(-1.,0.,0.));
#1448=DIRECTION('',(-1.,0.,0.));
#1449=DIRECTION('',(0.,0.,1.));
#1450=DIRECTION('',(1.,0.,0.));
#1451=DIRECTION('',(0.,0.,-1.));
#1452=DIRECTION('center_axis',(0.,0.,-1.));
#1453=DIRECTION('ref_axis',(-1.,0.,0.));
#1454=DIRECTION('center_axis',(0.,0.,-1.));
#1455=DIRECTION('ref_axis',(-1.,0.,0.));
#1456=DIRECTION('',(-0.707106781186548,8.65956056235493E-17,0.707106781186548));
#1457=DIRECTION('center_axis',(0.,0.,1.));
#1458=DIRECTION('ref_axis',(-1.,0.,0.));
#1459=DIRECTION('center_axis',(0.,0.,-1.));
#1460=DIRECTION('ref_axis',(-1.,0.,0.));
#1461=DIRECTION('',(0.,0.,1.));
#1462=DIRECTION('center_axis',(0.,0.,-1.));
#1463=DIRECTION('ref_axis',(-1.,0.,0.));
#1464=DIRECTION('center_axis',(0.,0.,1.));
#1465=DIRECTION('ref_axis',(-1.,0.,0.));
#1466=DIRECTION('',(1.,-2.45352751371746E-17,0.));
#1467=DIRECTION('',(0.707106781186548,-0.707106781186547,0.));
#1468=DIRECTION('',(-9.43664428352869E-18,-1.,0.));
#1469=DIRECTION('',(-0.707106781186548,-0.707106781186547,0.));
#1470=DIRECTION('',(-1.,0.,0.));
#1471=DIRECTION('',(-0.707106781186548,0.707106781186548,0.));
#1472=DIRECTION('',(0.,1.,0.));
#1473=DIRECTION('',(0.707106781186547,0.707106781186548,0.));
#1474=DIRECTION('center_axis',(-5.66820382196309E-17,-0.707106781186548,
0.707106781186547));
#1475=DIRECTION('ref_axis',(1.,0.,8.01605071931521E-17));
#1476=DIRECTION('',(0.,0.707106781186547,0.707106781186548));
#1477=DIRECTION('',(-1.,8.01605071931521E-17,0.));
#1478=DIRECTION('',(0.,-0.707106781186547,-0.707106781186548));
#1479=DIRECTION('',(1.,-8.01605071931521E-17,0.));
#1480=DIRECTION('center_axis',(0.,0.,-1.));
#1481=DIRECTION('ref_axis',(0.707106781186547,-0.707106781186548,0.));
#1482=DIRECTION('center_axis',(0.,0.,1.));
#1483=DIRECTION('ref_axis',(0.707106781186547,-0.707106781186548,0.));
#1484=DIRECTION('',(-0.707106781186546,0.,0.707106781186549));
#1485=DIRECTION('center_axis',(0.,0.,-1.));
#1486=DIRECTION('ref_axis',(0.707106781186547,-0.707106781186548,0.));
#1487=DIRECTION('center_axis',(0.707106781186548,0.,0.707106781186548));
#1488=DIRECTION('ref_axis',(0.707106781186548,0.,-0.707106781186548));
#1489=DIRECTION('',(-0.707106781186547,0.,0.707106781186547));
#1490=DIRECTION('',(0.,-1.,0.));
#1491=DIRECTION('',(0.,1.,0.));
#1492=DIRECTION('center_axis',(0.,0.,-1.));
#1493=DIRECTION('ref_axis',(0.707106781186547,0.707106781186548,0.));
#1494=DIRECTION('center_axis',(0.,0.,1.));
#1495=DIRECTION('ref_axis',(0.707106781186547,0.707106781186548,0.));
#1496=DIRECTION('',(0.,-0.707106781186546,0.707106781186549));
#1497=DIRECTION('center_axis',(0.,0.,-1.));
#1498=DIRECTION('ref_axis',(0.707106781186547,0.707106781186548,0.));
#1499=DIRECTION('center_axis',(0.,0.707106781186548,0.707106781186548));
#1500=DIRECTION('ref_axis',(1.,0.,0.));
#1501=DIRECTION('',(0.,-0.707106781186547,0.707106781186547));
#1502=DIRECTION('',(1.,0.,0.));
#1503=DIRECTION('center_axis',(0.,0.,-1.));
#1504=DIRECTION('ref_axis',(-0.707106781186547,0.707106781186548,0.));
#1505=DIRECTION('center_axis',(0.,0.,1.));
#1506=DIRECTION('ref_axis',(-0.707106781186547,0.707106781186548,0.));
#1507=DIRECTION('',(0.707106781186547,0.,0.707106781186548));
#1508=DIRECTION('center_axis',(0.,0.,-1.));
#1509=DIRECTION('ref_axis',(-0.707106781186547,0.707106781186548,0.));
#1510=DIRECTION('center_axis',(-0.707106781186548,0.,0.707106781186547));
#1511=DIRECTION('ref_axis',(0.707106781186547,0.,0.707106781186548));
#1512=DIRECTION('',(0.707106781186547,0.,0.707106781186548));
#1513=DIRECTION('',(0.,1.,0.));
#1514=DIRECTION('',(0.,-1.,0.));
#1515=DIRECTION('center_axis',(0.,0.,-1.));
#1516=DIRECTION('ref_axis',(-0.707106781186548,-0.707106781186548,0.));
#1517=DIRECTION('center_axis',(0.,0.,1.));
#1518=DIRECTION('ref_axis',(-0.707106781186548,-0.707106781186548,0.));
#1519=DIRECTION('center_axis',(0.,0.,-1.));
#1520=DIRECTION('ref_axis',(-0.707106781186548,-0.707106781186548,0.));
#1521=DIRECTION('center_axis',(0.,0.,-1.));
#1522=DIRECTION('ref_axis',(0.707106781186547,0.707106781186548,0.));
#1523=DIRECTION('',(0.,0.,-1.));
#1524=DIRECTION('center_axis',(0.,0.,1.));
#1525=DIRECTION('ref_axis',(0.707106781186547,0.707106781186548,0.));
#1526=DIRECTION('center_axis',(1.,0.,0.));
#1527=DIRECTION('ref_axis',(0.,1.,0.));
#1528=DIRECTION('',(0.,0.,1.));
#1529=DIRECTION('',(0.,-1.,0.));
#1530=DIRECTION('center_axis',(0.,0.,-1.));
#1531=DIRECTION('ref_axis',(0.707106781186547,-0.707106781186548,0.));
#1532=DIRECTION('',(0.,0.,-1.));
#1533=DIRECTION('center_axis',(0.,0.,1.));
#1534=DIRECTION('ref_axis',(0.707106781186547,-0.707106781186548,0.));
#1535=DIRECTION('center_axis',(-8.01605071931521E-17,-1.,0.));
#1536=DIRECTION('ref_axis',(1.,-8.01605071931521E-17,0.));
#1537=DIRECTION('',(0.,0.,1.));
#1538=DIRECTION('',(-1.,8.01605071931521E-17,0.));
#1539=DIRECTION('center_axis',(0.,0.,1.));
#1540=DIRECTION('ref_axis',(1.,0.,0.));
#1541=DIRECTION('center_axis',(0.,0.,-1.));
#1542=DIRECTION('ref_axis',(-1.,0.,0.));
#1543=DIRECTION('center_axis',(0.,0.,1.));
#1544=DIRECTION('ref_axis',(-0.707106781186548,-0.707106781186548,0.));
#1545=DIRECTION('',(0.,1.,0.));
#1546=DIRECTION('center_axis',(0.,0.,1.));
#1547=DIRECTION('ref_axis',(-0.707106781186547,0.707106781186548,0.));
#1548=DIRECTION('',(-0.707106781186548,-0.707106781186547,0.));
#1549=DIRECTION('',(-9.43664428352869E-18,-1.,0.));
#1550=DIRECTION('',(0.707106781186548,-0.707106781186547,0.));
#1551=DIRECTION('',(1.,-2.45352751371746E-17,0.));
#1552=DIRECTION('',(0.707106781186547,0.707106781186548,0.));
#1553=DIRECTION('',(0.,1.,0.));
#1554=DIRECTION('',(-0.707106781186548,0.707106781186548,0.));
#1555=DIRECTION('',(-1.,0.,0.));
#1556=DIRECTION('center_axis',(0.,0.,1.));
#1557=DIRECTION('ref_axis',(-0.707106781186548,-0.707106781186548,0.));
#1558=DIRECTION('',(0.,0.,-1.));
#1559=DIRECTION('center_axis',(0.,0.,-1.));
#1560=DIRECTION('ref_axis',(-0.707106781186547,0.707106781186548,0.));
#1561=DIRECTION('',(0.,0.,1.));
#1562=DIRECTION('center_axis',(-0.707106781186551,-0.707106781186544,7.85046229341884E-16));
#1563=DIRECTION('ref_axis',(1.11022302462515E-15,0.,1.));
#1564=DIRECTION('',(0.,-1.11022302462516E-15,-1.));
#1565=DIRECTION('',(0.577350269189623,-0.577350269189629,-0.577350269189625));
#1566=DIRECTION('',(0.,1.11022302462516E-15,1.));
#1567=DIRECTION('',(0.577350269189623,-0.577350269189629,0.577350269189625));
#1568=DIRECTION('center_axis',(-0.707106781186549,0.,-0.707106781186546));
#1569=DIRECTION('ref_axis',(-0.707106781186546,0.,0.707106781186549));
#1570=DIRECTION('',(0.,-1.,0.));
#1571=DIRECTION('',(0.,1.,0.));
#1572=DIRECTION('',(0.577350269189625,0.577350269189625,-0.577350269189627));
#1573=DIRECTION('center_axis',(-0.707106781186548,0.707106781186548,0.));
#1574=DIRECTION('ref_axis',(0.,0.,1.));
#1575=DIRECTION('',(0.,0.,-1.));
#1576=DIRECTION('',(0.,0.,1.));
#1577=DIRECTION('',(0.577350269189625,0.577350269189625,0.577350269189627));
#1578=DIRECTION('center_axis',(-0.707106781186549,0.,0.707106781186546));
#1579=DIRECTION('ref_axis',(0.707106781186546,0.,0.707106781186549));
#1580=DIRECTION('',(0.,1.,0.));
#1581=DIRECTION('',(0.,-1.,0.));
#1582=DIRECTION('center_axis',(0.,0.,-1.));
#1583=DIRECTION('ref_axis',(0.,-1.,0.));
#1584=DIRECTION('',(-1.,0.,0.));
#1585=DIRECTION('',(0.,-1.,0.));
#1586=DIRECTION('',(-1.,0.,0.));
#1587=DIRECTION('center_axis',(0.,1.,-1.11022302462516E-15));
#1588=DIRECTION('ref_axis',(0.,-1.11022302462516E-15,-1.));
#1589=DIRECTION('',(-1.,0.,0.));
#1590=DIRECTION('',(0.,-1.11022302462516E-15,-1.));
#1591=DIRECTION('center_axis',(1.,0.,0.));
#1592=DIRECTION('ref_axis',(0.,0.,-1.));
#1593=DIRECTION('center_axis',(0.,-1.,0.));
#1594=DIRECTION('ref_axis',(0.,0.,1.));
#1595=DIRECTION('',(0.,0.,1.));
#1596=DIRECTION('',(-1.,0.,0.));
#1597=DIRECTION('center_axis',(0.,0.,1.));
#1598=DIRECTION('ref_axis',(0.,1.,0.));
#1599=DIRECTION('',(0.,1.,0.));
#1600=DIRECTION('center_axis',(0.707106781186547,0.,0.707106781186548));
#1601=DIRECTION('ref_axis',(0.707106781186548,0.,-0.707106781186547));
#1602=DIRECTION('',(0.,1.,0.));
#1603=DIRECTION('',(-0.577350269189627,0.577350269189624,0.577350269189626));
#1604=DIRECTION('',(0.,-1.,0.));
#1605=DIRECTION('',(-0.577350269189627,-0.577350269189624,0.577350269189626));
#1606=DIRECTION('center_axis',(0.707106781186546,0.707106781186549,0.));
#1607=DIRECTION('ref_axis',(0.,0.,-1.));
#1608=DIRECTION('',(0.,0.,-1.));
#1609=DIRECTION('',(-0.577350269189627,0.577350269189624,-0.577350269189626));
#1610=DIRECTION('',(0.,0.,1.));
#1611=DIRECTION('center_axis',(0.707106781186547,0.,-0.707106781186548));
#1612=DIRECTION('ref_axis',(-0.707106781186548,0.,-0.707106781186547));
#1613=DIRECTION('',(0.,-1.,0.));
#1614=DIRECTION('',(-0.577350269189626,-0.577350269189626,-0.577350269189626));
#1615=DIRECTION('',(0.,1.,0.));
#1616=DIRECTION('center_axis',(0.707106781186548,-0.707106781186547,7.85046229341887E-16));
#1617=DIRECTION('ref_axis',(1.11022302462516E-15,0.,-1.));
#1618=DIRECTION('',(0.,-1.11022302462516E-15,-1.));
#1619=DIRECTION('',(0.,1.11022302462516E-15,1.));
#1620=DIRECTION('center_axis',(0.,-1.,1.11022302462516E-15));
#1621=DIRECTION('ref_axis',(0.,-1.11022302462516E-15,-1.));
#1622=DIRECTION('',(1.,0.,0.));
#1623=DIRECTION('',(1.04767797587709E-32,1.11022302462516E-15,1.));
#1624=DIRECTION('',(1.,0.,0.));
#1625=DIRECTION('center_axis',(0.,0.,1.));
#1626=DIRECTION('ref_axis',(0.,-1.,0.));
#1627=DIRECTION('',(1.,0.,0.));
#1628=DIRECTION('',(9.43664428352869E-18,1.,0.));
#1629=DIRECTION('center_axis',(1.,0.,0.));
#1630=DIRECTION('ref_axis',(0.,0.,-1.));
#1631=DIRECTION('center_axis',(0.,1.,0.));
#1632=DIRECTION('ref_axis',(0.,0.,1.));
#1633=DIRECTION('',(1.,0.,0.));
#1634=DIRECTION('',(0.,0.,-1.));
#1635=DIRECTION('center_axis',(0.,0.,-1.));
#1636=DIRECTION('ref_axis',(0.,1.,0.));
#1637=DIRECTION('',(-9.43664428352869E-18,-1.,0.));
#1638=DIRECTION('center_axis',(0.,-0.894427190999916,0.447213595499958));
#1639=DIRECTION('ref_axis',(0.,-0.447213595499958,-0.894427190999916));
#1640=DIRECTION('',(0.,-0.447213595499958,-0.894427190999916));
#1641=DIRECTION('',(0.,0.447213595499958,0.894427190999916));
#1642=DIRECTION('',(1.,0.,0.));
#1643=DIRECTION('center_axis',(-1.,0.,0.));
#1644=DIRECTION('ref_axis',(0.,0.,-1.));
#1645=DIRECTION('',(0.,0.,1.));
#1646=DIRECTION('center_axis',(1.,0.,0.));
#1647=DIRECTION('ref_axis',(0.,0.,1.));
#1648=DIRECTION('',(0.,0.,-1.));
#1649=DIRECTION('center_axis',(0.,-1.,0.));
#1650=DIRECTION('ref_axis',(1.,0.,0.));
#1651=DIRECTION('',(0.,0.,1.));
#1652=DIRECTION('',(0.,0.,-1.));
#1653=DIRECTION('center_axis',(0.,1.,0.));
#1654=DIRECTION('ref_axis',(1.77635683940025E-15,0.,-1.));
#1655=DIRECTION('',(0.,0.,1.));
#1656=DIRECTION('center_axis',(0.,1.,0.));
#1657=DIRECTION('ref_axis',(-1.,0.,4.44089209850062E-16));
#1658=DIRECTION('center_axis',(0.,-1.,0.));
#1659=DIRECTION('ref_axis',(1.77635683940025E-15,0.,-1.));
#1660=DIRECTION('',(0.,-1.,0.));
#1661=DIRECTION('center_axis',(-1.,0.,0.));
#1662=DIRECTION('ref_axis',(0.,0.,-1.));
#1663=DIRECTION('',(0.,-1.,0.));
#1664=DIRECTION('center_axis',(0.,-1.,0.));
#1665=DIRECTION('ref_axis',(-1.,0.,4.44089209850062E-16));
#1666=DIRECTION('center_axis',(0.707106781186547,-0.707106781186548,0.));
#1667=DIRECTION('ref_axis',(0.707106781186548,0.707106781186547,0.));
#1668=DIRECTION('',(0.,0.,-1.));
#1669=DIRECTION('center_axis',(1.,-9.43664428352869E-18,0.));
#1670=DIRECTION('ref_axis',(9.43664428352869E-18,1.,0.));
#1671=DIRECTION('',(0.,0.,-1.));
#1672=DIRECTION('center_axis',(0.707106781186547,0.707106781186548,0.));
#1673=DIRECTION('ref_axis',(-0.707106781186548,0.707106781186547,0.));
#1674=DIRECTION('',(0.,0.,-1.));
#1675=DIRECTION('center_axis',(2.45352751371746E-17,1.,0.));
#1676=DIRECTION('ref_axis',(-1.,2.45352751371746E-17,0.));
#1677=DIRECTION('',(0.,0.,-1.));
#1678=DIRECTION('center_axis',(-0.707106781186548,0.707106781186547,0.));
#1679=DIRECTION('ref_axis',(-0.707106781186547,-0.707106781186548,0.));
#1680=DIRECTION('',(0.,0.,-1.));
#1681=DIRECTION('center_axis',(-1.,0.,0.));
#1682=DIRECTION('ref_axis',(0.,-1.,0.));
#1683=DIRECTION('',(0.,0.,-1.));
#1684=DIRECTION('center_axis',(-0.707106781186548,-0.707106781186548,0.));
#1685=DIRECTION('ref_axis',(0.707106781186548,-0.707106781186548,0.));
#1686=DIRECTION('center_axis',(-1.,0.,0.));
#1687=DIRECTION('ref_axis',(0.,-1.,0.));
#1688=CARTESIAN_POINT('',(0.,0.,0.));
#1689=CARTESIAN_POINT('Origin',(9.25,25.6,1.08));
#1690=CARTESIAN_POINT('',(9.25,25.6,1.08));
#1691=CARTESIAN_POINT('',(10.75,25.6,4.2));
#1692=CARTESIAN_POINT('',(9.25,25.6,1.08));
#1693=CARTESIAN_POINT('',(10.75,26.1,4.2));
#1694=CARTESIAN_POINT('',(10.75,26.1,4.2));
#1695=CARTESIAN_POINT('',(9.25,26.1,1.08));
#1696=CARTESIAN_POINT('',(9.25,26.1,1.08));
#1697=CARTESIAN_POINT('',(9.25,25.6,1.08));
#1698=CARTESIAN_POINT('Origin',(16.25,25.6,1.08));
#1699=CARTESIAN_POINT('',(16.25,25.6,1.08));
#1700=CARTESIAN_POINT('',(16.25,25.6,1.08));
#1701=CARTESIAN_POINT('',(16.25,26.1,1.08));
#1702=CARTESIAN_POINT('',(16.25,26.1,1.08));
#1703=CARTESIAN_POINT('',(16.25,25.6,1.08));
#1704=CARTESIAN_POINT('Origin',(14.75,25.6,4.2));
#1705=CARTESIAN_POINT('',(14.75,25.6,4.2));
#1706=CARTESIAN_POINT('',(14.75,25.6,4.2));
#1707=CARTESIAN_POINT('',(14.75,26.1,4.2));
#1708=CARTESIAN_POINT('',(14.75,26.1,4.2));
#1709=CARTESIAN_POINT('',(14.75,26.1,4.2));
#1710=CARTESIAN_POINT('Origin',(12.75,25.6,2.64));
#1711=CARTESIAN_POINT('',(14.375,25.6,4.2));
#1712=CARTESIAN_POINT('Origin',(12.75,26.1,2.64));
#1713=CARTESIAN_POINT('',(21.3,26.1,4.2));
#1714=CARTESIAN_POINT('Origin',(16.,26.6,4.2));
#1715=CARTESIAN_POINT('',(16.,26.1,4.2));
#1716=CARTESIAN_POINT('',(21.3,26.1,4.2));
#1717=CARTESIAN_POINT('',(16.,25.6,4.2));
#1718=CARTESIAN_POINT('',(16.,26.6,4.2));
#1719=CARTESIAN_POINT('',(17.25,25.6,4.2));
#1720=CARTESIAN_POINT('',(5.90428932188134,25.6,4.2));
#1721=CARTESIAN_POINT('',(17.25,24.6,4.2));
#1722=CARTESIAN_POINT('',(17.25,25.6,4.2));
#1723=CARTESIAN_POINT('',(8.25,24.6,4.2));
#1724=CARTESIAN_POINT('',(17.25,24.6,4.2));
#1725=CARTESIAN_POINT('',(8.25,25.6,4.2));
#1726=CARTESIAN_POINT('',(8.25,25.6,4.2));
#1727=CARTESIAN_POINT('',(9.5,25.6,4.2));
#1728=CARTESIAN_POINT('',(5.90428932188134,25.6,4.2));
#1729=CARTESIAN_POINT('',(9.5,26.1,4.2));
#1730=CARTESIAN_POINT('',(9.5,26.6,4.2));
#1731=CARTESIAN_POINT('',(21.3,26.1,4.2));
#1732=CARTESIAN_POINT('Origin',(18.05,26.35,0.75));
#1733=CARTESIAN_POINT('',(16.,26.1,1.));
#1734=CARTESIAN_POINT('',(16.,26.6,0.5));
#1735=CARTESIAN_POINT('',(16.,26.1,1.));
#1736=CARTESIAN_POINT('',(9.5,26.6,0.5));
#1737=CARTESIAN_POINT('',(18.05,26.6,0.499999999999999));
#1738=CARTESIAN_POINT('',(9.5,26.1,1.));
#1739=CARTESIAN_POINT('',(9.5,26.6,0.5));
#1740=CARTESIAN_POINT('',(18.05,26.1,1.));
#1741=CARTESIAN_POINT('Origin',(16.,26.35,2.25));
#1742=CARTESIAN_POINT('',(17.25,26.1,2.25));
#1743=CARTESIAN_POINT('',(17.75,26.6,2.25));
#1744=CARTESIAN_POINT('',(17.25,26.1,2.25));
#1745=CARTESIAN_POINT('Origin',(16.,26.6,2.25));
#1746=CARTESIAN_POINT('Origin',(16.,26.1,2.25));
#1747=CARTESIAN_POINT('Origin',(17.5,26.35,1.125));
#1748=CARTESIAN_POINT('',(17.25,26.1,2.95));
#1749=CARTESIAN_POINT('',(17.75,26.6,2.95));
#1750=CARTESIAN_POINT('',(17.25,26.1,2.95));
#1751=CARTESIAN_POINT('',(17.75,26.6,1.125));
#1752=CARTESIAN_POINT('',(17.25,26.1,1.125));
#1753=CARTESIAN_POINT('Origin',(16.,26.35,2.95));
#1754=CARTESIAN_POINT('',(16.,26.6,4.7));
#1755=CARTESIAN_POINT('',(16.,26.1,4.2));
#1756=CARTESIAN_POINT('Origin',(16.,26.6,2.95));
#1757=CARTESIAN_POINT('Origin',(16.,26.1,2.95));
#1758=CARTESIAN_POINT('Origin',(21.3,26.35,4.45));
#1759=CARTESIAN_POINT('',(9.5,26.6,4.7));
#1760=CARTESIAN_POINT('',(9.5,26.1,4.2));
#1761=CARTESIAN_POINT('',(21.3,26.6,4.7));
#1762=CARTESIAN_POINT('Origin',(9.5,26.35,2.95));
#1763=CARTESIAN_POINT('',(8.25,26.1,2.95));
#1764=CARTESIAN_POINT('',(7.75,26.6,2.95));
#1765=CARTESIAN_POINT('',(8.25,26.1,2.95));
#1766=CARTESIAN_POINT('Origin',(9.5,26.6,2.95));
#1767=CARTESIAN_POINT('Origin',(9.5,26.1,2.95));
#1768=CARTESIAN_POINT('Origin',(8.,26.35,1.475));
#1769=CARTESIAN_POINT('',(8.25,26.1,2.25));
#1770=CARTESIAN_POINT('',(7.75,26.6,2.25));
#1771=CARTESIAN_POINT('',(8.25,26.1,2.25));
#1772=CARTESIAN_POINT('',(7.75,26.6,1.475));
#1773=CARTESIAN_POINT('',(8.25,26.1,1.475));
#1774=CARTESIAN_POINT('Origin',(9.5,26.35,2.25));
#1775=CARTESIAN_POINT('Origin',(9.5,26.6,2.25));
#1776=CARTESIAN_POINT('Origin',(9.5,26.1,2.25));
#1777=CARTESIAN_POINT('Origin',(16.,26.6,2.95));
#1778=CARTESIAN_POINT('',(17.25,25.6,2.95));
#1779=CARTESIAN_POINT('',(17.25,26.6,2.95));
#1780=CARTESIAN_POINT('Origin',(16.,25.6,2.95));
#1781=CARTESIAN_POINT('Origin',(17.25,26.6,2.25));
#1782=CARTESIAN_POINT('',(17.25,25.6,2.25));
#1783=CARTESIAN_POINT('',(17.25,26.6,2.25));
#1784=CARTESIAN_POINT('',(17.25,25.6,1.125));
#1785=CARTESIAN_POINT('Origin',(16.,26.6,2.25));
#1786=CARTESIAN_POINT('',(16.,25.6,1.));
#1787=CARTESIAN_POINT('',(16.,26.6,1.));
#1788=CARTESIAN_POINT('Origin',(16.,25.6,2.25));
#1789=CARTESIAN_POINT('Origin',(9.5,26.6,1.));
#1790=CARTESIAN_POINT('',(9.5,25.6,1.));
#1791=CARTESIAN_POINT('',(9.5,26.6,1.));
#1792=CARTESIAN_POINT('',(6.52928932188135,25.6,1.));
#1793=CARTESIAN_POINT('Origin',(26.6,26.6,0.));
#1794=CARTESIAN_POINT('',(22.6,26.6,13.72));
#1795=CARTESIAN_POINT('',(2.9,26.6,13.72));
#1796=CARTESIAN_POINT('',(19.675,26.6,13.72));
#1797=CARTESIAN_POINT('',(22.6,26.6,-1.));
#1798=CARTESIAN_POINT('',(22.6,26.6,0.));
#1799=CARTESIAN_POINT('',(2.9,26.6,-1.));
#1800=CARTESIAN_POINT('',(-1.1,26.6,-1.));
#1801=CARTESIAN_POINT('',(2.9,26.6,0.));
#1802=CARTESIAN_POINT('Origin',(12.75,12.75,13.27));
#1803=CARTESIAN_POINT('',(22.9,12.75,13.02));
#1804=CARTESIAN_POINT('Origin',(12.75,12.75,13.02));
#1805=CARTESIAN_POINT('',(22.4,12.75,13.52));
#1806=CARTESIAN_POINT('',(22.65,12.75,13.27));
#1807=CARTESIAN_POINT('Origin',(12.75,12.75,13.52));
#1808=CARTESIAN_POINT('Origin',(12.75,12.75,14.72));
#1809=CARTESIAN_POINT('',(22.4,12.75,14.72));
#1810=CARTESIAN_POINT('',(22.4,12.75,14.72));
#1811=CARTESIAN_POINT('Origin',(12.75,12.75,14.72));
#1812=CARTESIAN_POINT('Origin',(12.75,12.75,13.02));
#1813=CARTESIAN_POINT('',(3.55857864376269,-0.0999999999999979,13.02));
#1814=CARTESIAN_POINT('',(21.9414213562373,-0.100000000000002,13.02));
#1815=CARTESIAN_POINT('',(17.3457106781187,-0.1,13.02));
#1816=CARTESIAN_POINT('',(-0.0999999999999979,3.55857864376269,13.02));
#1817=CARTESIAN_POINT('',(2.64393398282202,0.81464466094067,13.02));
#1818=CARTESIAN_POINT('',(-0.0999999999999979,21.9414213562373,13.02));
#1819=CARTESIAN_POINT('',(-0.1,8.15428932188134,13.02));
#1820=CARTESIAN_POINT('',(3.55857864376269,25.6,13.02));
#1821=CARTESIAN_POINT('',(0.814644660940672,22.856066017178,13.02));
#1822=CARTESIAN_POINT('',(21.9414213562373,25.6,13.02));
#1823=CARTESIAN_POINT('',(8.15428932188135,25.6,13.02));
#1824=CARTESIAN_POINT('',(25.6,21.9414213562373,13.02));
#1825=CARTESIAN_POINT('',(22.856066017178,24.6853553390593,13.02));
#1826=CARTESIAN_POINT('',(25.6,3.55857864376269,13.02));
#1827=CARTESIAN_POINT('',(25.6,17.3457106781187,13.02));
#1828=CARTESIAN_POINT('',(24.6853553390593,2.64393398282202,13.02));
#1829=CARTESIAN_POINT('Origin',(5.825,-0.599999999999999,14.22));
#1830=CARTESIAN_POINT('',(22.6,-1.1,13.72));
#1831=CARTESIAN_POINT('',(22.6,-0.1,14.72));
#1832=CARTESIAN_POINT('',(22.6,-1.1,13.72));
#1833=CARTESIAN_POINT('',(2.9,-0.0999999999999987,14.72));
#1834=CARTESIAN_POINT('',(5.825,-0.099999999999999,14.72));
#1835=CARTESIAN_POINT('',(2.9,-1.1,13.72));
#1836=CARTESIAN_POINT('',(2.9,-0.0999999999999987,14.72));
#1837=CARTESIAN_POINT('',(5.825,-1.1,13.72));
#1838=CARTESIAN_POINT('Origin',(22.6,2.9,14.22));
#1839=CARTESIAN_POINT('',(26.6,2.9,13.72));
#1840=CARTESIAN_POINT('Origin',(22.6,2.9,13.72));
#1841=CARTESIAN_POINT('',(25.6,2.9,14.72));
#1842=CARTESIAN_POINT('',(26.6,2.9,13.72));
#1843=CARTESIAN_POINT('Origin',(22.6,2.9,14.72));
#1844=CARTESIAN_POINT('Origin',(26.1,5.825,14.22));
#1845=CARTESIAN_POINT('',(26.6,22.6,13.72));
#1846=CARTESIAN_POINT('',(25.6,22.6,14.72));
#1847=CARTESIAN_POINT('',(26.6,22.6,13.72));
#1848=CARTESIAN_POINT('',(25.6,5.825,14.72));
#1849=CARTESIAN_POINT('',(26.6,5.825,13.72));
#1850=CARTESIAN_POINT('Origin',(22.6,22.6,14.22));
#1851=CARTESIAN_POINT('Origin',(22.6,22.6,13.72));
#1852=CARTESIAN_POINT('',(22.6,25.6,14.72));
#1853=CARTESIAN_POINT('',(22.6,26.6,13.72));
#1854=CARTESIAN_POINT('Origin',(22.6,22.6,14.72));
#1855=CARTESIAN_POINT('Origin',(19.675,26.1,14.22));
#1856=CARTESIAN_POINT('',(2.9,25.6,14.72));
#1857=CARTESIAN_POINT('',(2.9,26.6,13.72));
#1858=CARTESIAN_POINT('',(19.675,25.6,14.72));
#1859=CARTESIAN_POINT('Origin',(2.9,22.6,14.22));
#1860=CARTESIAN_POINT('',(-1.1,22.6,13.72));
#1861=CARTESIAN_POINT('Origin',(2.9,22.6,13.72));
#1862=CARTESIAN_POINT('',(-0.100000000000002,22.6,14.72));
#1863=CARTESIAN_POINT('',(-1.1,22.6,13.72));
#1864=CARTESIAN_POINT('Origin',(2.9,22.6,14.72));
#1865=CARTESIAN_POINT('Origin',(-0.600000000000001,19.675,14.22));
#1866=CARTESIAN_POINT('',(-1.1,2.9,13.72));
#1867=CARTESIAN_POINT('',(-0.100000000000001,2.9,14.72));
#1868=CARTESIAN_POINT('',(-1.1,2.9,13.72));
#1869=CARTESIAN_POINT('',(-0.100000000000001,19.675,14.72));
#1870=CARTESIAN_POINT('',(-1.1,19.675,13.72));
#1871=CARTESIAN_POINT('Origin',(2.9,2.9,14.22));
#1872=CARTESIAN_POINT('Origin',(2.9,2.9,13.72));
#1873=CARTESIAN_POINT('Origin',(2.9,2.9,14.72));
#1874=CARTESIAN_POINT('Origin',(22.6,22.6,0.));
#1875=CARTESIAN_POINT('',(26.6,22.6,-1.));
#1876=CARTESIAN_POINT('',(26.6,22.6,0.));
#1877=CARTESIAN_POINT('Origin',(22.6,22.6,-1.));
#1878=CARTESIAN_POINT('Origin',(26.6,-1.1,0.));
#1879=CARTESIAN_POINT('',(26.6,2.9,-1.));
#1880=CARTESIAN_POINT('',(26.6,2.9,0.));
#1881=CARTESIAN_POINT('',(26.6,26.6,-1.));
#1882=CARTESIAN_POINT('Origin',(22.6,2.9,0.));
#1883=CARTESIAN_POINT('',(22.6,-1.1,-1.));
#1884=CARTESIAN_POINT('',(22.6,-1.1,0.));
#1885=CARTESIAN_POINT('Origin',(22.6,2.9,-1.));
#1886=CARTESIAN_POINT('Origin',(-1.1,-1.1,0.));
#1887=CARTESIAN_POINT('',(2.9,-1.1,-1.));
#1888=CARTESIAN_POINT('',(2.9,-1.1,0.));
#1889=CARTESIAN_POINT('',(26.6,-1.1,-1.));
#1890=CARTESIAN_POINT('Origin',(12.75,12.75,14.72));
#1891=CARTESIAN_POINT('Origin',(12.75,12.75,-1.));
#1892=CARTESIAN_POINT('',(-1.1,2.9,-1.));
#1893=CARTESIAN_POINT('Origin',(2.9,2.9,-1.));
#1894=CARTESIAN_POINT('',(-1.1,22.6,-1.));
#1895=CARTESIAN_POINT('',(-1.1,-1.1,-1.));
#1896=CARTESIAN_POINT('Origin',(2.9,22.6,-1.));
#1897=CARTESIAN_POINT('',(3.55857864376269,25.6,-1.));
#1898=CARTESIAN_POINT('',(-0.1,21.9414213562373,-1.));
#1899=CARTESIAN_POINT('',(-0.0999999999999999,21.9414213562373,-1.));
#1900=CARTESIAN_POINT('',(-0.1,3.55857864376269,-1.));
#1901=CARTESIAN_POINT('',(-0.1,3.55857864376269,-1.));
#1902=CARTESIAN_POINT('',(3.55857864376269,-0.0999999999999979,-1.));
#1903=CARTESIAN_POINT('',(3.55857864376269,-0.0999999999999996,-1.));
#1904=CARTESIAN_POINT('',(21.9414213562373,-0.100000000000002,-1.));
#1905=CARTESIAN_POINT('',(21.9414213562373,-0.1,-1.));
#1906=CARTESIAN_POINT('',(25.6,3.55857864376269,-1.));
#1907=CARTESIAN_POINT('',(25.6,3.55857864376269,-1.));
#1908=CARTESIAN_POINT('',(25.6,21.9414213562373,-1.));
#1909=CARTESIAN_POINT('',(25.6,21.9414213562373,-1.));
#1910=CARTESIAN_POINT('',(21.9414213562373,25.6,-1.));
#1911=CARTESIAN_POINT('',(21.9414213562373,25.6,-1.));
#1912=CARTESIAN_POINT('',(3.55857864376269,25.6,-1.));
#1913=CARTESIAN_POINT('Origin',(2.9,2.9,0.));
#1914=CARTESIAN_POINT('',(-1.1,2.9,0.));
#1915=CARTESIAN_POINT('Origin',(2.9,22.6,0.));
#1916=CARTESIAN_POINT('',(-1.1,22.6,0.));
#1917=CARTESIAN_POINT('Origin',(25.325,5.375,2.25));
#1918=CARTESIAN_POINT('',(25.2,5.50000000000001,2.25));
#1919=CARTESIAN_POINT('',(25.2,5.5,1.75));
#1920=CARTESIAN_POINT('',(25.2,5.50000000000001,2.25));
#1921=CARTESIAN_POINT('',(25.45,5.25,1.5));
#1922=CARTESIAN_POINT('',(25.2,5.5,1.75));
#1923=CARTESIAN_POINT('',(25.45,5.25,2.5));
#1924=CARTESIAN_POINT('',(25.45,5.25,2.25));
#1925=CARTESIAN_POINT('',(25.2,5.50000000000001,2.25));
#1926=CARTESIAN_POINT('Origin',(25.325,9.,1.625));
#1927=CARTESIAN_POINT('',(25.45,20.25,1.5));
#1928=CARTESIAN_POINT('',(25.45,9.,1.5));
#1929=CARTESIAN_POINT('',(25.2,20.,1.75));
#1930=CARTESIAN_POINT('',(25.2,9.,1.75));
#1931=CARTESIAN_POINT('',(25.2,20.,1.75));
#1932=CARTESIAN_POINT('Origin',(25.325,20.125,1.75));
#1933=CARTESIAN_POINT('',(25.45,20.25,2.5));
#1934=CARTESIAN_POINT('',(25.45,20.25,1.75));
#1935=CARTESIAN_POINT('',(25.2,20.,2.25));
#1936=CARTESIAN_POINT('',(25.2,20.,1.75));
#1937=CARTESIAN_POINT('',(25.2,20.,2.25));
#1938=CARTESIAN_POINT('Origin',(25.325,16.5,2.375));
#1939=CARTESIAN_POINT('',(25.45,16.5,2.5));
#1940=CARTESIAN_POINT('',(25.2,16.5,2.25));
#1941=CARTESIAN_POINT('Origin',(25.6,20.25,2.5));
#1942=CARTESIAN_POINT('',(25.6,5.25,2.5));
#1943=CARTESIAN_POINT('',(25.6,5.25,2.5));
#1944=CARTESIAN_POINT('',(25.6,20.25,2.5));
#1945=CARTESIAN_POINT('',(25.6,21.0957106781187,2.5));
#1946=CARTESIAN_POINT('',(25.6,20.25,2.5));
#1947=CARTESIAN_POINT('Origin',(25.6,5.25,2.5));
#1948=CARTESIAN_POINT('',(25.6,5.25,1.5));
#1949=CARTESIAN_POINT('',(25.6,5.25,1.5));
#1950=CARTESIAN_POINT('',(25.6,5.25,1.25000000000001));
#1951=CARTESIAN_POINT('Origin',(25.2,12.75,2.));
#1952=CARTESIAN_POINT('Origin',(25.6,20.25,1.5));
#1953=CARTESIAN_POINT('',(25.6,20.25,1.5));
#1954=CARTESIAN_POINT('',(25.6,20.25,0.75));
#1955=CARTESIAN_POINT('',(25.6,20.25,1.5));
#1956=CARTESIAN_POINT('Origin',(25.6,5.25,1.5));
#1957=CARTESIAN_POINT('',(25.6,13.5957106781187,1.5));
#1958=CARTESIAN_POINT('Origin',(0.175,16.5,2.375));
#1959=CARTESIAN_POINT('',(0.3,5.5,2.25));
#1960=CARTESIAN_POINT('',(0.3,20.,2.25));
#1961=CARTESIAN_POINT('',(0.3,16.5,2.25));
#1962=CARTESIAN_POINT('',(0.05,20.25,2.5));
#1963=CARTESIAN_POINT('',(0.3,20.,2.25));
#1964=CARTESIAN_POINT('',(0.05,5.25,2.5));
#1965=CARTESIAN_POINT('',(0.05,16.5,2.5));
#1966=CARTESIAN_POINT('',(0.3,5.5,2.25));
#1967=CARTESIAN_POINT('Origin',(0.175,20.125,1.75));
#1968=CARTESIAN_POINT('',(0.3,20.,1.75));
#1969=CARTESIAN_POINT('',(0.3,20.,1.75));
#1970=CARTESIAN_POINT('',(0.05,20.25,1.5));
#1971=CARTESIAN_POINT('',(0.3,20.,1.75));
#1972=CARTESIAN_POINT('',(0.05,20.25,1.75));
#1973=CARTESIAN_POINT('Origin',(0.175,9.,1.625));
#1974=CARTESIAN_POINT('',(0.3,5.5,1.75));
#1975=CARTESIAN_POINT('',(0.3,9.,1.75));
#1976=CARTESIAN_POINT('',(0.05,5.25,1.5));
#1977=CARTESIAN_POINT('',(0.3,5.5,1.75));
#1978=CARTESIAN_POINT('',(0.05,9.,1.5));
#1979=CARTESIAN_POINT('Origin',(0.175,5.375,2.25));
#1980=CARTESIAN_POINT('',(0.05,5.25,2.25));
#1981=CARTESIAN_POINT('',(0.3,5.5,2.25));
#1982=CARTESIAN_POINT('Origin',(-0.1,5.25,2.5));
#1983=CARTESIAN_POINT('',(-0.1,5.25,2.5));
#1984=CARTESIAN_POINT('',(-0.1,5.25,2.5));
#1985=CARTESIAN_POINT('',(-0.1,5.25,1.5));
#1986=CARTESIAN_POINT('',(-0.1,5.25,1.25));
#1987=CARTESIAN_POINT('',(-0.1,5.25,1.5));
#1988=CARTESIAN_POINT('Origin',(-0.1,20.25,2.5));
#1989=CARTESIAN_POINT('',(-0.1,20.25,2.5));
#1990=CARTESIAN_POINT('',(-0.1,20.25,2.5));
#1991=CARTESIAN_POINT('',(-0.1,11.9042893218813,2.5));
#1992=CARTESIAN_POINT('Origin',(0.3,12.75,2.));
#1993=CARTESIAN_POINT('Origin',(-0.1,20.25,1.5));
#1994=CARTESIAN_POINT('',(-0.1,20.25,1.5));
#1995=CARTESIAN_POINT('',(-0.1,20.25,1.5));
#1996=CARTESIAN_POINT('',(-0.0999999999999999,20.25,0.75));
#1997=CARTESIAN_POINT('Origin',(-0.1,5.25,1.5));
#1998=CARTESIAN_POINT('',(-0.1,4.40428932188135,1.5));
#1999=CARTESIAN_POINT('Origin',(15.,25.1,5.2));
#2000=CARTESIAN_POINT('',(8.25,25.6,6.2));
#2001=CARTESIAN_POINT('',(8.25,25.35,5.7));
#2002=CARTESIAN_POINT('',(17.25,25.6,6.2));
#2003=CARTESIAN_POINT('',(17.25,24.95,4.9));
#2004=CARTESIAN_POINT('',(10.4042893218813,25.6,6.2));
#2005=CARTESIAN_POINT('Origin',(8.25,25.6,6.2));
#2006=CARTESIAN_POINT('',(8.25,25.6,3.1));
#2007=CARTESIAN_POINT('Origin',(17.25,25.6,4.2));
#2008=CARTESIAN_POINT('',(17.25,25.6,2.1));
#2009=CARTESIAN_POINT('Origin',(3.55857864376269,25.6,0.));
#2010=CARTESIAN_POINT('',(3.55857864376269,25.6,0.));
#2011=CARTESIAN_POINT('',(21.9414213562373,25.6,0.));
#2012=CARTESIAN_POINT('',(8.25,25.6,2.25));
#2013=CARTESIAN_POINT('Origin',(9.5,25.6,2.25));
#2014=CARTESIAN_POINT('',(8.25,25.6,2.95));
#2015=CARTESIAN_POINT('',(8.25,25.6,1.475));
#2016=CARTESIAN_POINT('Origin',(9.5,25.6,2.95));
#2017=CARTESIAN_POINT('Origin',(9.5,26.6,2.25));
#2018=CARTESIAN_POINT('',(8.25,26.6,2.25));
#2019=CARTESIAN_POINT('Origin',(8.25,26.6,2.95));
#2020=CARTESIAN_POINT('',(8.25,26.6,2.95));
#2021=CARTESIAN_POINT('Origin',(9.5,26.6,2.95));
#2022=CARTESIAN_POINT('Origin',(-0.0999999999999999,21.9414213562373,0.));
#2023=CARTESIAN_POINT('',(-0.0999999999999999,21.9414213562373,0.));
#2024=CARTESIAN_POINT('Origin',(-0.1,3.55857864376269,0.));
#2025=CARTESIAN_POINT('',(-0.1,3.55857864376269,0.));
#2026=CARTESIAN_POINT('Origin',(3.55857864376269,-0.0999999999999996,0.));
#2027=CARTESIAN_POINT('',(3.55857864376269,-0.0999999999999996,0.));
#2028=CARTESIAN_POINT('Origin',(21.9414213562373,-0.1,0.));
#2029=CARTESIAN_POINT('',(21.9414213562373,-0.1,0.));
#2030=CARTESIAN_POINT('Origin',(25.6,3.55857864376269,0.));
#2031=CARTESIAN_POINT('',(25.6,3.55857864376269,0.));
#2032=CARTESIAN_POINT('Origin',(25.6,21.9414213562373,0.));
#2033=CARTESIAN_POINT('',(25.6,21.9414213562373,0.));
#2034=CARTESIAN_POINT('Origin',(21.9414213562373,25.6,0.));
#2035=CARTESIAN_POINT('Origin',(-1.1,26.6,0.));
#2036=UNCERTAINTY_MEASURE_WITH_UNIT(LENGTH_MEASURE(0.01),#2040,
'DISTANCE_ACCURACY_VALUE',
'Maximum model space distance between geometric entities at asserted c
onnectivities');
#2037=UNCERTAINTY_MEASURE_WITH_UNIT(LENGTH_MEASURE(0.01),#2040,
'DISTANCE_ACCURACY_VALUE',
'Maximum model space distance between geometric entities at asserted c
onnectivities');
#2038=(
GEOMETRIC_REPRESENTATION_CONTEXT(3)
GLOBAL_UNCERTAINTY_ASSIGNED_CONTEXT((#2036))
GLOBAL_UNIT_ASSIGNED_CONTEXT((#2040,#2041,#2042))
REPRESENTATION_CONTEXT('','3D')
);
#2039=(
GEOMETRIC_REPRESENTATION_CONTEXT(3)
GLOBAL_UNCERTAINTY_ASSIGNED_CONTEXT((#2037))
GLOBAL_UNIT_ASSIGNED_CONTEXT((#2040,#2041,#2042))
REPRESENTATION_CONTEXT('','3D')
);
#2040=(
LENGTH_UNIT()
NAMED_UNIT(*)
SI_UNIT(.MILLI.,.METRE.)
);
#2041=(
NAMED_UNIT(*)
PLANE_ANGLE_UNIT()
SI_UNIT($,.RADIAN.)
);
#2042=(
NAMED_UNIT(*)
SI_UNIT($,.STERADIAN.)
SOLID_ANGLE_UNIT()
);
#2043=SHAPE_DEFINITION_REPRESENTATION(#2044,#2045);
#2044=PRODUCT_DEFINITION_SHAPE('',$,#2047);
#2045=SHAPE_REPRESENTATION('',(#1247),#2038);
#2046=PRODUCT_DEFINITION_CONTEXT('part definition',#2051,'design');
#2047=PRODUCT_DEFINITION('tinytouch-v2-top','tinytouch-v2-top',#2048,#2046);
#2048=PRODUCT_DEFINITION_FORMATION('',$,#2053);
#2049=PRODUCT_RELATED_PRODUCT_CATEGORY('tinytouch-v2-top','tinytouch-v2-top',(#2053));
#2050=APPLICATION_PROTOCOL_DEFINITION('international standard',
'automotive_design',2009,#2051);
#2051=APPLICATION_CONTEXT(
'Core Data for Automotive Mechanical Design Process');
#2052=PRODUCT_CONTEXT('part definition',#2051,'mechanical');
#2053=PRODUCT('tinytouch-v2-top','tinytouch-v2-top',$,(#2052));
#2054=PRESENTATION_STYLE_ASSIGNMENT((#2055));
#2055=SURFACE_STYLE_USAGE(.BOTH.,#2056);
#2056=SURFACE_SIDE_STYLE('',(#2057));
#2057=SURFACE_STYLE_FILL_AREA(#2058);
#2058=FILL_AREA_STYLE('',(#2059));
#2059=FILL_AREA_STYLE_COLOUR('',#2060);
#2060=COLOUR_RGB('',0.627450980392157,0.627450980392157,0.627450980392157);
ENDSEC;
END-ISO-10303-21;
