ISO-10303-21;
HEADER;
FILE_DESCRIPTION((''),'2;1');
FILE_NAME('tinytouch-supermini-v2-bottom.step','1970-01-01T00:00:00Z',(''),(''),'','','');

FILE_SCHEMA (('AUTOMOTIVE_DESIGN { 1 0 10303 214 3 1 1 }'));
ENDSEC;

DATA;
#10=MECHANICAL_DESIGN_GEOMETRIC_PRESENTATION_REPRESENTATION('',(#13),#2043);
#11=SHAPE_REPRESENTATION_RELATIONSHIP('SRR','None',#2049,#12);
#12=ADVANCED_BREP_SHAPE_REPRESENTATION('',(#14),#2042);
#13=STYLED_ITEM('',(#2058),#14);
#14=MANIFOLD_SOLID_BREP('tinytouch-supermini-v2-bottom',#1279);
#15=CYLINDRICAL_SURFACE('',#1326,0.75);
#16=CYLINDRICAL_SURFACE('',#1327,0.75);
#17=CYLINDRICAL_SURFACE('',#1332,9.6);
#18=CYLINDRICAL_SURFACE('',#1334,9.6);
#19=CYLINDRICAL_SURFACE('',#1342,10.55);
#20=CYLINDRICAL_SURFACE('',#1343,10.55);
#21=CIRCLE('',#1286,10.55);
#22=CIRCLE('',#1297,0.75);
#23=CIRCLE('',#1298,0.75);
#24=CIRCLE('',#1302,0.75);
#25=CIRCLE('',#1303,0.75);
#26=CIRCLE('',#1329,9.6);
#27=CIRCLE('',#1331,9.6);
#28=CIRCLE('',#1333,9.6);
#29=CIRCLE('',#1335,9.6);
#30=CIRCLE('',#1339,10.55);
#31=CIRCLE('',#1341,10.55);
#32=CIRCLE('',#1344,10.55);
#33=FACE_BOUND('',#109,.T.);
#34=FACE_BOUND('',#123,.T.);
#35=FACE_BOUND('',#124,.T.);
#36=FACE_BOUND('',#128,.T.);
#37=FACE_BOUND('',#129,.T.);
#38=FACE_BOUND('',#131,.T.);
#39=FACE_BOUND('',#160,.T.);
#40=FACE_BOUND('',#162,.T.);
#41=FACE_OUTER_BOUND('',#107,.T.);
#42=FACE_OUTER_BOUND('',#108,.T.);
#43=FACE_OUTER_BOUND('',#110,.T.);
#44=FACE_OUTER_BOUND('',#111,.T.);
#45=FACE_OUTER_BOUND('',#112,.T.);
#46=FACE_OUTER_BOUND('',#113,.T.);
#47=FACE_OUTER_BOUND('',#114,.T.);
#48=FACE_OUTER_BOUND('',#115,.T.);
#49=FACE_OUTER_BOUND('',#116,.T.);
#50=FACE_OUTER_BOUND('',#117,.T.);
#51=FACE_OUTER_BOUND('',#118,.T.);
#52=FACE_OUTER_BOUND('',#119,.T.);
#53=FACE_OUTER_BOUND('',#120,.T.);
#54=FACE_OUTER_BOUND('',#121,.T.);
#55=FACE_OUTER_BOUND('',#122,.T.);
#56=FACE_OUTER_BOUND('',#125,.T.);
#57=FACE_OUTER_BOUND('',#126,.T.);
#58=FACE_OUTER_BOUND('',#127,.T.);
#59=FACE_OUTER_BOUND('',#130,.T.);
#60=FACE_OUTER_BOUND('',#132,.T.);
#61=FACE_OUTER_BOUND('',#133,.T.);
#62=FACE_OUTER_BOUND('',#134,.T.);
#63=FACE_OUTER_BOUND('',#135,.T.);
#64=FACE_OUTER_BOUND('',#136,.T.);
#65=FACE_OUTER_BOUND('',#137,.T.);
#66=FACE_OUTER_BOUND('',#138,.T.);
#67=FACE_OUTER_BOUND('',#139,.T.);
#68=FACE_OUTER_BOUND('',#140,.T.);
#69=FACE_OUTER_BOUND('',#141,.T.);
#70=FACE_OUTER_BOUND('',#142,.T.);
#71=FACE_OUTER_BOUND('',#143,.T.);
#72=FACE_OUTER_BOUND('',#144,.T.);
#73=FACE_OUTER_BOUND('',#145,.T.);
#74=FACE_OUTER_BOUND('',#146,.T.);
#75=FACE_OUTER_BOUND('',#147,.T.);
#76=FACE_OUTER_BOUND('',#148,.T.);
#77=FACE_OUTER_BOUND('',#149,.T.);
#78=FACE_OUTER_BOUND('',#150,.T.);
#79=FACE_OUTER_BOUND('',#151,.T.);
#80=FACE_OUTER_BOUND('',#152,.T.);
#81=FACE_OUTER_BOUND('',#153,.T.);
#82=FACE_OUTER_BOUND('',#154,.T.);
#83=FACE_OUTER_BOUND('',#155,.T.);
#84=FACE_OUTER_BOUND('',#156,.T.);
#85=FACE_OUTER_BOUND('',#157,.T.);
#86=FACE_OUTER_BOUND('',#158,.T.);
#87=FACE_OUTER_BOUND('',#159,.T.);
#88=FACE_OUTER_BOUND('',#161,.T.);
#89=FACE_OUTER_BOUND('',#163,.T.);
#90=FACE_OUTER_BOUND('',#164,.T.);
#91=FACE_OUTER_BOUND('',#165,.T.);
#92=FACE_OUTER_BOUND('',#166,.T.);
#93=FACE_OUTER_BOUND('',#167,.T.);
#94=FACE_OUTER_BOUND('',#168,.T.);
#95=FACE_OUTER_BOUND('',#169,.T.);
#96=FACE_OUTER_BOUND('',#170,.T.);
#97=FACE_OUTER_BOUND('',#171,.T.);
#98=FACE_OUTER_BOUND('',#172,.T.);
#99=FACE_OUTER_BOUND('',#173,.T.);
#100=FACE_OUTER_BOUND('',#174,.T.);
#101=FACE_OUTER_BOUND('',#175,.T.);
#102=FACE_OUTER_BOUND('',#176,.T.);
#103=FACE_OUTER_BOUND('',#177,.T.);
#104=FACE_OUTER_BOUND('',#178,.T.);
#105=FACE_OUTER_BOUND('',#179,.T.);
#106=FACE_OUTER_BOUND('',#180,.T.);
#107=EDGE_LOOP('',(#801,#802,#803,#804));
#108=EDGE_LOOP('',(#805,#806,#807,#808));
#109=EDGE_LOOP('',(#809,#810,#811,#812));
#110=EDGE_LOOP('',(#813,#814,#815,#816,#817,#818));
#111=EDGE_LOOP('',(#819,#820,#821,#822));
#112=EDGE_LOOP('',(#823,#824,#825,#826,#827,#828));
#113=EDGE_LOOP('',(#829,#830,#831,#832,#833,#834));
#114=EDGE_LOOP('',(#835,#836,#837,#838));
#115=EDGE_LOOP('',(#839,#840,#841,#842));
#116=EDGE_LOOP('',(#843,#844,#845,#846,#847,#848,#849,#850,#851,#852,#853,
#854));
#117=EDGE_LOOP('',(#855,#856,#857,#858));
#118=EDGE_LOOP('',(#859,#860,#861,#862,#863,#864,#865,#866));
#119=EDGE_LOOP('',(#867,#868,#869,#870));
#120=EDGE_LOOP('',(#871,#872,#873,#874));
#121=EDGE_LOOP('',(#875,#876,#877,#878));
#122=EDGE_LOOP('',(#879,#880,#881,#882,#883,#884,#885,#886,#887,#888,#889,
#890));
#123=EDGE_LOOP('',(#891));
#124=EDGE_LOOP('',(#892));
#125=EDGE_LOOP('',(#893,#894,#895,#896,#897,#898));
#126=EDGE_LOOP('',(#899,#900,#901,#902,#903,#904,#905,#906));
#127=EDGE_LOOP('',(#907,#908,#909,#910,#911,#912,#913,#914));
#128=EDGE_LOOP('',(#915));
#129=EDGE_LOOP('',(#916));
#130=EDGE_LOOP('',(#917,#918,#919,#920));
#131=EDGE_LOOP('',(#921,#922,#923,#924));
#132=EDGE_LOOP('',(#925,#926,#927,#928,#929,#930));
#133=EDGE_LOOP('',(#931,#932,#933,#934));
#134=EDGE_LOOP('',(#935,#936,#937,#938));
#135=EDGE_LOOP('',(#939,#940,#941,#942));
#136=EDGE_LOOP('',(#943,#944,#945,#946));
#137=EDGE_LOOP('',(#947,#948,#949,#950));
#138=EDGE_LOOP('',(#951,#952,#953,#954));
#139=EDGE_LOOP('',(#955,#956,#957,#958));
#140=EDGE_LOOP('',(#959,#960,#961,#962));
#141=EDGE_LOOP('',(#963,#964,#965,#966));
#142=EDGE_LOOP('',(#967,#968,#969,#970));
#143=EDGE_LOOP('',(#971,#972,#973,#974));
#144=EDGE_LOOP('',(#975,#976,#977,#978));
#145=EDGE_LOOP('',(#979,#980,#981,#982));
#146=EDGE_LOOP('',(#983,#984,#985,#986));
#147=EDGE_LOOP('',(#987,#988,#989,#990));
#148=EDGE_LOOP('',(#991,#992,#993,#994));
#149=EDGE_LOOP('',(#995,#996,#997,#998));
#150=EDGE_LOOP('',(#999,#1000,#1001,#1002));
#151=EDGE_LOOP('',(#1003,#1004,#1005,#1006));
#152=EDGE_LOOP('',(#1007,#1008,#1009,#1010));
#153=EDGE_LOOP('',(#1011,#1012,#1013,#1014));
#154=EDGE_LOOP('',(#1015,#1016,#1017,#1018));
#155=EDGE_LOOP('',(#1019,#1020));
#156=EDGE_LOOP('',(#1021,#1022));
#157=EDGE_LOOP('',(#1023,#1024,#1025,#1026));
#158=EDGE_LOOP('',(#1027,#1028,#1029,#1030));
#159=EDGE_LOOP('',(#1031,#1032,#1033,#1034,#1035,#1036,#1037,#1038,#1039,
#1040,#1041,#1042,#1043,#1044));
#160=EDGE_LOOP('',(#1045,#1046,#1047,#1048));
#161=EDGE_LOOP('',(#1049,#1050,#1051,#1052,#1053,#1054,#1055,#1056,#1057,
#1058,#1059,#1060,#1061,#1062));
#162=EDGE_LOOP('',(#1063,#1064,#1065,#1066));
#163=EDGE_LOOP('',(#1067,#1068,#1069,#1070));
#164=EDGE_LOOP('',(#1071,#1072,#1073,#1074));
#165=EDGE_LOOP('',(#1075,#1076,#1077,#1078));
#166=EDGE_LOOP('',(#1079,#1080,#1081,#1082));
#167=EDGE_LOOP('',(#1083,#1084,#1085,#1086));
#168=EDGE_LOOP('',(#1087,#1088,#1089,#1090,#1091,#1092));
#169=EDGE_LOOP('',(#1093,#1094,#1095,#1096,#1097,#1098));
#170=EDGE_LOOP('',(#1099,#1100,#1101,#1102));
#171=EDGE_LOOP('',(#1103,#1104,#1105,#1106,#1107,#1108,#1109,#1110));
#172=EDGE_LOOP('',(#1111,#1112,#1113,#1114));
#173=EDGE_LOOP('',(#1115,#1116,#1117,#1118));
#174=EDGE_LOOP('',(#1119,#1120,#1121,#1122));
#175=EDGE_LOOP('',(#1123,#1124,#1125,#1126));
#176=EDGE_LOOP('',(#1127,#1128,#1129,#1130));
#177=EDGE_LOOP('',(#1131,#1132,#1133,#1134));
#178=EDGE_LOOP('',(#1135,#1136,#1137,#1138));
#179=EDGE_LOOP('',(#1139,#1140,#1141,#1142,#1143,#1144,#1145,#1146));
#180=EDGE_LOOP('',(#1147,#1148,#1149,#1150,#1151,#1152));
#181=LINE('',#1685,#345);
#182=LINE('',#1687,#346);
#183=LINE('',#1689,#347);
#184=LINE('',#1690,#348);
#185=LINE('',#1693,#349);
#186=LINE('',#1695,#350);
#187=LINE('',#1696,#351);
#188=LINE('',#1699,#352);
#189=LINE('',#1701,#353);
#190=LINE('',#1703,#354);
#191=LINE('',#1704,#355);
#192=LINE('',#1707,#356);
#193=LINE('',#1709,#357);
#194=LINE('',#1711,#358);
#195=LINE('',#1712,#359);
#196=LINE('',#1716,#360);
#197=LINE('',#1718,#361);
#198=LINE('',#1720,#362);
#199=LINE('',#1721,#363);
#200=LINE('',#1724,#364);
#201=LINE('',#1726,#365);
#202=LINE('',#1730,#366);
#203=LINE('',#1731,#367);
#204=LINE('',#1734,#368);
#205=LINE('',#1736,#369);
#206=LINE('',#1738,#370);
#207=LINE('',#1739,#371);
#208=LINE('',#1743,#372);
#209=LINE('',#1745,#373);
#210=LINE('',#1747,#374);
#211=LINE('',#1748,#375);
#212=LINE('',#1750,#376);
#213=LINE('',#1752,#377);
#214=LINE('',#1753,#378);
#215=LINE('',#1756,#379);
#216=LINE('',#1758,#380);
#217=LINE('',#1760,#381);
#218=LINE('',#1762,#382);
#219=LINE('',#1764,#383);
#220=LINE('',#1766,#384);
#221=LINE('',#1767,#385);
#222=LINE('',#1768,#386);
#223=LINE('',#1771,#387);
#224=LINE('',#1773,#388);
#225=LINE('',#1774,#389);
#226=LINE('',#1777,#390);
#227=LINE('',#1779,#391);
#228=LINE('',#1781,#392);
#229=LINE('',#1783,#393);
#230=LINE('',#1785,#394);
#231=LINE('',#1787,#395);
#232=LINE('',#1788,#396);
#233=LINE('',#1790,#397);
#234=LINE('',#1792,#398);
#235=LINE('',#1796,#399);
#236=LINE('',#1797,#400);
#237=LINE('',#1798,#401);
#238=LINE('',#1801,#402);
#239=LINE('',#1803,#403);
#240=LINE('',#1805,#404);
#241=LINE('',#1807,#405);
#242=LINE('',#1809,#406);
#243=LINE('',#1811,#407);
#244=LINE('',#1813,#408);
#245=LINE('',#1814,#409);
#246=LINE('',#1821,#410);
#247=LINE('',#1823,#411);
#248=LINE('',#1825,#412);
#249=LINE('',#1826,#413);
#250=LINE('',#1829,#414);
#251=LINE('',#1831,#415);
#252=LINE('',#1833,#416);
#253=LINE('',#1835,#417);
#254=LINE('',#1837,#418);
#255=LINE('',#1839,#419);
#256=LINE('',#1840,#420);
#257=LINE('',#1843,#421);
#258=LINE('',#1844,#422);
#259=LINE('',#1850,#423);
#260=LINE('',#1853,#424);
#261=LINE('',#1855,#425);
#262=LINE('',#1857,#426);
#263=LINE('',#1858,#427);
#264=LINE('',#1860,#428);
#265=LINE('',#1864,#429);
#266=LINE('',#1866,#430);
#267=LINE('',#1868,#431);
#268=LINE('',#1869,#432);
#269=LINE('',#1872,#433);
#270=LINE('',#1874,#434);
#271=LINE('',#1875,#435);
#272=LINE('',#1878,#436);
#273=LINE('',#1880,#437);
#274=LINE('',#1881,#438);
#275=LINE('',#1883,#439);
#276=LINE('',#1884,#440);
#277=LINE('',#1888,#441);
#278=LINE('',#1890,#442);
#279=LINE('',#1891,#443);
#280=LINE('',#1894,#444);
#281=LINE('',#1895,#445);
#282=LINE('',#1898,#446);
#283=LINE('',#1899,#447);
#284=LINE('',#1901,#448);
#285=LINE('',#1906,#449);
#286=LINE('',#1908,#450);
#287=LINE('',#1910,#451);
#288=LINE('',#1911,#452);
#289=LINE('',#1914,#453);
#290=LINE('',#1916,#454);
#291=LINE('',#1917,#455);
#292=LINE('',#1920,#456);
#293=LINE('',#1922,#457);
#294=LINE('',#1923,#458);
#295=LINE('',#1925,#459);
#296=LINE('',#1926,#460);
#297=LINE('',#1930,#461);
#298=LINE('',#1932,#462);
#299=LINE('',#1933,#463);
#300=LINE('',#1936,#464);
#301=LINE('',#1937,#465);
#302=LINE('',#1940,#466);
#303=LINE('',#1941,#467);
#304=LINE('',#1943,#468);
#305=LINE('',#1946,#469);
#306=LINE('',#1948,#470);
#307=LINE('',#1952,#471);
#308=LINE('',#1957,#472);
#309=LINE('',#1961,#473);
#310=LINE('',#1964,#474);
#311=LINE('',#1967,#475);
#312=LINE('',#1970,#476);
#313=LINE('',#1973,#477);
#314=LINE('',#1974,#478);
#315=LINE('',#1975,#479);
#316=LINE('',#1976,#480);
#317=LINE('',#1978,#481);
#318=LINE('',#1979,#482);
#319=LINE('',#1982,#483);
#320=LINE('',#1984,#484);
#321=LINE('',#1985,#485);
#322=LINE('',#1987,#486);
#323=LINE('',#1988,#487);
#324=LINE('',#1990,#488);
#325=LINE('',#1992,#489);
#326=LINE('',#1993,#490);
#327=LINE('',#2002,#491);
#328=LINE('',#2005,#492);
#329=LINE('',#2006,#493);
#330=LINE('',#2007,#494);
#331=LINE('',#2012,#495);
#332=LINE('',#2013,#496);
#333=LINE('',#2015,#497);
#334=LINE('',#2019,#498);
#335=LINE('',#2021,#499);
#336=LINE('',#2022,#500);
#337=LINE('',#2025,#501);
#338=LINE('',#2026,#502);
#339=LINE('',#2029,#503);
#340=LINE('',#2030,#504);
#341=LINE('',#2032,#505);
#342=LINE('',#2035,#506);
#343=LINE('',#2036,#507);
#344=LINE('',#2038,#508);
#345=VECTOR('',#1363,10.);
#346=VECTOR('',#1364,10.);
#347=VECTOR('',#1365,10.);
#348=VECTOR('',#1366,10.);
#349=VECTOR('',#1369,10.);
#350=VECTOR('',#1370,10.);
#351=VECTOR('',#1371,10.);
#352=VECTOR('',#1372,10.);
#353=VECTOR('',#1373,10.);
#354=VECTOR('',#1374,10.);
#355=VECTOR('',#1375,10.);
#356=VECTOR('',#1378,10.);
#357=VECTOR('',#1379,10.);
#358=VECTOR('',#1380,10.);
#359=VECTOR('',#1381,10.);
#360=VECTOR('',#1384,10.);
#361=VECTOR('',#1385,10.);
#362=VECTOR('',#1386,10.);
#363=VECTOR('',#1387,10.);
#364=VECTOR('',#1390,10.);
#365=VECTOR('',#1391,10.);
#366=VECTOR('',#1394,10.);
#367=VECTOR('',#1395,10.);
#368=VECTOR('',#1398,10.);
#369=VECTOR('',#1399,10.);
#370=VECTOR('',#1400,10.);
#371=VECTOR('',#1401,10.);
#372=VECTOR('',#1404,10.);
#373=VECTOR('',#1405,10.);
#374=VECTOR('',#1406,10.);
#375=VECTOR('',#1407,10.);
#376=VECTOR('',#1410,10.);
#377=VECTOR('',#1411,10.);
#378=VECTOR('',#1412,10.);
#379=VECTOR('',#1415,10.);
#380=VECTOR('',#1416,10.);
#381=VECTOR('',#1417,10.);
#382=VECTOR('',#1418,10.);
#383=VECTOR('',#1419,10.);
#384=VECTOR('',#1420,10.);
#385=VECTOR('',#1421,10.);
#386=VECTOR('',#1422,10.);
#387=VECTOR('',#1425,10.);
#388=VECTOR('',#1426,10.);
#389=VECTOR('',#1427,10.);
#390=VECTOR('',#1430,10.);
#391=VECTOR('',#1431,10.);
#392=VECTOR('',#1432,10.);
#393=VECTOR('',#1433,10.);
#394=VECTOR('',#1434,10.);
#395=VECTOR('',#1435,10.);
#396=VECTOR('',#1436,10.);
#397=VECTOR('',#1439,10.);
#398=VECTOR('',#1442,10.);
#399=VECTOR('',#1445,10.);
#400=VECTOR('',#1446,10.);
#401=VECTOR('',#1447,10.);
#402=VECTOR('',#1450,10.);
#403=VECTOR('',#1451,10.);
#404=VECTOR('',#1452,10.);
#405=VECTOR('',#1453,10.);
#406=VECTOR('',#1454,10.);
#407=VECTOR('',#1455,10.);
#408=VECTOR('',#1456,10.);
#409=VECTOR('',#1457,10.);
#410=VECTOR('',#1464,10.);
#411=VECTOR('',#1465,10.);
#412=VECTOR('',#1466,10.);
#413=VECTOR('',#1467,10.);
#414=VECTOR('',#1470,10.);
#415=VECTOR('',#1471,10.);
#416=VECTOR('',#1472,10.);
#417=VECTOR('',#1473,10.);
#418=VECTOR('',#1474,10.);
#419=VECTOR('',#1475,10.);
#420=VECTOR('',#1476,10.);
#421=VECTOR('',#1479,10.);
#422=VECTOR('',#1480,10.);
#423=VECTOR('',#1487,10.);
#424=VECTOR('',#1488,10.);
#425=VECTOR('',#1489,10.);
#426=VECTOR('',#1490,10.);
#427=VECTOR('',#1491,10.);
#428=VECTOR('',#1494,10.);
#429=VECTOR('',#1497,10.);
#430=VECTOR('',#1498,10.);
#431=VECTOR('',#1499,10.);
#432=VECTOR('',#1500,10.);
#433=VECTOR('',#1503,10.);
#434=VECTOR('',#1504,10.);
#435=VECTOR('',#1505,10.);
#436=VECTOR('',#1508,10.);
#437=VECTOR('',#1509,10.);
#438=VECTOR('',#1510,10.);
#439=VECTOR('',#1513,10.);
#440=VECTOR('',#1514,10.);
#441=VECTOR('',#1519,10.);
#442=VECTOR('',#1520,10.);
#443=VECTOR('',#1521,10.);
#444=VECTOR('',#1524,10.);
#445=VECTOR('',#1525,10.);
#446=VECTOR('',#1528,10.);
#447=VECTOR('',#1529,10.);
#448=VECTOR('',#1532,10.);
#449=VECTOR('',#1537,10.);
#450=VECTOR('',#1538,10.);
#451=VECTOR('',#1539,10.);
#452=VECTOR('',#1540,10.);
#453=VECTOR('',#1543,10.);
#454=VECTOR('',#1544,10.);
#455=VECTOR('',#1545,10.);
#456=VECTOR('',#1548,10.);
#457=VECTOR('',#1549,10.);
#458=VECTOR('',#1550,10.);
#459=VECTOR('',#1553,10.);
#460=VECTOR('',#1554,10.);
#461=VECTOR('',#1559,10.);
#462=VECTOR('',#1560,10.);
#463=VECTOR('',#1561,10.);
#464=VECTOR('',#1564,10.);
#465=VECTOR('',#1565,10.);
#466=VECTOR('',#1568,10.);
#467=VECTOR('',#1569,10.);
#468=VECTOR('',#1572,10.);
#469=VECTOR('',#1577,0.75);
#470=VECTOR('',#1580,0.75);
#471=VECTOR('',#1583,10.);
#472=VECTOR('',#1588,10.);
#473=VECTOR('',#1593,10.);
#474=VECTOR('',#1596,10.);
#475=VECTOR('',#1599,10.);
#476=VECTOR('',#1602,10.);
#477=VECTOR('',#1605,10.);
#478=VECTOR('',#1606,10.);
#479=VECTOR('',#1607,10.);
#480=VECTOR('',#1608,10.);
#481=VECTOR('',#1609,10.);
#482=VECTOR('',#1610,10.);
#483=VECTOR('',#1613,10.);
#484=VECTOR('',#1614,10.);
#485=VECTOR('',#1615,10.);
#486=VECTOR('',#1616,10.);
#487=VECTOR('',#1617,10.);
#488=VECTOR('',#1618,10.);
#489=VECTOR('',#1619,10.);
#490=VECTOR('',#1620,10.);
#491=VECTOR('',#1637,10.);
#492=VECTOR('',#1640,10.);
#493=VECTOR('',#1641,10.);
#494=VECTOR('',#1642,10.);
#495=VECTOR('',#1649,10.);
#496=VECTOR('',#1650,10.);
#497=VECTOR('',#1653,10.);
#498=VECTOR('',#1658,10.);
#499=VECTOR('',#1659,10.);
#500=VECTOR('',#1660,10.);
#501=VECTOR('',#1663,10.);
#502=VECTOR('',#1664,10.);
#503=VECTOR('',#1667,10.);
#504=VECTOR('',#1668,10.);
#505=VECTOR('',#1671,10.);
#506=VECTOR('',#1674,10.);
#507=VECTOR('',#1675,10.);
#508=VECTOR('',#1678,10.);
#509=VERTEX_POINT('',#1683);
#510=VERTEX_POINT('',#1684);
#511=VERTEX_POINT('',#1686);
#512=VERTEX_POINT('',#1688);
#513=VERTEX_POINT('',#1692);
#514=VERTEX_POINT('',#1694);
#515=VERTEX_POINT('',#1697);
#516=VERTEX_POINT('',#1698);
#517=VERTEX_POINT('',#1700);
#518=VERTEX_POINT('',#1702);
#519=VERTEX_POINT('',#1706);
#520=VERTEX_POINT('',#1708);
#521=VERTEX_POINT('',#1710);
#522=VERTEX_POINT('',#1714);
#523=VERTEX_POINT('',#1715);
#524=VERTEX_POINT('',#1717);
#525=VERTEX_POINT('',#1719);
#526=VERTEX_POINT('',#1723);
#527=VERTEX_POINT('',#1725);
#528=VERTEX_POINT('',#1727);
#529=VERTEX_POINT('',#1729);
#530=VERTEX_POINT('',#1733);
#531=VERTEX_POINT('',#1735);
#532=VERTEX_POINT('',#1737);
#533=VERTEX_POINT('',#1741);
#534=VERTEX_POINT('',#1742);
#535=VERTEX_POINT('',#1744);
#536=VERTEX_POINT('',#1746);
#537=VERTEX_POINT('',#1751);
#538=VERTEX_POINT('',#1755);
#539=VERTEX_POINT('',#1757);
#540=VERTEX_POINT('',#1759);
#541=VERTEX_POINT('',#1761);
#542=VERTEX_POINT('',#1763);
#543=VERTEX_POINT('',#1765);
#544=VERTEX_POINT('',#1770);
#545=VERTEX_POINT('',#1772);
#546=VERTEX_POINT('',#1776);
#547=VERTEX_POINT('',#1778);
#548=VERTEX_POINT('',#1780);
#549=VERTEX_POINT('',#1782);
#550=VERTEX_POINT('',#1784);
#551=VERTEX_POINT('',#1786);
#552=VERTEX_POINT('',#1794);
#553=VERTEX_POINT('',#1795);
#554=VERTEX_POINT('',#1800);
#555=VERTEX_POINT('',#1802);
#556=VERTEX_POINT('',#1804);
#557=VERTEX_POINT('',#1806);
#558=VERTEX_POINT('',#1808);
#559=VERTEX_POINT('',#1810);
#560=VERTEX_POINT('',#1812);
#561=VERTEX_POINT('',#1815);
#562=VERTEX_POINT('',#1817);
#563=VERTEX_POINT('',#1820);
#564=VERTEX_POINT('',#1822);
#565=VERTEX_POINT('',#1824);
#566=VERTEX_POINT('',#1828);
#567=VERTEX_POINT('',#1830);
#568=VERTEX_POINT('',#1832);
#569=VERTEX_POINT('',#1834);
#570=VERTEX_POINT('',#1836);
#571=VERTEX_POINT('',#1838);
#572=VERTEX_POINT('',#1842);
#573=VERTEX_POINT('',#1845);
#574=VERTEX_POINT('',#1847);
#575=VERTEX_POINT('',#1851);
#576=VERTEX_POINT('',#1852);
#577=VERTEX_POINT('',#1854);
#578=VERTEX_POINT('',#1856);
#579=VERTEX_POINT('',#1862);
#580=VERTEX_POINT('',#1863);
#581=VERTEX_POINT('',#1865);
#582=VERTEX_POINT('',#1867);
#583=VERTEX_POINT('',#1871);
#584=VERTEX_POINT('',#1873);
#585=VERTEX_POINT('',#1877);
#586=VERTEX_POINT('',#1879);
#587=VERTEX_POINT('',#1887);
#588=VERTEX_POINT('',#1889);
#589=VERTEX_POINT('',#1893);
#590=VERTEX_POINT('',#1897);
#591=VERTEX_POINT('',#1904);
#592=VERTEX_POINT('',#1905);
#593=VERTEX_POINT('',#1907);
#594=VERTEX_POINT('',#1909);
#595=VERTEX_POINT('',#1913);
#596=VERTEX_POINT('',#1915);
#597=VERTEX_POINT('',#1919);
#598=VERTEX_POINT('',#1921);
#599=VERTEX_POINT('',#1929);
#600=VERTEX_POINT('',#1931);
#601=VERTEX_POINT('',#1935);
#602=VERTEX_POINT('',#1939);
#603=VERTEX_POINT('',#1950);
#604=VERTEX_POINT('',#1951);
#605=VERTEX_POINT('',#1955);
#606=VERTEX_POINT('',#1956);
#607=VERTEX_POINT('',#1960);
#608=VERTEX_POINT('',#1962);
#609=VERTEX_POINT('',#1966);
#610=VERTEX_POINT('',#1968);
#611=VERTEX_POINT('',#1972);
#612=VERTEX_POINT('',#1977);
#613=VERTEX_POINT('',#1981);
#614=VERTEX_POINT('',#1983);
#615=VERTEX_POINT('',#1986);
#616=VERTEX_POINT('',#1989);
#617=VERTEX_POINT('',#1991);
#618=VERTEX_POINT('',#2004);
#619=VERTEX_POINT('',#2011);
#620=VERTEX_POINT('',#2018);
#621=VERTEX_POINT('',#2020);
#622=VERTEX_POINT('',#2024);
#623=VERTEX_POINT('',#2028);
#624=VERTEX_POINT('',#2034);
#625=EDGE_CURVE('',#509,#510,#181,.T.);
#626=EDGE_CURVE('',#510,#511,#182,.T.);
#627=EDGE_CURVE('',#511,#512,#183,.T.);
#628=EDGE_CURVE('',#512,#509,#184,.T.);
#629=EDGE_CURVE('',#513,#512,#185,.T.);
#630=EDGE_CURVE('',#513,#514,#186,.T.);
#631=EDGE_CURVE('',#509,#514,#187,.T.);
#632=EDGE_CURVE('',#515,#516,#188,.T.);
#633=EDGE_CURVE('',#516,#517,#189,.T.);
#634=EDGE_CURVE('',#517,#518,#190,.T.);
#635=EDGE_CURVE('',#518,#515,#191,.T.);
#636=EDGE_CURVE('',#511,#519,#192,.T.);
#637=EDGE_CURVE('',#520,#519,#193,.T.);
#638=EDGE_CURVE('',#520,#521,#194,.T.);
#639=EDGE_CURVE('',#521,#513,#195,.T.);
#640=EDGE_CURVE('',#522,#523,#196,.T.);
#641=EDGE_CURVE('',#523,#524,#197,.T.);
#642=EDGE_CURVE('',#524,#525,#198,.T.);
#643=EDGE_CURVE('',#525,#522,#199,.T.);
#644=EDGE_CURVE('',#526,#523,#200,.T.);
#645=EDGE_CURVE('',#526,#527,#201,.T.);
#646=EDGE_CURVE('',#527,#528,#21,.T.);
#647=EDGE_CURVE('',#528,#529,#202,.T.);
#648=EDGE_CURVE('',#524,#529,#203,.T.);
#649=EDGE_CURVE('',#522,#530,#204,.T.);
#650=EDGE_CURVE('',#530,#531,#205,.T.);
#651=EDGE_CURVE('',#531,#532,#206,.T.);
#652=EDGE_CURVE('',#532,#526,#207,.T.);
#653=EDGE_CURVE('',#533,#534,#208,.T.);
#654=EDGE_CURVE('',#534,#535,#209,.T.);
#655=EDGE_CURVE('',#535,#536,#210,.T.);
#656=EDGE_CURVE('',#536,#533,#211,.T.);
#657=EDGE_CURVE('',#520,#534,#212,.T.);
#658=EDGE_CURVE('',#520,#537,#213,.T.);
#659=EDGE_CURVE('',#537,#535,#214,.T.);
#660=EDGE_CURVE('',#533,#538,#215,.T.);
#661=EDGE_CURVE('',#539,#538,#216,.T.);
#662=EDGE_CURVE('',#540,#539,#217,.T.);
#663=EDGE_CURVE('',#541,#540,#218,.T.);
#664=EDGE_CURVE('',#542,#541,#219,.T.);
#665=EDGE_CURVE('',#543,#542,#220,.T.);
#666=EDGE_CURVE('',#532,#543,#221,.T.);
#667=EDGE_CURVE('',#531,#521,#222,.T.);
#668=EDGE_CURVE('',#542,#544,#223,.T.);
#669=EDGE_CURVE('',#544,#545,#224,.T.);
#670=EDGE_CURVE('',#545,#543,#225,.T.);
#671=EDGE_CURVE('',#546,#544,#226,.T.);
#672=EDGE_CURVE('',#547,#546,#227,.T.);
#673=EDGE_CURVE('',#548,#547,#228,.T.);
#674=EDGE_CURVE('',#549,#548,#229,.T.);
#675=EDGE_CURVE('',#550,#549,#230,.T.);
#676=EDGE_CURVE('',#550,#551,#231,.T.);
#677=EDGE_CURVE('',#551,#545,#232,.T.);
#678=EDGE_CURVE('',#546,#541,#233,.T.);
#679=EDGE_CURVE('',#540,#547,#234,.T.);
#680=EDGE_CURVE('',#552,#553,#235,.T.);
#681=EDGE_CURVE('',#553,#539,#236,.T.);
#682=EDGE_CURVE('',#538,#552,#237,.T.);
#683=EDGE_CURVE('',#553,#554,#238,.T.);
#684=EDGE_CURVE('',#554,#555,#239,.T.);
#685=EDGE_CURVE('',#555,#556,#240,.T.);
#686=EDGE_CURVE('',#556,#557,#241,.T.);
#687=EDGE_CURVE('',#557,#558,#242,.T.);
#688=EDGE_CURVE('',#558,#559,#243,.T.);
#689=EDGE_CURVE('',#559,#560,#244,.T.);
#690=EDGE_CURVE('',#560,#548,#245,.T.);
#691=EDGE_CURVE('',#561,#561,#22,.T.);
#692=EDGE_CURVE('',#562,#562,#23,.T.);
#693=EDGE_CURVE('',#514,#563,#246,.T.);
#694=EDGE_CURVE('',#563,#564,#247,.T.);
#695=EDGE_CURVE('',#564,#565,#248,.T.);
#696=EDGE_CURVE('',#565,#510,#249,.T.);
#697=EDGE_CURVE('',#563,#566,#250,.T.);
#698=EDGE_CURVE('',#567,#566,#251,.T.);
#699=EDGE_CURVE('',#568,#567,#252,.T.);
#700=EDGE_CURVE('',#569,#568,#253,.T.);
#701=EDGE_CURVE('',#570,#569,#254,.T.);
#702=EDGE_CURVE('',#570,#571,#255,.T.);
#703=EDGE_CURVE('',#564,#571,#256,.T.);
#704=EDGE_CURVE('',#572,#530,#257,.T.);
#705=EDGE_CURVE('',#566,#572,#258,.T.);
#706=EDGE_CURVE('',#573,#573,#24,.T.);
#707=EDGE_CURVE('',#574,#574,#25,.T.);
#708=EDGE_CURVE('',#572,#525,#259,.T.);
#709=EDGE_CURVE('',#575,#576,#260,.T.);
#710=EDGE_CURVE('',#576,#577,#261,.T.);
#711=EDGE_CURVE('',#577,#578,#262,.T.);
#712=EDGE_CURVE('',#578,#575,#263,.T.);
#713=EDGE_CURVE('',#567,#529,#264,.T.);
#714=EDGE_CURVE('',#579,#580,#265,.T.);
#715=EDGE_CURVE('',#580,#581,#266,.T.);
#716=EDGE_CURVE('',#582,#581,#267,.T.);
#717=EDGE_CURVE('',#579,#582,#268,.T.);
#718=EDGE_CURVE('',#581,#583,#269,.T.);
#719=EDGE_CURVE('',#580,#584,#270,.T.);
#720=EDGE_CURVE('',#584,#583,#271,.T.);
#721=EDGE_CURVE('',#583,#585,#272,.T.);
#722=EDGE_CURVE('',#584,#586,#273,.T.);
#723=EDGE_CURVE('',#586,#585,#274,.T.);
#724=EDGE_CURVE('',#585,#582,#275,.T.);
#725=EDGE_CURVE('',#586,#579,#276,.T.);
#726=EDGE_CURVE('',#515,#587,#277,.T.);
#727=EDGE_CURVE('',#588,#587,#278,.T.);
#728=EDGE_CURVE('',#516,#588,#279,.T.);
#729=EDGE_CURVE('',#589,#588,#280,.T.);
#730=EDGE_CURVE('',#517,#589,#281,.T.);
#731=EDGE_CURVE('',#590,#589,#282,.T.);
#732=EDGE_CURVE('',#518,#590,#283,.T.);
#733=EDGE_CURVE('',#587,#590,#284,.T.);
#734=EDGE_CURVE('',#591,#592,#285,.T.);
#735=EDGE_CURVE('',#592,#593,#286,.T.);
#736=EDGE_CURVE('',#594,#593,#287,.T.);
#737=EDGE_CURVE('',#591,#594,#288,.T.);
#738=EDGE_CURVE('',#592,#595,#289,.T.);
#739=EDGE_CURVE('',#595,#596,#290,.T.);
#740=EDGE_CURVE('',#593,#596,#291,.T.);
#741=EDGE_CURVE('',#595,#597,#292,.T.);
#742=EDGE_CURVE('',#597,#598,#293,.T.);
#743=EDGE_CURVE('',#596,#598,#294,.T.);
#744=EDGE_CURVE('',#598,#594,#295,.T.);
#745=EDGE_CURVE('',#597,#591,#296,.T.);
#746=EDGE_CURVE('',#575,#599,#297,.T.);
#747=EDGE_CURVE('',#599,#600,#298,.T.);
#748=EDGE_CURVE('',#576,#600,#299,.T.);
#749=EDGE_CURVE('',#578,#601,#300,.T.);
#750=EDGE_CURVE('',#601,#599,#301,.T.);
#751=EDGE_CURVE('',#577,#602,#302,.T.);
#752=EDGE_CURVE('',#602,#601,#303,.T.);
#753=EDGE_CURVE('',#600,#602,#304,.T.);
#754=EDGE_CURVE('',#574,#562,#305,.T.);
#755=EDGE_CURVE('',#573,#561,#306,.T.);
#756=EDGE_CURVE('',#603,#604,#307,.T.);
#757=EDGE_CURVE('',#604,#603,#26,.T.);
#758=EDGE_CURVE('',#605,#606,#308,.T.);
#759=EDGE_CURVE('',#606,#605,#27,.T.);
#760=EDGE_CURVE('',#607,#603,#309,.T.);
#761=EDGE_CURVE('',#608,#607,#28,.T.);
#762=EDGE_CURVE('',#604,#608,#310,.T.);
#763=EDGE_CURVE('',#609,#605,#311,.T.);
#764=EDGE_CURVE('',#610,#609,#29,.T.);
#765=EDGE_CURVE('',#606,#610,#312,.T.);
#766=EDGE_CURVE('',#610,#611,#313,.T.);
#767=EDGE_CURVE('',#611,#527,#314,.T.);
#768=EDGE_CURVE('',#551,#532,#315,.T.);
#769=EDGE_CURVE('',#567,#550,#316,.T.);
#770=EDGE_CURVE('',#528,#612,#317,.T.);
#771=EDGE_CURVE('',#612,#609,#318,.T.);
#772=EDGE_CURVE('',#608,#613,#319,.T.);
#773=EDGE_CURVE('',#613,#614,#320,.T.);
#774=EDGE_CURVE('',#565,#614,#321,.T.);
#775=EDGE_CURVE('',#615,#564,#322,.T.);
#776=EDGE_CURVE('',#615,#537,#323,.T.);
#777=EDGE_CURVE('',#616,#519,#324,.T.);
#778=EDGE_CURVE('',#616,#617,#325,.T.);
#779=EDGE_CURVE('',#617,#607,#326,.T.);
#780=EDGE_CURVE('',#611,#612,#30,.T.);
#781=EDGE_CURVE('',#613,#617,#31,.T.);
#782=EDGE_CURVE('',#614,#616,#32,.T.);
#783=EDGE_CURVE('',#552,#536,#327,.T.);
#784=EDGE_CURVE('',#560,#618,#328,.T.);
#785=EDGE_CURVE('',#618,#569,#329,.T.);
#786=EDGE_CURVE('',#549,#568,#330,.T.);
#787=EDGE_CURVE('',#619,#615,#331,.T.);
#788=EDGE_CURVE('',#554,#619,#332,.T.);
#789=EDGE_CURVE('',#571,#619,#333,.T.);
#790=EDGE_CURVE('',#556,#620,#334,.T.);
#791=EDGE_CURVE('',#621,#620,#335,.T.);
#792=EDGE_CURVE('',#557,#621,#336,.T.);
#793=EDGE_CURVE('',#622,#621,#337,.T.);
#794=EDGE_CURVE('',#558,#622,#338,.T.);
#795=EDGE_CURVE('',#623,#622,#339,.T.);
#796=EDGE_CURVE('',#559,#623,#340,.T.);
#797=EDGE_CURVE('',#618,#623,#341,.T.);
#798=EDGE_CURVE('',#624,#555,#342,.T.);
#799=EDGE_CURVE('',#620,#624,#343,.T.);
#800=EDGE_CURVE('',#570,#624,#344,.T.);
#801=ORIENTED_EDGE('',*,*,#625,.T.);
#802=ORIENTED_EDGE('',*,*,#626,.T.);
#803=ORIENTED_EDGE('',*,*,#627,.T.);
#804=ORIENTED_EDGE('',*,*,#628,.T.);
#805=ORIENTED_EDGE('',*,*,#628,.F.);
#806=ORIENTED_EDGE('',*,*,#629,.F.);
#807=ORIENTED_EDGE('',*,*,#630,.T.);
#808=ORIENTED_EDGE('',*,*,#631,.F.);
#809=ORIENTED_EDGE('',*,*,#632,.T.);
#810=ORIENTED_EDGE('',*,*,#633,.T.);
#811=ORIENTED_EDGE('',*,*,#634,.T.);
#812=ORIENTED_EDGE('',*,*,#635,.T.);
#813=ORIENTED_EDGE('',*,*,#627,.F.);
#814=ORIENTED_EDGE('',*,*,#636,.T.);
#815=ORIENTED_EDGE('',*,*,#637,.F.);
#816=ORIENTED_EDGE('',*,*,#638,.T.);
#817=ORIENTED_EDGE('',*,*,#639,.T.);
#818=ORIENTED_EDGE('',*,*,#629,.T.);
#819=ORIENTED_EDGE('',*,*,#640,.T.);
#820=ORIENTED_EDGE('',*,*,#641,.T.);
#821=ORIENTED_EDGE('',*,*,#642,.T.);
#822=ORIENTED_EDGE('',*,*,#643,.T.);
#823=ORIENTED_EDGE('',*,*,#641,.F.);
#824=ORIENTED_EDGE('',*,*,#644,.F.);
#825=ORIENTED_EDGE('',*,*,#645,.T.);
#826=ORIENTED_EDGE('',*,*,#646,.T.);
#827=ORIENTED_EDGE('',*,*,#647,.T.);
#828=ORIENTED_EDGE('',*,*,#648,.F.);
#829=ORIENTED_EDGE('',*,*,#640,.F.);
#830=ORIENTED_EDGE('',*,*,#649,.T.);
#831=ORIENTED_EDGE('',*,*,#650,.T.);
#832=ORIENTED_EDGE('',*,*,#651,.T.);
#833=ORIENTED_EDGE('',*,*,#652,.T.);
#834=ORIENTED_EDGE('',*,*,#644,.T.);
#835=ORIENTED_EDGE('',*,*,#653,.T.);
#836=ORIENTED_EDGE('',*,*,#654,.T.);
#837=ORIENTED_EDGE('',*,*,#655,.T.);
#838=ORIENTED_EDGE('',*,*,#656,.T.);
#839=ORIENTED_EDGE('',*,*,#654,.F.);
#840=ORIENTED_EDGE('',*,*,#657,.F.);
#841=ORIENTED_EDGE('',*,*,#658,.T.);
#842=ORIENTED_EDGE('',*,*,#659,.T.);
#843=ORIENTED_EDGE('',*,*,#653,.F.);
#844=ORIENTED_EDGE('',*,*,#660,.T.);
#845=ORIENTED_EDGE('',*,*,#661,.F.);
#846=ORIENTED_EDGE('',*,*,#662,.F.);
#847=ORIENTED_EDGE('',*,*,#663,.F.);
#848=ORIENTED_EDGE('',*,*,#664,.F.);
#849=ORIENTED_EDGE('',*,*,#665,.F.);
#850=ORIENTED_EDGE('',*,*,#666,.F.);
#851=ORIENTED_EDGE('',*,*,#651,.F.);
#852=ORIENTED_EDGE('',*,*,#667,.T.);
#853=ORIENTED_EDGE('',*,*,#638,.F.);
#854=ORIENTED_EDGE('',*,*,#657,.T.);
#855=ORIENTED_EDGE('',*,*,#665,.T.);
#856=ORIENTED_EDGE('',*,*,#668,.T.);
#857=ORIENTED_EDGE('',*,*,#669,.T.);
#858=ORIENTED_EDGE('',*,*,#670,.T.);
#859=ORIENTED_EDGE('',*,*,#669,.F.);
#860=ORIENTED_EDGE('',*,*,#671,.F.);
#861=ORIENTED_EDGE('',*,*,#672,.F.);
#862=ORIENTED_EDGE('',*,*,#673,.F.);
#863=ORIENTED_EDGE('',*,*,#674,.F.);
#864=ORIENTED_EDGE('',*,*,#675,.F.);
#865=ORIENTED_EDGE('',*,*,#676,.T.);
#866=ORIENTED_EDGE('',*,*,#677,.T.);
#867=ORIENTED_EDGE('',*,*,#668,.F.);
#868=ORIENTED_EDGE('',*,*,#664,.T.);
#869=ORIENTED_EDGE('',*,*,#678,.F.);
#870=ORIENTED_EDGE('',*,*,#671,.T.);
#871=ORIENTED_EDGE('',*,*,#672,.T.);
#872=ORIENTED_EDGE('',*,*,#678,.T.);
#873=ORIENTED_EDGE('',*,*,#663,.T.);
#874=ORIENTED_EDGE('',*,*,#679,.T.);
#875=ORIENTED_EDGE('',*,*,#680,.T.);
#876=ORIENTED_EDGE('',*,*,#681,.T.);
#877=ORIENTED_EDGE('',*,*,#661,.T.);
#878=ORIENTED_EDGE('',*,*,#682,.T.);
#879=ORIENTED_EDGE('',*,*,#679,.F.);
#880=ORIENTED_EDGE('',*,*,#662,.T.);
#881=ORIENTED_EDGE('',*,*,#681,.F.);
#882=ORIENTED_EDGE('',*,*,#683,.T.);
#883=ORIENTED_EDGE('',*,*,#684,.T.);
#884=ORIENTED_EDGE('',*,*,#685,.T.);
#885=ORIENTED_EDGE('',*,*,#686,.T.);
#886=ORIENTED_EDGE('',*,*,#687,.T.);
#887=ORIENTED_EDGE('',*,*,#688,.T.);
#888=ORIENTED_EDGE('',*,*,#689,.T.);
#889=ORIENTED_EDGE('',*,*,#690,.T.);
#890=ORIENTED_EDGE('',*,*,#673,.T.);
#891=ORIENTED_EDGE('',*,*,#691,.T.);
#892=ORIENTED_EDGE('',*,*,#692,.T.);
#893=ORIENTED_EDGE('',*,*,#625,.F.);
#894=ORIENTED_EDGE('',*,*,#631,.T.);
#895=ORIENTED_EDGE('',*,*,#693,.T.);
#896=ORIENTED_EDGE('',*,*,#694,.T.);
#897=ORIENTED_EDGE('',*,*,#695,.T.);
#898=ORIENTED_EDGE('',*,*,#696,.T.);
#899=ORIENTED_EDGE('',*,*,#694,.F.);
#900=ORIENTED_EDGE('',*,*,#697,.T.);
#901=ORIENTED_EDGE('',*,*,#698,.F.);
#902=ORIENTED_EDGE('',*,*,#699,.F.);
#903=ORIENTED_EDGE('',*,*,#700,.F.);
#904=ORIENTED_EDGE('',*,*,#701,.F.);
#905=ORIENTED_EDGE('',*,*,#702,.T.);
#906=ORIENTED_EDGE('',*,*,#703,.F.);
#907=ORIENTED_EDGE('',*,*,#693,.F.);
#908=ORIENTED_EDGE('',*,*,#630,.F.);
#909=ORIENTED_EDGE('',*,*,#639,.F.);
#910=ORIENTED_EDGE('',*,*,#667,.F.);
#911=ORIENTED_EDGE('',*,*,#650,.F.);
#912=ORIENTED_EDGE('',*,*,#704,.F.);
#913=ORIENTED_EDGE('',*,*,#705,.F.);
#914=ORIENTED_EDGE('',*,*,#697,.F.);
#915=ORIENTED_EDGE('',*,*,#706,.T.);
#916=ORIENTED_EDGE('',*,*,#707,.T.);
#917=ORIENTED_EDGE('',*,*,#643,.F.);
#918=ORIENTED_EDGE('',*,*,#708,.F.);
#919=ORIENTED_EDGE('',*,*,#704,.T.);
#920=ORIENTED_EDGE('',*,*,#649,.F.);
#921=ORIENTED_EDGE('',*,*,#709,.T.);
#922=ORIENTED_EDGE('',*,*,#710,.T.);
#923=ORIENTED_EDGE('',*,*,#711,.T.);
#924=ORIENTED_EDGE('',*,*,#712,.T.);
#925=ORIENTED_EDGE('',*,*,#642,.F.);
#926=ORIENTED_EDGE('',*,*,#648,.T.);
#927=ORIENTED_EDGE('',*,*,#713,.F.);
#928=ORIENTED_EDGE('',*,*,#698,.T.);
#929=ORIENTED_EDGE('',*,*,#705,.T.);
#930=ORIENTED_EDGE('',*,*,#708,.T.);
#931=ORIENTED_EDGE('',*,*,#714,.T.);
#932=ORIENTED_EDGE('',*,*,#715,.T.);
#933=ORIENTED_EDGE('',*,*,#716,.F.);
#934=ORIENTED_EDGE('',*,*,#717,.F.);
#935=ORIENTED_EDGE('',*,*,#718,.F.);
#936=ORIENTED_EDGE('',*,*,#715,.F.);
#937=ORIENTED_EDGE('',*,*,#719,.T.);
#938=ORIENTED_EDGE('',*,*,#720,.T.);
#939=ORIENTED_EDGE('',*,*,#721,.F.);
#940=ORIENTED_EDGE('',*,*,#720,.F.);
#941=ORIENTED_EDGE('',*,*,#722,.T.);
#942=ORIENTED_EDGE('',*,*,#723,.T.);
#943=ORIENTED_EDGE('',*,*,#724,.F.);
#944=ORIENTED_EDGE('',*,*,#723,.F.);
#945=ORIENTED_EDGE('',*,*,#725,.T.);
#946=ORIENTED_EDGE('',*,*,#717,.T.);
#947=ORIENTED_EDGE('',*,*,#714,.F.);
#948=ORIENTED_EDGE('',*,*,#725,.F.);
#949=ORIENTED_EDGE('',*,*,#722,.F.);
#950=ORIENTED_EDGE('',*,*,#719,.F.);
#951=ORIENTED_EDGE('',*,*,#632,.F.);
#952=ORIENTED_EDGE('',*,*,#726,.T.);
#953=ORIENTED_EDGE('',*,*,#727,.F.);
#954=ORIENTED_EDGE('',*,*,#728,.F.);
#955=ORIENTED_EDGE('',*,*,#633,.F.);
#956=ORIENTED_EDGE('',*,*,#728,.T.);
#957=ORIENTED_EDGE('',*,*,#729,.F.);
#958=ORIENTED_EDGE('',*,*,#730,.F.);
#959=ORIENTED_EDGE('',*,*,#634,.F.);
#960=ORIENTED_EDGE('',*,*,#730,.T.);
#961=ORIENTED_EDGE('',*,*,#731,.F.);
#962=ORIENTED_EDGE('',*,*,#732,.F.);
#963=ORIENTED_EDGE('',*,*,#635,.F.);
#964=ORIENTED_EDGE('',*,*,#732,.T.);
#965=ORIENTED_EDGE('',*,*,#733,.F.);
#966=ORIENTED_EDGE('',*,*,#726,.F.);
#967=ORIENTED_EDGE('',*,*,#733,.T.);
#968=ORIENTED_EDGE('',*,*,#731,.T.);
#969=ORIENTED_EDGE('',*,*,#729,.T.);
#970=ORIENTED_EDGE('',*,*,#727,.T.);
#971=ORIENTED_EDGE('',*,*,#734,.T.);
#972=ORIENTED_EDGE('',*,*,#735,.T.);
#973=ORIENTED_EDGE('',*,*,#736,.F.);
#974=ORIENTED_EDGE('',*,*,#737,.F.);
#975=ORIENTED_EDGE('',*,*,#738,.T.);
#976=ORIENTED_EDGE('',*,*,#739,.T.);
#977=ORIENTED_EDGE('',*,*,#740,.F.);
#978=ORIENTED_EDGE('',*,*,#735,.F.);
#979=ORIENTED_EDGE('',*,*,#741,.T.);
#980=ORIENTED_EDGE('',*,*,#742,.T.);
#981=ORIENTED_EDGE('',*,*,#743,.F.);
#982=ORIENTED_EDGE('',*,*,#739,.F.);
#983=ORIENTED_EDGE('',*,*,#744,.F.);
#984=ORIENTED_EDGE('',*,*,#742,.F.);
#985=ORIENTED_EDGE('',*,*,#745,.T.);
#986=ORIENTED_EDGE('',*,*,#737,.T.);
#987=ORIENTED_EDGE('',*,*,#734,.F.);
#988=ORIENTED_EDGE('',*,*,#745,.F.);
#989=ORIENTED_EDGE('',*,*,#741,.F.);
#990=ORIENTED_EDGE('',*,*,#738,.F.);
#991=ORIENTED_EDGE('',*,*,#709,.F.);
#992=ORIENTED_EDGE('',*,*,#746,.T.);
#993=ORIENTED_EDGE('',*,*,#747,.T.);
#994=ORIENTED_EDGE('',*,*,#748,.F.);
#995=ORIENTED_EDGE('',*,*,#712,.F.);
#996=ORIENTED_EDGE('',*,*,#749,.T.);
#997=ORIENTED_EDGE('',*,*,#750,.T.);
#998=ORIENTED_EDGE('',*,*,#746,.F.);
#999=ORIENTED_EDGE('',*,*,#711,.F.);
#1000=ORIENTED_EDGE('',*,*,#751,.T.);
#1001=ORIENTED_EDGE('',*,*,#752,.T.);
#1002=ORIENTED_EDGE('',*,*,#749,.F.);
#1003=ORIENTED_EDGE('',*,*,#710,.F.);
#1004=ORIENTED_EDGE('',*,*,#748,.T.);
#1005=ORIENTED_EDGE('',*,*,#753,.T.);
#1006=ORIENTED_EDGE('',*,*,#751,.F.);
#1007=ORIENTED_EDGE('',*,*,#753,.F.);
#1008=ORIENTED_EDGE('',*,*,#747,.F.);
#1009=ORIENTED_EDGE('',*,*,#750,.F.);
#1010=ORIENTED_EDGE('',*,*,#752,.F.);
#1011=ORIENTED_EDGE('',*,*,#707,.F.);
#1012=ORIENTED_EDGE('',*,*,#754,.T.);
#1013=ORIENTED_EDGE('',*,*,#692,.F.);
#1014=ORIENTED_EDGE('',*,*,#754,.F.);
#1015=ORIENTED_EDGE('',*,*,#706,.F.);
#1016=ORIENTED_EDGE('',*,*,#755,.T.);
#1017=ORIENTED_EDGE('',*,*,#691,.F.);
#1018=ORIENTED_EDGE('',*,*,#755,.F.);
#1019=ORIENTED_EDGE('',*,*,#756,.F.);
#1020=ORIENTED_EDGE('',*,*,#757,.F.);
#1021=ORIENTED_EDGE('',*,*,#758,.F.);
#1022=ORIENTED_EDGE('',*,*,#759,.F.);
#1023=ORIENTED_EDGE('',*,*,#760,.F.);
#1024=ORIENTED_EDGE('',*,*,#761,.F.);
#1025=ORIENTED_EDGE('',*,*,#762,.F.);
#1026=ORIENTED_EDGE('',*,*,#757,.T.);
#1027=ORIENTED_EDGE('',*,*,#763,.F.);
#1028=ORIENTED_EDGE('',*,*,#764,.F.);
#1029=ORIENTED_EDGE('',*,*,#765,.F.);
#1030=ORIENTED_EDGE('',*,*,#759,.T.);
#1031=ORIENTED_EDGE('',*,*,#763,.T.);
#1032=ORIENTED_EDGE('',*,*,#758,.T.);
#1033=ORIENTED_EDGE('',*,*,#765,.T.);
#1034=ORIENTED_EDGE('',*,*,#766,.T.);
#1035=ORIENTED_EDGE('',*,*,#767,.T.);
#1036=ORIENTED_EDGE('',*,*,#645,.F.);
#1037=ORIENTED_EDGE('',*,*,#652,.F.);
#1038=ORIENTED_EDGE('',*,*,#768,.F.);
#1039=ORIENTED_EDGE('',*,*,#676,.F.);
#1040=ORIENTED_EDGE('',*,*,#769,.F.);
#1041=ORIENTED_EDGE('',*,*,#713,.T.);
#1042=ORIENTED_EDGE('',*,*,#647,.F.);
#1043=ORIENTED_EDGE('',*,*,#770,.T.);
#1044=ORIENTED_EDGE('',*,*,#771,.T.);
#1045=ORIENTED_EDGE('',*,*,#740,.T.);
#1046=ORIENTED_EDGE('',*,*,#743,.T.);
#1047=ORIENTED_EDGE('',*,*,#744,.T.);
#1048=ORIENTED_EDGE('',*,*,#736,.T.);
#1049=ORIENTED_EDGE('',*,*,#760,.T.);
#1050=ORIENTED_EDGE('',*,*,#756,.T.);
#1051=ORIENTED_EDGE('',*,*,#762,.T.);
#1052=ORIENTED_EDGE('',*,*,#772,.T.);
#1053=ORIENTED_EDGE('',*,*,#773,.T.);
#1054=ORIENTED_EDGE('',*,*,#774,.F.);
#1055=ORIENTED_EDGE('',*,*,#695,.F.);
#1056=ORIENTED_EDGE('',*,*,#775,.F.);
#1057=ORIENTED_EDGE('',*,*,#776,.T.);
#1058=ORIENTED_EDGE('',*,*,#658,.F.);
#1059=ORIENTED_EDGE('',*,*,#637,.T.);
#1060=ORIENTED_EDGE('',*,*,#777,.F.);
#1061=ORIENTED_EDGE('',*,*,#778,.T.);
#1062=ORIENTED_EDGE('',*,*,#779,.T.);
#1063=ORIENTED_EDGE('',*,*,#721,.T.);
#1064=ORIENTED_EDGE('',*,*,#724,.T.);
#1065=ORIENTED_EDGE('',*,*,#716,.T.);
#1066=ORIENTED_EDGE('',*,*,#718,.T.);
#1067=ORIENTED_EDGE('',*,*,#764,.T.);
#1068=ORIENTED_EDGE('',*,*,#771,.F.);
#1069=ORIENTED_EDGE('',*,*,#780,.F.);
#1070=ORIENTED_EDGE('',*,*,#766,.F.);
#1071=ORIENTED_EDGE('',*,*,#761,.T.);
#1072=ORIENTED_EDGE('',*,*,#779,.F.);
#1073=ORIENTED_EDGE('',*,*,#781,.F.);
#1074=ORIENTED_EDGE('',*,*,#772,.F.);
#1075=ORIENTED_EDGE('',*,*,#770,.F.);
#1076=ORIENTED_EDGE('',*,*,#646,.F.);
#1077=ORIENTED_EDGE('',*,*,#767,.F.);
#1078=ORIENTED_EDGE('',*,*,#780,.T.);
#1079=ORIENTED_EDGE('',*,*,#778,.F.);
#1080=ORIENTED_EDGE('',*,*,#782,.F.);
#1081=ORIENTED_EDGE('',*,*,#773,.F.);
#1082=ORIENTED_EDGE('',*,*,#781,.T.);
#1083=ORIENTED_EDGE('',*,*,#656,.F.);
#1084=ORIENTED_EDGE('',*,*,#783,.F.);
#1085=ORIENTED_EDGE('',*,*,#682,.F.);
#1086=ORIENTED_EDGE('',*,*,#660,.F.);
#1087=ORIENTED_EDGE('',*,*,#674,.T.);
#1088=ORIENTED_EDGE('',*,*,#690,.F.);
#1089=ORIENTED_EDGE('',*,*,#784,.T.);
#1090=ORIENTED_EDGE('',*,*,#785,.T.);
#1091=ORIENTED_EDGE('',*,*,#700,.T.);
#1092=ORIENTED_EDGE('',*,*,#786,.F.);
#1093=ORIENTED_EDGE('',*,*,#626,.F.);
#1094=ORIENTED_EDGE('',*,*,#696,.F.);
#1095=ORIENTED_EDGE('',*,*,#774,.T.);
#1096=ORIENTED_EDGE('',*,*,#782,.T.);
#1097=ORIENTED_EDGE('',*,*,#777,.T.);
#1098=ORIENTED_EDGE('',*,*,#636,.F.);
#1099=ORIENTED_EDGE('',*,*,#670,.F.);
#1100=ORIENTED_EDGE('',*,*,#677,.F.);
#1101=ORIENTED_EDGE('',*,*,#768,.T.);
#1102=ORIENTED_EDGE('',*,*,#666,.T.);
#1103=ORIENTED_EDGE('',*,*,#655,.F.);
#1104=ORIENTED_EDGE('',*,*,#659,.F.);
#1105=ORIENTED_EDGE('',*,*,#776,.F.);
#1106=ORIENTED_EDGE('',*,*,#787,.F.);
#1107=ORIENTED_EDGE('',*,*,#788,.F.);
#1108=ORIENTED_EDGE('',*,*,#683,.F.);
#1109=ORIENTED_EDGE('',*,*,#680,.F.);
#1110=ORIENTED_EDGE('',*,*,#783,.T.);
#1111=ORIENTED_EDGE('',*,*,#787,.T.);
#1112=ORIENTED_EDGE('',*,*,#775,.T.);
#1113=ORIENTED_EDGE('',*,*,#703,.T.);
#1114=ORIENTED_EDGE('',*,*,#789,.T.);
#1115=ORIENTED_EDGE('',*,*,#769,.T.);
#1116=ORIENTED_EDGE('',*,*,#675,.T.);
#1117=ORIENTED_EDGE('',*,*,#786,.T.);
#1118=ORIENTED_EDGE('',*,*,#699,.T.);
#1119=ORIENTED_EDGE('',*,*,#686,.F.);
#1120=ORIENTED_EDGE('',*,*,#790,.T.);
#1121=ORIENTED_EDGE('',*,*,#791,.F.);
#1122=ORIENTED_EDGE('',*,*,#792,.F.);
#1123=ORIENTED_EDGE('',*,*,#687,.F.);
#1124=ORIENTED_EDGE('',*,*,#792,.T.);
#1125=ORIENTED_EDGE('',*,*,#793,.F.);
#1126=ORIENTED_EDGE('',*,*,#794,.F.);
#1127=ORIENTED_EDGE('',*,*,#688,.F.);
#1128=ORIENTED_EDGE('',*,*,#794,.T.);
#1129=ORIENTED_EDGE('',*,*,#795,.F.);
#1130=ORIENTED_EDGE('',*,*,#796,.F.);
#1131=ORIENTED_EDGE('',*,*,#689,.F.);
#1132=ORIENTED_EDGE('',*,*,#796,.T.);
#1133=ORIENTED_EDGE('',*,*,#797,.F.);
#1134=ORIENTED_EDGE('',*,*,#784,.F.);
#1135=ORIENTED_EDGE('',*,*,#685,.F.);
#1136=ORIENTED_EDGE('',*,*,#798,.F.);
#1137=ORIENTED_EDGE('',*,*,#799,.F.);
#1138=ORIENTED_EDGE('',*,*,#790,.F.);
#1139=ORIENTED_EDGE('',*,*,#799,.T.);
#1140=ORIENTED_EDGE('',*,*,#800,.F.);
#1141=ORIENTED_EDGE('',*,*,#701,.T.);
#1142=ORIENTED_EDGE('',*,*,#785,.F.);
#1143=ORIENTED_EDGE('',*,*,#797,.T.);
#1144=ORIENTED_EDGE('',*,*,#795,.T.);
#1145=ORIENTED_EDGE('',*,*,#793,.T.);
#1146=ORIENTED_EDGE('',*,*,#791,.T.);
#1147=ORIENTED_EDGE('',*,*,#788,.T.);
#1148=ORIENTED_EDGE('',*,*,#789,.F.);
#1149=ORIENTED_EDGE('',*,*,#702,.F.);
#1150=ORIENTED_EDGE('',*,*,#800,.T.);
#1151=ORIENTED_EDGE('',*,*,#798,.T.);
#1152=ORIENTED_EDGE('',*,*,#684,.F.);
#1153=PLANE('',#1281);
#1154=PLANE('',#1282);
#1155=PLANE('',#1283);
#1156=PLANE('',#1284);
#1157=PLANE('',#1285);
#1158=PLANE('',#1287);
#1159=PLANE('',#1288);
#1160=PLANE('',#1289);
#1161=PLANE('',#1290);
#1162=PLANE('',#1291);
#1163=PLANE('',#1292);
#1164=PLANE('',#1293);
#1165=PLANE('',#1294);
#1166=PLANE('',#1295);
#1167=PLANE('',#1296);
#1168=PLANE('',#1299);
#1169=PLANE('',#1300);
#1170=PLANE('',#1301);
#1171=PLANE('',#1304);
#1172=PLANE('',#1305);
#1173=PLANE('',#1306);
#1174=PLANE('',#1307);
#1175=PLANE('',#1308);
#1176=PLANE('',#1309);
#1177=PLANE('',#1310);
#1178=PLANE('',#1311);
#1179=PLANE('',#1312);
#1180=PLANE('',#1313);
#1181=PLANE('',#1314);
#1182=PLANE('',#1315);
#1183=PLANE('',#1316);
#1184=PLANE('',#1317);
#1185=PLANE('',#1318);
#1186=PLANE('',#1319);
#1187=PLANE('',#1320);
#1188=PLANE('',#1321);
#1189=PLANE('',#1322);
#1190=PLANE('',#1323);
#1191=PLANE('',#1324);
#1192=PLANE('',#1325);
#1193=PLANE('',#1328);
#1194=PLANE('',#1330);
#1195=PLANE('',#1336);
#1196=PLANE('',#1337);
#1197=PLANE('',#1338);
#1198=PLANE('',#1340);
#1199=PLANE('',#1345);
#1200=PLANE('',#1346);
#1201=PLANE('',#1347);
#1202=PLANE('',#1348);
#1203=PLANE('',#1349);
#1204=PLANE('',#1350);
#1205=PLANE('',#1351);
#1206=PLANE('',#1352);
#1207=PLANE('',#1353);
#1208=PLANE('',#1354);
#1209=PLANE('',#1355);
#1210=PLANE('',#1356);
#1211=PLANE('',#1357);
#1212=PLANE('',#1358);
#1213=ADVANCED_FACE('',(#41),#1153,.T.);
#1214=ADVANCED_FACE('',(#42,#33),#1154,.T.);
#1215=ADVANCED_FACE('',(#43),#1155,.T.);
#1216=ADVANCED_FACE('',(#44),#1156,.T.);
#1217=ADVANCED_FACE('',(#45),#1157,.T.);
#1218=ADVANCED_FACE('',(#46),#1158,.T.);
#1219=ADVANCED_FACE('',(#47),#1159,.T.);
#1220=ADVANCED_FACE('',(#48),#1160,.T.);
#1221=ADVANCED_FACE('',(#49),#1161,.T.);
#1222=ADVANCED_FACE('',(#50),#1162,.T.);
#1223=ADVANCED_FACE('',(#51),#1163,.T.);
#1224=ADVANCED_FACE('',(#52),#1164,.T.);
#1225=ADVANCED_FACE('',(#53),#1165,.T.);
#1226=ADVANCED_FACE('',(#54),#1166,.T.);
#1227=ADVANCED_FACE('',(#55,#34,#35),#1167,.T.);
#1228=ADVANCED_FACE('',(#56),#1168,.T.);
#1229=ADVANCED_FACE('',(#57),#1169,.T.);
#1230=ADVANCED_FACE('',(#58,#36,#37),#1170,.F.);
#1231=ADVANCED_FACE('',(#59,#38),#1171,.T.);
#1232=ADVANCED_FACE('',(#60),#1172,.T.);
#1233=ADVANCED_FACE('',(#61),#1173,.T.);
#1234=ADVANCED_FACE('',(#62),#1174,.T.);
#1235=ADVANCED_FACE('',(#63),#1175,.T.);
#1236=ADVANCED_FACE('',(#64),#1176,.T.);
#1237=ADVANCED_FACE('',(#65),#1177,.F.);
#1238=ADVANCED_FACE('',(#66),#1178,.T.);
#1239=ADVANCED_FACE('',(#67),#1179,.T.);
#1240=ADVANCED_FACE('',(#68),#1180,.T.);
#1241=ADVANCED_FACE('',(#69),#1181,.T.);
#1242=ADVANCED_FACE('',(#70),#1182,.T.);
#1243=ADVANCED_FACE('',(#71),#1183,.T.);
#1244=ADVANCED_FACE('',(#72),#1184,.T.);
#1245=ADVANCED_FACE('',(#73),#1185,.T.);
#1246=ADVANCED_FACE('',(#74),#1186,.T.);
#1247=ADVANCED_FACE('',(#75),#1187,.T.);
#1248=ADVANCED_FACE('',(#76),#1188,.F.);
#1249=ADVANCED_FACE('',(#77),#1189,.F.);
#1250=ADVANCED_FACE('',(#78),#1190,.F.);
#1251=ADVANCED_FACE('',(#79),#1191,.F.);
#1252=ADVANCED_FACE('',(#80),#1192,.F.);
#1253=ADVANCED_FACE('',(#81),#15,.F.);
#1254=ADVANCED_FACE('',(#82),#16,.F.);
#1255=ADVANCED_FACE('',(#83),#1193,.T.);
#1256=ADVANCED_FACE('',(#84),#1194,.T.);
#1257=ADVANCED_FACE('',(#85),#17,.F.);
#1258=ADVANCED_FACE('',(#86),#18,.F.);
#1259=ADVANCED_FACE('',(#87,#39),#1195,.T.);
#1260=ADVANCED_FACE('',(#88,#40),#1196,.T.);
#1261=ADVANCED_FACE('',(#89),#1197,.T.);
#1262=ADVANCED_FACE('',(#90),#1198,.T.);
#1263=ADVANCED_FACE('',(#91),#19,.F.);
#1264=ADVANCED_FACE('',(#92),#20,.F.);
#1265=ADVANCED_FACE('',(#93),#1199,.F.);
#1266=ADVANCED_FACE('',(#94),#1200,.T.);
#1267=ADVANCED_FACE('',(#95),#1201,.T.);
#1268=ADVANCED_FACE('',(#96),#1202,.T.);
#1269=ADVANCED_FACE('',(#97),#1203,.T.);
#1270=ADVANCED_FACE('',(#98),#1204,.T.);
#1271=ADVANCED_FACE('',(#99),#1205,.T.);
#1272=ADVANCED_FACE('',(#100),#1206,.T.);
#1273=ADVANCED_FACE('',(#101),#1207,.T.);
#1274=ADVANCED_FACE('',(#102),#1208,.T.);
#1275=ADVANCED_FACE('',(#103),#1209,.T.);
#1276=ADVANCED_FACE('',(#104),#1210,.T.);
#1277=ADVANCED_FACE('',(#105),#1211,.T.);
#1278=ADVANCED_FACE('',(#106),#1212,.T.);
#1279=CLOSED_SHELL('',(#1213,#1214,#1215,#1216,#1217,#1218,#1219,#1220,
#1221,#1222,#1223,#1224,#1225,#1226,#1227,#1228,#1229,#1230,#1231,#1232,
#1233,#1234,#1235,#1236,#1237,#1238,#1239,#1240,#1241,#1242,#1243,#1244,
#1245,#1246,#1247,#1248,#1249,#1250,#1251,#1252,#1253,#1254,#1255,#1256,
#1257,#1258,#1259,#1260,#1261,#1262,#1263,#1264,#1265,#1266,#1267,#1268,
#1269,#1270,#1271,#1272,#1273,#1274,#1275,#1276,#1277,#1278));
#1280=AXIS2_PLACEMENT_3D('',#1681,#1359,#1360);
#1281=AXIS2_PLACEMENT_3D('',#1682,#1361,#1362);
#1282=AXIS2_PLACEMENT_3D('',#1691,#1367,#1368);
#1283=AXIS2_PLACEMENT_3D('',#1705,#1376,#1377);
#1284=AXIS2_PLACEMENT_3D('',#1713,#1382,#1383);
#1285=AXIS2_PLACEMENT_3D('',#1722,#1388,#1389);
#1286=AXIS2_PLACEMENT_3D('',#1728,#1392,#1393);
#1287=AXIS2_PLACEMENT_3D('',#1732,#1396,#1397);
#1288=AXIS2_PLACEMENT_3D('',#1740,#1402,#1403);
#1289=AXIS2_PLACEMENT_3D('',#1749,#1408,#1409);
#1290=AXIS2_PLACEMENT_3D('',#1754,#1413,#1414);
#1291=AXIS2_PLACEMENT_3D('',#1769,#1423,#1424);
#1292=AXIS2_PLACEMENT_3D('',#1775,#1428,#1429);
#1293=AXIS2_PLACEMENT_3D('',#1789,#1437,#1438);
#1294=AXIS2_PLACEMENT_3D('',#1791,#1440,#1441);
#1295=AXIS2_PLACEMENT_3D('',#1793,#1443,#1444);
#1296=AXIS2_PLACEMENT_3D('',#1799,#1448,#1449);
#1297=AXIS2_PLACEMENT_3D('',#1816,#1458,#1459);
#1298=AXIS2_PLACEMENT_3D('',#1818,#1460,#1461);
#1299=AXIS2_PLACEMENT_3D('',#1819,#1462,#1463);
#1300=AXIS2_PLACEMENT_3D('',#1827,#1468,#1469);
#1301=AXIS2_PLACEMENT_3D('',#1841,#1477,#1478);
#1302=AXIS2_PLACEMENT_3D('',#1846,#1481,#1482);
#1303=AXIS2_PLACEMENT_3D('',#1848,#1483,#1484);
#1304=AXIS2_PLACEMENT_3D('',#1849,#1485,#1486);
#1305=AXIS2_PLACEMENT_3D('',#1859,#1492,#1493);
#1306=AXIS2_PLACEMENT_3D('',#1861,#1495,#1496);
#1307=AXIS2_PLACEMENT_3D('',#1870,#1501,#1502);
#1308=AXIS2_PLACEMENT_3D('',#1876,#1506,#1507);
#1309=AXIS2_PLACEMENT_3D('',#1882,#1511,#1512);
#1310=AXIS2_PLACEMENT_3D('',#1885,#1515,#1516);
#1311=AXIS2_PLACEMENT_3D('',#1886,#1517,#1518);
#1312=AXIS2_PLACEMENT_3D('',#1892,#1522,#1523);
#1313=AXIS2_PLACEMENT_3D('',#1896,#1526,#1527);
#1314=AXIS2_PLACEMENT_3D('',#1900,#1530,#1531);
#1315=AXIS2_PLACEMENT_3D('',#1902,#1533,#1534);
#1316=AXIS2_PLACEMENT_3D('',#1903,#1535,#1536);
#1317=AXIS2_PLACEMENT_3D('',#1912,#1541,#1542);
#1318=AXIS2_PLACEMENT_3D('',#1918,#1546,#1547);
#1319=AXIS2_PLACEMENT_3D('',#1924,#1551,#1552);
#1320=AXIS2_PLACEMENT_3D('',#1927,#1555,#1556);
#1321=AXIS2_PLACEMENT_3D('',#1928,#1557,#1558);
#1322=AXIS2_PLACEMENT_3D('',#1934,#1562,#1563);
#1323=AXIS2_PLACEMENT_3D('',#1938,#1566,#1567);
#1324=AXIS2_PLACEMENT_3D('',#1942,#1570,#1571);
#1325=AXIS2_PLACEMENT_3D('',#1944,#1573,#1574);
#1326=AXIS2_PLACEMENT_3D('',#1945,#1575,#1576);
#1327=AXIS2_PLACEMENT_3D('',#1947,#1578,#1579);
#1328=AXIS2_PLACEMENT_3D('',#1949,#1581,#1582);
#1329=AXIS2_PLACEMENT_3D('',#1953,#1584,#1585);
#1330=AXIS2_PLACEMENT_3D('',#1954,#1586,#1587);
#1331=AXIS2_PLACEMENT_3D('',#1958,#1589,#1590);
#1332=AXIS2_PLACEMENT_3D('',#1959,#1591,#1592);
#1333=AXIS2_PLACEMENT_3D('',#1963,#1594,#1595);
#1334=AXIS2_PLACEMENT_3D('',#1965,#1597,#1598);
#1335=AXIS2_PLACEMENT_3D('',#1969,#1600,#1601);
#1336=AXIS2_PLACEMENT_3D('',#1971,#1603,#1604);
#1337=AXIS2_PLACEMENT_3D('',#1980,#1611,#1612);
#1338=AXIS2_PLACEMENT_3D('',#1994,#1621,#1622);
#1339=AXIS2_PLACEMENT_3D('',#1995,#1623,#1624);
#1340=AXIS2_PLACEMENT_3D('',#1996,#1625,#1626);
#1341=AXIS2_PLACEMENT_3D('',#1997,#1627,#1628);
#1342=AXIS2_PLACEMENT_3D('',#1998,#1629,#1630);
#1343=AXIS2_PLACEMENT_3D('',#1999,#1631,#1632);
#1344=AXIS2_PLACEMENT_3D('',#2000,#1633,#1634);
#1345=AXIS2_PLACEMENT_3D('',#2001,#1635,#1636);
#1346=AXIS2_PLACEMENT_3D('',#2003,#1638,#1639);
#1347=AXIS2_PLACEMENT_3D('',#2008,#1643,#1644);
#1348=AXIS2_PLACEMENT_3D('',#2009,#1645,#1646);
#1349=AXIS2_PLACEMENT_3D('',#2010,#1647,#1648);
#1350=AXIS2_PLACEMENT_3D('',#2014,#1651,#1652);
#1351=AXIS2_PLACEMENT_3D('',#2016,#1654,#1655);
#1352=AXIS2_PLACEMENT_3D('',#2017,#1656,#1657);
#1353=AXIS2_PLACEMENT_3D('',#2023,#1661,#1662);
#1354=AXIS2_PLACEMENT_3D('',#2027,#1665,#1666);
#1355=AXIS2_PLACEMENT_3D('',#2031,#1669,#1670);
#1356=AXIS2_PLACEMENT_3D('',#2033,#1672,#1673);
#1357=AXIS2_PLACEMENT_3D('',#2037,#1676,#1677);
#1358=AXIS2_PLACEMENT_3D('',#2039,#1679,#1680);
#1359=DIRECTION('axis',(0.,0.,1.));
#1360=DIRECTION('refdir',(1.,0.,0.));
#1361=DIRECTION('center_axis',(-0.707106781186548,0.,0.707106781186547));
#1362=DIRECTION('ref_axis',(0.707106781186547,0.,0.707106781186548));
#1363=DIRECTION('',(0.577350269189625,-0.577350269189625,0.577350269189627));
#1364=DIRECTION('',(0.,1.,0.));
#1365=DIRECTION('',(-0.577350269189626,-0.577350269189625,-0.577350269189627));
#1366=DIRECTION('',(0.,-1.,0.));
#1367=DIRECTION('center_axis',(-1.,0.,0.));
#1368=DIRECTION('ref_axis',(0.,-1.,0.));
#1369=DIRECTION('',(0.,0.,1.));
#1370=DIRECTION('',(0.,-1.,0.));
#1371=DIRECTION('',(0.,0.,-1.));
#1372=DIRECTION('',(0.,1.,0.));
#1373=DIRECTION('',(0.,0.,1.));
#1374=DIRECTION('',(0.,-1.,0.));
#1375=DIRECTION('',(0.,0.,-1.));
#1376=DIRECTION('center_axis',(-0.707106781186547,0.707106781186548,0.));
#1377=DIRECTION('ref_axis',(0.,0.,1.));
#1378=DIRECTION('',(0.707106781186548,0.707106781186547,0.));
#1379=DIRECTION('',(0.,0.,1.));
#1380=DIRECTION('',(0.,0.,-1.));
#1381=DIRECTION('',(-0.707106781186548,-0.707106781186547,0.));
#1382=DIRECTION('center_axis',(0.707106781186548,0.,0.707106781186547));
#1383=DIRECTION('ref_axis',(0.707106781186547,0.,-0.707106781186548));
#1384=DIRECTION('',(-0.577350269189626,0.577350269189626,0.577350269189626));
#1385=DIRECTION('',(0.,-1.,0.));
#1386=DIRECTION('',(0.577350269189625,0.577350269189626,-0.577350269189626));
#1387=DIRECTION('',(0.,1.,0.));
#1388=DIRECTION('center_axis',(0.,0.,1.));
#1389=DIRECTION('ref_axis',(1.,0.,0.));
#1390=DIRECTION('',(0.707106781186548,-0.707106781186548,0.));
#1391=DIRECTION('',(0.,-1.,0.));
#1392=DIRECTION('center_axis',(0.,0.,-1.));
#1393=DIRECTION('ref_axis',(-1.,0.,0.));
#1394=DIRECTION('',(0.,-1.,0.));
#1395=DIRECTION('',(-0.707106781186547,-0.707106781186548,0.));
#1396=DIRECTION('center_axis',(0.707106781186548,0.707106781186548,0.));
#1397=DIRECTION('ref_axis',(0.,0.,-1.));
#1398=DIRECTION('',(0.,0.,-1.));
#1399=DIRECTION('',(-0.707106781186548,0.707106781186548,0.));
#1400=DIRECTION('',(0.,0.,1.));
#1401=DIRECTION('',(0.,0.,1.));
#1402=DIRECTION('center_axis',(0.707106781186548,0.,0.707106781186547));
#1403=DIRECTION('ref_axis',(0.707106781186547,0.,-0.707106781186548));
#1404=DIRECTION('',(-0.707106781186547,0.,0.707106781186548));
#1405=DIRECTION('',(0.,-1.,0.));
#1406=DIRECTION('',(0.707106781186547,0.,-0.707106781186548));
#1407=DIRECTION('',(0.,1.,0.));
#1408=DIRECTION('center_axis',(0.,0.,1.));
#1409=DIRECTION('ref_axis',(1.,0.,0.));
#1410=DIRECTION('',(1.,0.,0.));
#1411=DIRECTION('',(-1.7415263131375E-16,-1.,0.));
#1412=DIRECTION('',(1.,0.,0.));
#1413=DIRECTION('center_axis',(0.,1.,0.));
#1414=DIRECTION('ref_axis',(-1.,0.,0.));
#1415=DIRECTION('',(0.,0.,-1.));
#1416=DIRECTION('',(-0.707106781186548,0.,0.707106781186547));
#1417=DIRECTION('',(-1.,0.,0.));
#1418=DIRECTION('',(-0.707106781186548,0.,-0.707106781186547));
#1419=DIRECTION('',(0.,0.,-1.));
#1420=DIRECTION('',(-0.707106781186547,0.,-0.707106781186548));
#1421=DIRECTION('',(-1.,0.,0.));
#1422=DIRECTION('',(-1.,0.,0.));
#1423=DIRECTION('center_axis',(-0.707106781186548,0.,0.707106781186547));
#1424=DIRECTION('ref_axis',(0.707106781186547,0.,0.707106781186548));
#1425=DIRECTION('',(0.,-1.,0.));
#1426=DIRECTION('',(0.707106781186547,0.,0.707106781186548));
#1427=DIRECTION('',(0.,1.,0.));
#1428=DIRECTION('center_axis',(0.,-1.,0.));
#1429=DIRECTION('ref_axis',(1.,0.,0.));
#1430=DIRECTION('',(0.,0.,1.));
#1431=DIRECTION('',(0.707106781186548,0.,0.707106781186547));
#1432=DIRECTION('',(-1.,0.,0.));
#1433=DIRECTION('',(0.,0.,-1.));
#1434=DIRECTION('',(-1.,0.,0.));
#1435=DIRECTION('',(0.,0.,1.));
#1436=DIRECTION('',(-1.,0.,0.));
#1437=DIRECTION('center_axis',(-1.,0.,0.));
#1438=DIRECTION('ref_axis',(0.,0.,1.));
#1439=DIRECTION('',(0.,1.,0.));
#1440=DIRECTION('center_axis',(-0.707106781186547,0.,0.707106781186548));
#1441=DIRECTION('ref_axis',(0.707106781186548,0.,0.707106781186547));
#1442=DIRECTION('',(0.,-1.,0.));
#1443=DIRECTION('center_axis',(0.707106781186547,0.,0.707106781186548));
#1444=DIRECTION('ref_axis',(0.707106781186548,0.,-0.707106781186547));
#1445=DIRECTION('',(0.707106781186548,0.,-0.707106781186547));
#1446=DIRECTION('',(0.,1.,0.));
#1447=DIRECTION('',(0.,-1.,0.));
#1448=DIRECTION('center_axis',(0.,0.,1.));
#1449=DIRECTION('ref_axis',(1.,0.,0.));
#1450=DIRECTION('',(-1.,0.,0.));
#1451=DIRECTION('',(0.,-1.,0.));
#1452=DIRECTION('',(1.,0.,0.));
#1453=DIRECTION('',(0.,1.,0.));
#1454=DIRECTION('',(1.,4.44089209850063E-16,0.));
#1455=DIRECTION('',(0.,-1.,0.));
#1456=DIRECTION('',(1.,0.,0.));
#1457=DIRECTION('',(0.,1.,0.));
#1458=DIRECTION('center_axis',(0.,0.,-1.));
#1459=DIRECTION('ref_axis',(1.,0.,0.));
#1460=DIRECTION('center_axis',(0.,0.,-1.));
#1461=DIRECTION('ref_axis',(1.,0.,0.));
#1462=DIRECTION('center_axis',(-0.707106781186548,-0.707106781186547,0.));
#1463=DIRECTION('ref_axis',(0.,0.,1.));
#1464=DIRECTION('',(0.707106781186547,-0.707106781186548,0.));
#1465=DIRECTION('',(0.,0.,1.));
#1466=DIRECTION('',(0.,0.,1.));
#1467=DIRECTION('',(-0.707106781186547,0.707106781186548,0.));
#1468=DIRECTION('center_axis',(0.,-1.,0.));
#1469=DIRECTION('ref_axis',(1.,0.,0.));
#1470=DIRECTION('',(1.,0.,0.));
#1471=DIRECTION('',(0.,0.,-1.));
#1472=DIRECTION('',(1.,-1.07182188209377E-32,0.));
#1473=DIRECTION('',(0.,0.,1.));
#1474=DIRECTION('',(1.,0.,0.));
#1475=DIRECTION('',(0.,0.,1.));
#1476=DIRECTION('',(1.,0.,0.));
#1477=DIRECTION('center_axis',(0.,0.,1.));
#1478=DIRECTION('ref_axis',(1.,0.,0.));
#1479=DIRECTION('',(0.,1.,0.));
#1480=DIRECTION('',(0.707106781186547,0.707106781186548,0.));
#1481=DIRECTION('center_axis',(0.,0.,1.));
#1482=DIRECTION('ref_axis',(1.,0.,0.));
#1483=DIRECTION('center_axis',(0.,0.,1.));
#1484=DIRECTION('ref_axis',(1.,0.,0.));
#1485=DIRECTION('center_axis',(1.,0.,0.));
#1486=DIRECTION('ref_axis',(0.,1.,0.));
#1487=DIRECTION('',(0.,0.,1.));
#1488=DIRECTION('',(0.,-1.,0.));
#1489=DIRECTION('',(0.,0.,1.));
#1490=DIRECTION('',(0.,1.,0.));
#1491=DIRECTION('',(0.,0.,-1.));
#1492=DIRECTION('center_axis',(0.707106781186548,-0.707106781186547,0.));
#1493=DIRECTION('ref_axis',(0.,0.,-1.));
#1494=DIRECTION('',(0.,0.,1.));
#1495=DIRECTION('center_axis',(0.707106781186548,0.707106781186548,0.));
#1496=DIRECTION('ref_axis',(0.,0.,-1.));
#1497=DIRECTION('',(0.,0.,-1.));
#1498=DIRECTION('',(-0.577350269189623,0.577350269189626,-0.577350269189628));
#1499=DIRECTION('',(0.,0.,-1.));
#1500=DIRECTION('',(-0.577350269189624,0.577350269189627,0.577350269189627));
#1501=DIRECTION('center_axis',(0.707106781186549,0.,-0.707106781186546));
#1502=DIRECTION('ref_axis',(-0.707106781186546,0.,-0.707106781186549));
#1503=DIRECTION('',(-1.84269381680524E-16,-1.,0.));
#1504=DIRECTION('',(0.,-1.,0.));
#1505=DIRECTION('',(-0.577350269189623,-0.577350269189626,-0.577350269189628));
#1506=DIRECTION('center_axis',(0.707106781186548,-0.707106781186548,0.));
#1507=DIRECTION('ref_axis',(0.,0.,-1.));
#1508=DIRECTION('',(0.,0.,1.));
#1509=DIRECTION('',(0.,0.,1.));
#1510=DIRECTION('',(-0.577350269189624,-0.577350269189627,0.577350269189627));
#1511=DIRECTION('center_axis',(0.707106781186548,0.,0.707106781186548));
#1512=DIRECTION('ref_axis',(0.707106781186548,0.,-0.707106781186548));
#1513=DIRECTION('',(1.84269381680524E-16,1.,0.));
#1514=DIRECTION('',(0.,1.,0.));
#1515=DIRECTION('center_axis',(-1.,0.,0.));
#1516=DIRECTION('ref_axis',(0.,0.,1.));
#1517=DIRECTION('center_axis',(0.,0.,1.));
#1518=DIRECTION('ref_axis',(0.,-1.,0.));
#1519=DIRECTION('',(1.,0.,0.));
#1520=DIRECTION('',(0.,-1.,0.));
#1521=DIRECTION('',(1.,0.,0.));
#1522=DIRECTION('center_axis',(0.,-1.,0.));
#1523=DIRECTION('ref_axis',(0.,0.,-1.));
#1524=DIRECTION('',(0.,0.,-1.));
#1525=DIRECTION('',(1.,0.,0.));
#1526=DIRECTION('center_axis',(0.,0.,-1.));
#1527=DIRECTION('ref_axis',(0.,1.,0.));
#1528=DIRECTION('',(0.,1.,0.));
#1529=DIRECTION('',(1.,0.,0.));
#1530=DIRECTION('center_axis',(0.,1.,0.));
#1531=DIRECTION('ref_axis',(0.,0.,1.));
#1532=DIRECTION('',(0.,0.,1.));
#1533=DIRECTION('center_axis',(-1.,0.,0.));
#1534=DIRECTION('ref_axis',(0.,0.,1.));
#1535=DIRECTION('center_axis',(-0.707106781186549,0.,0.707106781186546));
#1536=DIRECTION('ref_axis',(0.707106781186546,0.,0.707106781186549));
#1537=DIRECTION('',(0.,-1.,0.));
#1538=DIRECTION('',(0.577350269189624,-0.577350269189626,0.577350269189627));
#1539=DIRECTION('',(0.,-1.,0.));
#1540=DIRECTION('',(0.577350269189623,0.577350269189628,0.577350269189626));
#1541=DIRECTION('center_axis',(-0.707106781186549,-0.707106781186546,0.));
#1542=DIRECTION('ref_axis',(0.,0.,1.));
#1543=DIRECTION('',(0.,0.,-1.));
#1544=DIRECTION('',(0.577350269189624,-0.577350269189627,-0.577350269189627));
#1545=DIRECTION('',(0.,0.,-1.));
#1546=DIRECTION('center_axis',(-0.707106781186549,0.,-0.707106781186546));
#1547=DIRECTION('ref_axis',(-0.707106781186546,0.,0.707106781186549));
#1548=DIRECTION('',(0.,1.,0.));
#1549=DIRECTION('',(0.577350269189624,0.577350269189627,-0.577350269189627));
#1550=DIRECTION('',(0.,1.,0.));
#1551=DIRECTION('center_axis',(-0.707106781186549,0.707106781186546,0.));
#1552=DIRECTION('ref_axis',(0.,0.,1.));
#1553=DIRECTION('',(0.,0.,1.));
#1554=DIRECTION('',(0.,0.,1.));
#1555=DIRECTION('center_axis',(-1.,0.,0.));
#1556=DIRECTION('ref_axis',(0.,0.,1.));
#1557=DIRECTION('center_axis',(0.,0.,-1.));
#1558=DIRECTION('ref_axis',(0.,-1.,0.));
#1559=DIRECTION('',(-1.,0.,0.));
#1560=DIRECTION('',(0.,-1.,0.));
#1561=DIRECTION('',(-1.,0.,0.));
#1562=DIRECTION('center_axis',(0.,1.,0.));
#1563=DIRECTION('ref_axis',(0.,0.,-1.));
#1564=DIRECTION('',(-1.,0.,0.));
#1565=DIRECTION('',(0.,0.,-1.));
#1566=DIRECTION('center_axis',(0.,0.,1.));
#1567=DIRECTION('ref_axis',(0.,1.,0.));
#1568=DIRECTION('',(-1.,0.,0.));
#1569=DIRECTION('',(0.,1.,0.));
#1570=DIRECTION('center_axis',(0.,-1.,0.));
#1571=DIRECTION('ref_axis',(0.,0.,1.));
#1572=DIRECTION('',(0.,0.,1.));
#1573=DIRECTION('center_axis',(-1.,0.,0.));
#1574=DIRECTION('ref_axis',(0.,0.,1.));
#1575=DIRECTION('center_axis',(0.,0.,1.));
#1576=DIRECTION('ref_axis',(1.,0.,0.));
#1577=DIRECTION('',(0.,0.,1.));
#1578=DIRECTION('center_axis',(0.,0.,1.));
#1579=DIRECTION('ref_axis',(1.,0.,0.));
#1580=DIRECTION('',(0.,0.,1.));
#1581=DIRECTION('center_axis',(0.,0.,1.));
#1582=DIRECTION('ref_axis',(-1.,0.,0.));
#1583=DIRECTION('',(-1.84269381680524E-16,-1.,0.));
#1584=DIRECTION('center_axis',(0.,0.,-1.));
#1585=DIRECTION('ref_axis',(-1.,0.,0.));
#1586=DIRECTION('center_axis',(0.,0.,1.));
#1587=DIRECTION('ref_axis',(-1.,0.,0.));
#1588=DIRECTION('',(0.,1.,0.));
#1589=DIRECTION('center_axis',(0.,0.,-1.));
#1590=DIRECTION('ref_axis',(-1.,0.,0.));
#1591=DIRECTION('center_axis',(0.,0.,-1.));
#1592=DIRECTION('ref_axis',(-1.,0.,0.));
#1593=DIRECTION('',(0.,0.,-1.));
#1594=DIRECTION('center_axis',(0.,0.,-1.));
#1595=DIRECTION('ref_axis',(-1.,0.,0.));
#1596=DIRECTION('',(0.,0.,1.));
#1597=DIRECTION('center_axis',(0.,0.,-1.));
#1598=DIRECTION('ref_axis',(1.,-1.22464679914735E-16,0.));
#1599=DIRECTION('',(0.,0.,-1.));
#1600=DIRECTION('center_axis',(0.,0.,-1.));
#1601=DIRECTION('ref_axis',(-1.,0.,0.));
#1602=DIRECTION('',(0.,0.,1.));
#1603=DIRECTION('center_axis',(-1.,0.,0.));
#1604=DIRECTION('ref_axis',(0.,-1.,0.));
#1605=DIRECTION('',(0.,1.,0.));
#1606=DIRECTION('',(0.,0.,1.));
#1607=DIRECTION('',(0.,1.,0.));
#1608=DIRECTION('',(0.,1.,0.));
#1609=DIRECTION('',(0.,0.,-1.));
#1610=DIRECTION('',(0.,1.,0.));
#1611=DIRECTION('center_axis',(1.,-1.84269381680524E-16,0.));
#1612=DIRECTION('ref_axis',(1.84269381680524E-16,1.,0.));
#1613=DIRECTION('',(-1.84269381680524E-16,-1.,0.));
#1614=DIRECTION('',(0.,0.,1.));
#1615=DIRECTION('',(1.7415263131375E-16,1.,0.));
#1616=DIRECTION('',(-1.84269381680524E-16,-1.,0.));
#1617=DIRECTION('',(0.,0.,1.));
#1618=DIRECTION('',(1.7415263131375E-16,1.,0.));
#1619=DIRECTION('',(0.,0.,-1.));
#1620=DIRECTION('',(-1.84269381680524E-16,-1.,0.));
#1621=DIRECTION('center_axis',(0.,0.,1.));
#1622=DIRECTION('ref_axis',(-1.,0.,0.));
#1623=DIRECTION('center_axis',(0.,0.,-1.));
#1624=DIRECTION('ref_axis',(-1.,0.,0.));
#1625=DIRECTION('center_axis',(0.,0.,1.));
#1626=DIRECTION('ref_axis',(-1.,0.,0.));
#1627=DIRECTION('center_axis',(0.,0.,-1.));
#1628=DIRECTION('ref_axis',(-1.,0.,0.));
#1629=DIRECTION('center_axis',(0.,0.,-1.));
#1630=DIRECTION('ref_axis',(1.,-1.22464679914735E-16,0.));
#1631=DIRECTION('center_axis',(0.,0.,-1.));
#1632=DIRECTION('ref_axis',(-1.,0.,0.));
#1633=DIRECTION('center_axis',(0.,0.,-1.));
#1634=DIRECTION('ref_axis',(-1.,0.,0.));
#1635=DIRECTION('center_axis',(-1.,0.,0.));
#1636=DIRECTION('ref_axis',(0.,0.,1.));
#1637=DIRECTION('',(0.,0.,1.));
#1638=DIRECTION('center_axis',(-1.,0.,0.));
#1639=DIRECTION('ref_axis',(0.,-1.,0.));
#1640=DIRECTION('',(0.,0.,1.));
#1641=DIRECTION('',(0.,-1.,0.));
#1642=DIRECTION('',(0.,-1.,0.));
#1643=DIRECTION('center_axis',(0.,0.,1.));
#1644=DIRECTION('ref_axis',(1.,0.,0.));
#1645=DIRECTION('center_axis',(0.,0.,1.));
#1646=DIRECTION('ref_axis',(1.,0.,0.));
#1647=DIRECTION('center_axis',(0.,-1.,0.));
#1648=DIRECTION('ref_axis',(1.,0.,0.));
#1649=DIRECTION('',(-1.,0.,0.));
#1650=DIRECTION('',(0.,0.,1.));
#1651=DIRECTION('center_axis',(0.,0.,1.));
#1652=DIRECTION('ref_axis',(1.,0.,0.));
#1653=DIRECTION('',(0.,1.,0.));
#1654=DIRECTION('center_axis',(0.,0.,1.));
#1655=DIRECTION('ref_axis',(1.,0.,0.));
#1656=DIRECTION('center_axis',(-1.,0.,0.));
#1657=DIRECTION('ref_axis',(0.,-1.,0.));
#1658=DIRECTION('',(0.,0.,1.));
#1659=DIRECTION('',(0.,-1.,0.));
#1660=DIRECTION('',(0.,0.,1.));
#1661=DIRECTION('center_axis',(-4.44089209850063E-16,1.,0.));
#1662=DIRECTION('ref_axis',(-1.,-4.44089209850063E-16,0.));
#1663=DIRECTION('',(-1.,-4.44089209850063E-16,0.));
#1664=DIRECTION('',(0.,0.,1.));
#1665=DIRECTION('center_axis',(1.,0.,0.));
#1666=DIRECTION('ref_axis',(0.,1.,0.));
#1667=DIRECTION('',(0.,1.,0.));
#1668=DIRECTION('',(0.,0.,1.));
#1669=DIRECTION('center_axis',(0.,1.,0.));
#1670=DIRECTION('ref_axis',(-1.,0.,0.));
#1671=DIRECTION('',(-1.,0.,0.));
#1672=DIRECTION('center_axis',(0.,1.,0.));
#1673=DIRECTION('ref_axis',(-1.,0.,0.));
#1674=DIRECTION('',(0.,0.,-1.));
#1675=DIRECTION('',(-1.,0.,0.));
#1676=DIRECTION('center_axis',(0.,0.,1.));
#1677=DIRECTION('ref_axis',(1.,0.,0.));
#1678=DIRECTION('',(0.,1.,0.));
#1679=DIRECTION('center_axis',(1.,0.,0.));
#1680=DIRECTION('ref_axis',(0.,1.,0.));
#1681=CARTESIAN_POINT('',(0.,0.,0.));
#1682=CARTESIAN_POINT('Origin',(0.749999999999999,19.125,12.17));
#1683=CARTESIAN_POINT('',(0.,3.6,11.42));
#1684=CARTESIAN_POINT('',(1.5,2.1,12.92));
#1685=CARTESIAN_POINT('',(-3.64083333333333,7.24083333333333,7.77916666666666));
#1686=CARTESIAN_POINT('',(1.5,23.4,12.92));
#1687=CARTESIAN_POINT('',(1.5,19.125,12.92));
#1688=CARTESIAN_POINT('',(0.,21.9,11.42));
#1689=CARTESIAN_POINT('',(-1.51583333333333,20.3841666666667,9.90416666666666));
#1690=CARTESIAN_POINT('',(0.,19.125,11.42));
#1691=CARTESIAN_POINT('Origin',(0.,25.5,0.));
#1692=CARTESIAN_POINT('',(0.,21.9,0.));
#1693=CARTESIAN_POINT('',(0.,21.9,0.));
#1694=CARTESIAN_POINT('',(0.,3.6,0.));
#1695=CARTESIAN_POINT('',(0.,25.5,0.));
#1696=CARTESIAN_POINT('',(0.,3.6,0.));
#1697=CARTESIAN_POINT('',(0.,5.25,1.5));
#1698=CARTESIAN_POINT('',(0.,20.25,1.5));
#1699=CARTESIAN_POINT('',(0.,22.875,1.5));
#1700=CARTESIAN_POINT('',(0.,20.25,2.5));
#1701=CARTESIAN_POINT('',(0.,20.25,1.25));
#1702=CARTESIAN_POINT('',(0.,5.25,2.5));
#1703=CARTESIAN_POINT('',(0.,15.375,2.5));
#1704=CARTESIAN_POINT('',(0.,5.25,0.75));
#1705=CARTESIAN_POINT('Origin',(1.8,23.7,0.));
#1706=CARTESIAN_POINT('',(3.6,25.5,12.92));
#1707=CARTESIAN_POINT('',(-0.937499999999999,20.9625,12.92));
#1708=CARTESIAN_POINT('',(3.6,25.5,5.42));
#1709=CARTESIAN_POINT('',(3.6,25.5,5.42));
#1710=CARTESIAN_POINT('',(3.6,25.5,0.));
#1711=CARTESIAN_POINT('',(3.6,25.5,0.));
#1712=CARTESIAN_POINT('',(1.8,23.7,0.));
#1713=CARTESIAN_POINT('Origin',(24.75,6.375,12.17));
#1714=CARTESIAN_POINT('',(25.5,21.9,11.42));
#1715=CARTESIAN_POINT('',(24.,23.4,12.92));
#1716=CARTESIAN_POINT('',(29.1408333333333,18.2591666666667,7.77916666666667));
#1717=CARTESIAN_POINT('',(24.,2.1,12.92));
#1718=CARTESIAN_POINT('',(24.,6.375,12.92));
#1719=CARTESIAN_POINT('',(25.5,3.6,11.42));
#1720=CARTESIAN_POINT('',(27.0158333333333,5.11583333333334,9.90416666666667));
#1721=CARTESIAN_POINT('',(25.5,6.375,11.42));
#1722=CARTESIAN_POINT('Origin',(23.7,12.75,12.92));
#1723=CARTESIAN_POINT('',(21.9,25.5,12.92));
#1724=CARTESIAN_POINT('',(26.4375,20.9625,12.92));
#1725=CARTESIAN_POINT('',(21.9,18.0016664022004,12.92));
#1726=CARTESIAN_POINT('',(21.9,0.,12.92));
#1727=CARTESIAN_POINT('',(21.9,7.49833359779965,12.92));
#1728=CARTESIAN_POINT('Origin',(12.75,12.75,12.92));
#1729=CARTESIAN_POINT('',(21.9,0.,12.92));
#1730=CARTESIAN_POINT('',(21.9,0.,12.92));
#1731=CARTESIAN_POINT('',(26.4375,4.5375,12.92));
#1732=CARTESIAN_POINT('Origin',(23.7,23.7,0.));
#1733=CARTESIAN_POINT('',(25.5,21.9,0.));
#1734=CARTESIAN_POINT('',(25.5,21.9,0.));
#1735=CARTESIAN_POINT('',(21.9,25.5,0.));
#1736=CARTESIAN_POINT('',(23.7,23.7,0.));
#1737=CARTESIAN_POINT('',(21.9,25.5,5.42));
#1738=CARTESIAN_POINT('',(21.9,25.5,0.));
#1739=CARTESIAN_POINT('',(21.9,25.5,5.42));
#1740=CARTESIAN_POINT('Origin',(7.9,18.775,5.07));
#1741=CARTESIAN_POINT('',(8.25,25.5,4.72));
#1742=CARTESIAN_POINT('',(7.55,25.5,5.42));
#1743=CARTESIAN_POINT('',(13.5675,25.5,-0.597500000000001));
#1744=CARTESIAN_POINT('',(7.55,24.1,5.42));
#1745=CARTESIAN_POINT('',(7.55,18.775,5.42));
#1746=CARTESIAN_POINT('',(8.25,24.1,4.72));
#1747=CARTESIAN_POINT('',(7.04875,24.1,5.92125));
#1748=CARTESIAN_POINT('',(8.25,18.775,4.72));
#1749=CARTESIAN_POINT('Origin',(2.875,12.75,5.42));
#1750=CARTESIAN_POINT('',(5.75,25.5,5.42));
#1751=CARTESIAN_POINT('',(3.6,24.1,5.42));
#1752=CARTESIAN_POINT('',(3.6,6.375,5.42));
#1753=CARTESIAN_POINT('',(3.6,24.1,5.42));
#1754=CARTESIAN_POINT('Origin',(25.5,25.5,0.));
#1755=CARTESIAN_POINT('',(8.25,25.5,1.7));
#1756=CARTESIAN_POINT('',(8.25,25.5,1.));
#1757=CARTESIAN_POINT('',(8.95,25.5,1.));
#1758=CARTESIAN_POINT('',(13.1625,25.5,-3.2125));
#1759=CARTESIAN_POINT('',(16.55,25.5,1.));
#1760=CARTESIAN_POINT('',(25.5,25.5,1.));
#1761=CARTESIAN_POINT('',(17.25,25.5,1.7));
#1762=CARTESIAN_POINT('',(18.7125,25.5,3.1625));
#1763=CARTESIAN_POINT('',(17.25,25.5,4.72));
#1764=CARTESIAN_POINT('',(17.25,25.5,1.));
#1765=CARTESIAN_POINT('',(17.95,25.5,5.42));
#1766=CARTESIAN_POINT('',(18.3075,25.5,5.7775));
#1767=CARTESIAN_POINT('',(21.8,25.5,5.42));
#1768=CARTESIAN_POINT('',(25.5,25.5,0.));
#1769=CARTESIAN_POINT('Origin',(17.6,18.775,5.07));
#1770=CARTESIAN_POINT('',(17.25,24.1,4.72));
#1771=CARTESIAN_POINT('',(17.25,18.775,4.72));
#1772=CARTESIAN_POINT('',(17.95,24.1,5.42));
#1773=CARTESIAN_POINT('',(17.91375,24.1,5.38375));
#1774=CARTESIAN_POINT('',(17.95,18.775,5.42));
#1775=CARTESIAN_POINT('Origin',(19.75,24.1,4.175));
#1776=CARTESIAN_POINT('',(17.25,24.1,1.7));
#1777=CARTESIAN_POINT('',(17.25,24.1,5.42));
#1778=CARTESIAN_POINT('',(16.55,24.1,1.));
#1779=CARTESIAN_POINT('',(18.31875,24.1,2.76875));
#1780=CARTESIAN_POINT('',(19.75,24.1,1.));
#1781=CARTESIAN_POINT('',(16.25,24.1,1.));
#1782=CARTESIAN_POINT('',(19.75,24.1,4.175));
#1783=CARTESIAN_POINT('',(19.75,24.1,1.));
#1784=CARTESIAN_POINT('',(21.9,24.1,4.175));
#1785=CARTESIAN_POINT('',(21.1875,24.1,4.175));
#1786=CARTESIAN_POINT('',(21.9,24.1,5.42));
#1787=CARTESIAN_POINT('',(21.9,24.1,4.175));
#1788=CARTESIAN_POINT('',(19.75,24.1,5.42));
#1789=CARTESIAN_POINT('Origin',(17.25,24.8,3.21));
#1790=CARTESIAN_POINT('',(17.25,18.775,1.7));
#1791=CARTESIAN_POINT('Origin',(16.9,18.775,1.35));
#1792=CARTESIAN_POINT('',(16.55,18.775,1.));
#1793=CARTESIAN_POINT('Origin',(8.6,18.775,1.35));
#1794=CARTESIAN_POINT('',(8.25,24.1,1.7));
#1795=CARTESIAN_POINT('',(8.95,24.1,1.));
#1796=CARTESIAN_POINT('',(6.64375,24.1,3.30625));
#1797=CARTESIAN_POINT('',(8.95,18.775,1.));
#1798=CARTESIAN_POINT('',(8.25,18.775,1.7));
#1799=CARTESIAN_POINT('Origin',(12.75,12.75,1.));
#1800=CARTESIAN_POINT('',(5.75,24.1,1.));
#1801=CARTESIAN_POINT('',(9.25,24.1,1.));
#1802=CARTESIAN_POINT('',(5.75,13.,1.));
#1803=CARTESIAN_POINT('',(5.75,6.375,1.));
#1804=CARTESIAN_POINT('',(10.25,13.,1.));
#1805=CARTESIAN_POINT('',(11.5,13.,1.));
#1806=CARTESIAN_POINT('',(10.25,17.9,1.));
#1807=CARTESIAN_POINT('',(10.25,15.325,1.));
#1808=CARTESIAN_POINT('',(15.25,17.9,1.));
#1809=CARTESIAN_POINT('',(14.,17.9,1.));
#1810=CARTESIAN_POINT('',(15.25,13.,1.));
#1811=CARTESIAN_POINT('',(15.25,12.875,1.));
#1812=CARTESIAN_POINT('',(19.75,13.,1.));
#1813=CARTESIAN_POINT('',(16.25,13.,1.));
#1814=CARTESIAN_POINT('',(19.75,19.125,1.));
#1815=CARTESIAN_POINT('',(7.4,15.265,1.));
#1816=CARTESIAN_POINT('Origin',(8.15,15.265,1.));
#1817=CARTESIAN_POINT('',(16.6,15.265,1.));
#1818=CARTESIAN_POINT('Origin',(17.35,15.265,1.));
#1819=CARTESIAN_POINT('Origin',(1.8,1.8,0.));
#1820=CARTESIAN_POINT('',(3.6,0.,0.));
#1821=CARTESIAN_POINT('',(1.8,1.8,0.));
#1822=CARTESIAN_POINT('',(3.6,1.20024110770285E-16,4.175));
#1823=CARTESIAN_POINT('',(3.6,0.,0.));
#1824=CARTESIAN_POINT('',(3.6,0.,12.92));
#1825=CARTESIAN_POINT('',(3.6,1.20024110770285E-16,4.175));
#1826=CARTESIAN_POINT('',(-0.9375,4.5375,12.92));
#1827=CARTESIAN_POINT('Origin',(0.,0.,0.));
#1828=CARTESIAN_POINT('',(21.9,0.,0.));
#1829=CARTESIAN_POINT('',(0.,0.,0.));
#1830=CARTESIAN_POINT('',(21.9,0.,4.175));
#1831=CARTESIAN_POINT('',(21.9,0.,0.));
#1832=CARTESIAN_POINT('',(19.75,0.,4.175));
#1833=CARTESIAN_POINT('',(25.5,0.,4.175));
#1834=CARTESIAN_POINT('',(19.75,0.,2.5));
#1835=CARTESIAN_POINT('',(19.75,6.16297582203915E-32,1.));
#1836=CARTESIAN_POINT('',(5.75,0.,2.5));
#1837=CARTESIAN_POINT('',(5.75,0.,2.5));
#1838=CARTESIAN_POINT('',(5.75,0.,4.175));
#1839=CARTESIAN_POINT('',(5.75,0.,1.));
#1840=CARTESIAN_POINT('',(5.75,0.,4.175));
#1841=CARTESIAN_POINT('Origin',(12.75,12.75,0.));
#1842=CARTESIAN_POINT('',(25.5,3.6,0.));
#1843=CARTESIAN_POINT('',(25.5,0.,0.));
#1844=CARTESIAN_POINT('',(23.7,1.8,0.));
#1845=CARTESIAN_POINT('',(7.4,15.265,0.));
#1846=CARTESIAN_POINT('Origin',(8.15,15.265,0.));
#1847=CARTESIAN_POINT('',(16.6,15.265,0.));
#1848=CARTESIAN_POINT('Origin',(17.35,15.265,0.));
#1849=CARTESIAN_POINT('Origin',(25.5,0.,0.));
#1850=CARTESIAN_POINT('',(25.5,3.6,0.));
#1851=CARTESIAN_POINT('',(25.5,20.25,1.5));
#1852=CARTESIAN_POINT('',(25.5,5.25,1.5));
#1853=CARTESIAN_POINT('',(25.5,10.125,1.5));
#1854=CARTESIAN_POINT('',(25.5,5.25,2.5));
#1855=CARTESIAN_POINT('',(25.5,5.25,0.75));
#1856=CARTESIAN_POINT('',(25.5,20.25,2.5));
#1857=CARTESIAN_POINT('',(25.5,2.625,2.5));
#1858=CARTESIAN_POINT('',(25.5,20.25,1.25));
#1859=CARTESIAN_POINT('Origin',(23.7,1.8,0.));
#1860=CARTESIAN_POINT('',(21.9,0.,4.175));
#1861=CARTESIAN_POINT('Origin',(3.725,8.27499999999999,6.16999999999995));
#1862=CARTESIAN_POINT('',(3.85,8.14999999999999,6.16999999999995));
#1863=CARTESIAN_POINT('',(3.85,8.14999999999999,5.66999999999995));
#1864=CARTESIAN_POINT('',(3.85,8.14999999999999,6.16999999999995));
#1865=CARTESIAN_POINT('',(3.6,8.39999999999999,5.41999999999995));
#1866=CARTESIAN_POINT('',(3.85,8.14999999999999,5.66999999999995));
#1867=CARTESIAN_POINT('',(3.6,8.39999999999999,6.41999999999995));
#1868=CARTESIAN_POINT('',(3.6,8.39999999999999,5.29749999999997));
#1869=CARTESIAN_POINT('',(3.85,8.14999999999999,6.16999999999995));
#1870=CARTESIAN_POINT('Origin',(3.725,6.39999999999999,5.54499999999995));
#1871=CARTESIAN_POINT('',(3.6,0.399999999999991,5.41999999999995));
#1872=CARTESIAN_POINT('',(3.6,4.2,5.41999999999995));
#1873=CARTESIAN_POINT('',(3.85,0.649999999999992,5.66999999999995));
#1874=CARTESIAN_POINT('',(3.85,6.39999999999999,5.66999999999995));
#1875=CARTESIAN_POINT('',(3.85,0.649999999999992,5.66999999999995));
#1876=CARTESIAN_POINT('Origin',(3.725,0.524999999999992,5.66999999999995));
#1877=CARTESIAN_POINT('',(3.6,0.399999999999991,6.41999999999995));
#1878=CARTESIAN_POINT('',(3.6,0.399999999999991,4.79749999999998));
#1879=CARTESIAN_POINT('',(3.85,0.649999999999992,6.16999999999995));
#1880=CARTESIAN_POINT('',(3.85,0.649999999999992,5.66999999999995));
#1881=CARTESIAN_POINT('',(3.85,0.649999999999992,6.16999999999995));
#1882=CARTESIAN_POINT('Origin',(3.725,2.39999999999999,6.29499999999995));
#1883=CARTESIAN_POINT('',(3.6,0.199999999999996,6.41999999999995));
#1884=CARTESIAN_POINT('',(3.85,2.39999999999999,6.16999999999995));
#1885=CARTESIAN_POINT('Origin',(3.85,4.39999999999999,5.91999999999995));
#1886=CARTESIAN_POINT('Origin',(0.,20.25,1.5));
#1887=CARTESIAN_POINT('',(0.449999999999999,5.25,1.5));
#1888=CARTESIAN_POINT('',(0.,5.25,1.5));
#1889=CARTESIAN_POINT('',(0.449999999999999,20.25,1.5));
#1890=CARTESIAN_POINT('',(0.449999999999999,5.25,1.5));
#1891=CARTESIAN_POINT('',(0.,20.25,1.5));
#1892=CARTESIAN_POINT('Origin',(0.,20.25,2.5));
#1893=CARTESIAN_POINT('',(0.449999999999999,20.25,2.5));
#1894=CARTESIAN_POINT('',(0.449999999999999,20.25,1.5));
#1895=CARTESIAN_POINT('',(0.,20.25,2.5));
#1896=CARTESIAN_POINT('Origin',(0.,5.25,2.5));
#1897=CARTESIAN_POINT('',(0.449999999999999,5.25,2.5));
#1898=CARTESIAN_POINT('',(0.449999999999999,20.25,2.5));
#1899=CARTESIAN_POINT('',(0.,5.25,2.5));
#1900=CARTESIAN_POINT('Origin',(0.,5.25,1.5));
#1901=CARTESIAN_POINT('',(0.449999999999999,5.25,2.5));
#1902=CARTESIAN_POINT('Origin',(0.449999999999999,12.75,2.));
#1903=CARTESIAN_POINT('Origin',(21.775,2.39999999999999,6.29499999999995));
#1904=CARTESIAN_POINT('',(21.65,8.14999999999999,6.16999999999995));
#1905=CARTESIAN_POINT('',(21.65,0.649999999999991,6.16999999999995));
#1906=CARTESIAN_POINT('',(21.65,2.39999999999999,6.16999999999995));
#1907=CARTESIAN_POINT('',(21.9,0.399999999999991,6.41999999999995));
#1908=CARTESIAN_POINT('',(21.65,0.649999999999991,6.16999999999995));
#1909=CARTESIAN_POINT('',(21.9,8.39999999999999,6.41999999999995));
#1910=CARTESIAN_POINT('',(21.9,12.25,6.41999999999995));
#1911=CARTESIAN_POINT('',(21.65,8.14999999999999,6.16999999999995));
#1912=CARTESIAN_POINT('Origin',(21.775,0.524999999999991,5.66999999999995));
#1913=CARTESIAN_POINT('',(21.65,0.649999999999992,5.66999999999995));
#1914=CARTESIAN_POINT('',(21.65,0.649999999999991,5.66999999999995));
#1915=CARTESIAN_POINT('',(21.9,0.399999999999991,5.41999999999995));
#1916=CARTESIAN_POINT('',(21.65,0.649999999999992,5.66999999999995));
#1917=CARTESIAN_POINT('',(21.9,0.399999999999991,4.79749999999998));
#1918=CARTESIAN_POINT('Origin',(21.775,6.39999999999999,5.54499999999995));
#1919=CARTESIAN_POINT('',(21.65,8.14999999999999,5.66999999999995));
#1920=CARTESIAN_POINT('',(21.65,6.39999999999999,5.66999999999995));
#1921=CARTESIAN_POINT('',(21.9,8.39999999999999,5.41999999999995));
#1922=CARTESIAN_POINT('',(21.65,8.14999999999999,5.66999999999995));
#1923=CARTESIAN_POINT('',(21.9,16.25,5.41999999999995));
#1924=CARTESIAN_POINT('Origin',(21.775,8.27499999999999,6.16999999999995));
#1925=CARTESIAN_POINT('',(21.9,8.39999999999999,5.29749999999997));
#1926=CARTESIAN_POINT('',(21.65,8.14999999999999,6.16999999999995));
#1927=CARTESIAN_POINT('Origin',(21.65,4.39999999999999,5.91999999999995));
#1928=CARTESIAN_POINT('Origin',(25.5,20.25,1.5));
#1929=CARTESIAN_POINT('',(25.05,20.25,1.5));
#1930=CARTESIAN_POINT('',(25.5,20.25,1.5));
#1931=CARTESIAN_POINT('',(25.05,5.25,1.5));
#1932=CARTESIAN_POINT('',(25.05,5.25,1.5));
#1933=CARTESIAN_POINT('',(25.5,5.25,1.5));
#1934=CARTESIAN_POINT('Origin',(25.5,20.25,2.5));
#1935=CARTESIAN_POINT('',(25.05,20.25,2.5));
#1936=CARTESIAN_POINT('',(25.5,20.25,2.5));
#1937=CARTESIAN_POINT('',(25.05,20.25,1.5));
#1938=CARTESIAN_POINT('Origin',(25.5,5.25,2.5));
#1939=CARTESIAN_POINT('',(25.05,5.25,2.5));
#1940=CARTESIAN_POINT('',(25.5,5.25,2.5));
#1941=CARTESIAN_POINT('',(25.05,20.25,2.5));
#1942=CARTESIAN_POINT('Origin',(25.5,5.25,1.5));
#1943=CARTESIAN_POINT('',(25.05,5.25,2.5));
#1944=CARTESIAN_POINT('Origin',(25.05,12.75,2.));
#1945=CARTESIAN_POINT('Origin',(17.35,15.265,0.));
#1946=CARTESIAN_POINT('',(16.6,15.265,0.));
#1947=CARTESIAN_POINT('Origin',(8.15,15.265,0.));
#1948=CARTESIAN_POINT('',(7.4,15.265,0.));
#1949=CARTESIAN_POINT('Origin',(12.75,12.75,9.57));
#1950=CARTESIAN_POINT('',(3.6,15.6547375096556,9.57));
#1951=CARTESIAN_POINT('',(3.6,9.84526249034438,9.57));
#1952=CARTESIAN_POINT('',(3.6,6.375,9.57));
#1953=CARTESIAN_POINT('Origin',(12.75,12.75,9.57));
#1954=CARTESIAN_POINT('Origin',(12.75,12.75,9.57));
#1955=CARTESIAN_POINT('',(21.9,9.84526249034449,9.57));
#1956=CARTESIAN_POINT('',(21.9,15.6547375096555,9.57));
#1957=CARTESIAN_POINT('',(21.9,18.425,9.57));
#1958=CARTESIAN_POINT('Origin',(12.75,12.75,9.57));
#1959=CARTESIAN_POINT('Origin',(12.75,12.75,11.72));
#1960=CARTESIAN_POINT('',(3.6,15.6547375096556,11.72));
#1961=CARTESIAN_POINT('',(3.6,15.6547375096556,11.72));
#1962=CARTESIAN_POINT('',(3.6,9.84526249034438,11.72));
#1963=CARTESIAN_POINT('Origin',(12.75,12.75,11.72));
#1964=CARTESIAN_POINT('',(3.6,9.84526249034438,11.72));
#1965=CARTESIAN_POINT('Origin',(12.75,12.75,11.72));
#1966=CARTESIAN_POINT('',(21.9,9.84526249034449,11.72));
#1967=CARTESIAN_POINT('',(21.9,9.84526249034449,11.72));
#1968=CARTESIAN_POINT('',(21.9,15.6547375096555,11.72));
#1969=CARTESIAN_POINT('Origin',(12.75,12.75,11.72));
#1970=CARTESIAN_POINT('',(21.9,15.6547375096555,11.72));
#1971=CARTESIAN_POINT('Origin',(21.9,24.1,4.175));
#1972=CARTESIAN_POINT('',(21.9,18.0016664022004,11.72));
#1973=CARTESIAN_POINT('',(21.9,18.425,11.72));
#1974=CARTESIAN_POINT('',(21.9,18.0016664022004,12.92));
#1975=CARTESIAN_POINT('',(21.9,19.125,5.42));
#1976=CARTESIAN_POINT('',(21.9,18.425,4.175));
#1977=CARTESIAN_POINT('',(21.9,7.49833359779965,11.72));
#1978=CARTESIAN_POINT('',(21.9,7.49833359779965,12.92));
#1979=CARTESIAN_POINT('',(21.9,18.425,11.72));
#1980=CARTESIAN_POINT('Origin',(3.6,1.20024110770285E-16,4.175));
#1981=CARTESIAN_POINT('',(3.6,7.49833359779965,11.72));
#1982=CARTESIAN_POINT('',(3.6,6.375,11.72));
#1983=CARTESIAN_POINT('',(3.6,7.49833359779965,12.92));
#1984=CARTESIAN_POINT('',(3.6,7.49833359779965,12.92));
#1985=CARTESIAN_POINT('',(3.6,1.59349657652081E-15,12.92));
#1986=CARTESIAN_POINT('',(3.6,24.1,4.175));
#1987=CARTESIAN_POINT('',(3.6,6.375,4.175));
#1988=CARTESIAN_POINT('',(3.6,24.1,4.175));
#1989=CARTESIAN_POINT('',(3.6,18.0016664022004,12.92));
#1990=CARTESIAN_POINT('',(3.6,1.59349657652081E-15,12.92));
#1991=CARTESIAN_POINT('',(3.6,18.0016664022004,11.72));
#1992=CARTESIAN_POINT('',(3.6,18.0016664022004,12.92));
#1993=CARTESIAN_POINT('',(3.6,6.375,11.72));
#1994=CARTESIAN_POINT('Origin',(12.75,12.75,11.72));
#1995=CARTESIAN_POINT('Origin',(12.75,12.75,11.72));
#1996=CARTESIAN_POINT('Origin',(12.75,12.75,11.72));
#1997=CARTESIAN_POINT('Origin',(12.75,12.75,11.72));
#1998=CARTESIAN_POINT('Origin',(12.75,12.75,12.92));
#1999=CARTESIAN_POINT('Origin',(12.75,12.75,12.92));
#2000=CARTESIAN_POINT('Origin',(12.75,12.75,12.92));
#2001=CARTESIAN_POINT('Origin',(8.25,24.8,3.21));
#2002=CARTESIAN_POINT('',(8.25,24.1,5.42));
#2003=CARTESIAN_POINT('Origin',(19.75,25.5,1.));
#2004=CARTESIAN_POINT('',(19.75,13.,2.5));
#2005=CARTESIAN_POINT('',(19.75,13.,1.));
#2006=CARTESIAN_POINT('',(19.75,16.,2.5));
#2007=CARTESIAN_POINT('',(19.75,6.16297582203915E-32,4.175));
#2008=CARTESIAN_POINT('Origin',(1.8,12.75,12.92));
#2009=CARTESIAN_POINT('Origin',(22.625,12.75,5.42));
#2010=CARTESIAN_POINT('Origin',(3.6,24.1,4.175));
#2011=CARTESIAN_POINT('',(5.75,24.1,4.175));
#2012=CARTESIAN_POINT('',(3.2375,24.1,4.175));
#2013=CARTESIAN_POINT('',(5.75,24.1,1.));
#2014=CARTESIAN_POINT('Origin',(2.875,12.75,4.175));
#2015=CARTESIAN_POINT('',(5.75,25.5,4.175));
#2016=CARTESIAN_POINT('Origin',(22.625,12.75,4.175));
#2017=CARTESIAN_POINT('Origin',(10.25,17.9,1.));
#2018=CARTESIAN_POINT('',(10.25,13.,2.5));
#2019=CARTESIAN_POINT('',(10.25,13.,1.));
#2020=CARTESIAN_POINT('',(10.25,17.9,2.5));
#2021=CARTESIAN_POINT('',(10.25,13.,2.5));
#2022=CARTESIAN_POINT('',(10.25,17.9,1.));
#2023=CARTESIAN_POINT('Origin',(15.25,17.9,1.));
#2024=CARTESIAN_POINT('',(15.25,17.9,2.5));
#2025=CARTESIAN_POINT('',(15.25,17.9,2.5));
#2026=CARTESIAN_POINT('',(15.25,17.9,1.));
#2027=CARTESIAN_POINT('Origin',(15.25,13.,1.));
#2028=CARTESIAN_POINT('',(15.25,13.,2.5));
#2029=CARTESIAN_POINT('',(15.25,17.9,2.5));
#2030=CARTESIAN_POINT('',(15.25,13.,1.));
#2031=CARTESIAN_POINT('Origin',(19.75,13.,1.));
#2032=CARTESIAN_POINT('',(19.75,13.,2.5));
#2033=CARTESIAN_POINT('Origin',(10.25,13.,1.));
#2034=CARTESIAN_POINT('',(5.75,13.,2.5));
#2035=CARTESIAN_POINT('',(5.75,13.,1.));
#2036=CARTESIAN_POINT('',(19.75,13.,2.5));
#2037=CARTESIAN_POINT('Origin',(12.75,6.5,2.5));
#2038=CARTESIAN_POINT('',(5.75,3.25,2.5));
#2039=CARTESIAN_POINT('Origin',(5.75,0.,1.));
#2040=UNCERTAINTY_MEASURE_WITH_UNIT(LENGTH_MEASURE(0.01),#2044,
'DISTANCE_ACCURACY_VALUE',
'Maximum model space distance between geometric entities at asserted c
onnectivities');
#2041=UNCERTAINTY_MEASURE_WITH_UNIT(LENGTH_MEASURE(0.01),#2044,
'DISTANCE_ACCURACY_VALUE',
'Maximum model space distance between geometric entities at asserted c
onnectivities');
#2042=(
GEOMETRIC_REPRESENTATION_CONTEXT(3)
GLOBAL_UNCERTAINTY_ASSIGNED_CONTEXT((#2040))
GLOBAL_UNIT_ASSIGNED_CONTEXT((#2044,#2045,#2046))
REPRESENTATION_CONTEXT('','3D')
);
#2043=(
GEOMETRIC_REPRESENTATION_CONTEXT(3)
GLOBAL_UNCERTAINTY_ASSIGNED_CONTEXT((#2041))
GLOBAL_UNIT_ASSIGNED_CONTEXT((#2044,#2045,#2046))
REPRESENTATION_CONTEXT('','3D')
);
#2044=(
LENGTH_UNIT()
NAMED_UNIT(*)
SI_UNIT(.MILLI.,.METRE.)
);
#2045=(
NAMED_UNIT(*)
PLANE_ANGLE_UNIT()
SI_UNIT($,.RADIAN.)
);
#2046=(
NAMED_UNIT(*)
SI_UNIT($,.STERADIAN.)
SOLID_ANGLE_UNIT()
);
#2047=SHAPE_DEFINITION_REPRESENTATION(#2048,#2049);
#2048=PRODUCT_DEFINITION_SHAPE('',$,#2051);
#2049=SHAPE_REPRESENTATION('',(#1280),#2042);
#2050=PRODUCT_DEFINITION_CONTEXT('part definition',#2055,'design');
#2051=PRODUCT_DEFINITION('tinytouch-supermini-v2-bottom','tinytouch-supermini-v2-bottom',#2052,#2050);
#2052=PRODUCT_DEFINITION_FORMATION('',$,#2057);
#2053=PRODUCT_RELATED_PRODUCT_CATEGORY('tinytouch-supermini-v2-bottom','tinytouch-supermini-v2-bottom',(#2057));
#2054=APPLICATION_PROTOCOL_DEFINITION('international standard',
'automotive_design',2009,#2055);
#2055=APPLICATION_CONTEXT(
'Core Data for Automotive Mechanical Design Process');
#2056=PRODUCT_CONTEXT('part definition',#2055,'mechanical');
#2057=PRODUCT('tinytouch-supermini-v2-bottom','tinytouch-supermini-v2-bottom',$,(#2056));
#2058=PRESENTATION_STYLE_ASSIGNMENT((#2059));
#2059=SURFACE_STYLE_USAGE(.BOTH.,#2060);
#2060=SURFACE_SIDE_STYLE('',(#2061));
#2061=SURFACE_STYLE_FILL_AREA(#2062);
#2062=FILL_AREA_STYLE('',(#2063));
#2063=FILL_AREA_STYLE_COLOUR('',#2064);
#2064=COLOUR_RGB('',0.627450980392157,0.627450980392157,0.627450980392157);
ENDSEC;
END-ISO-10303-21;
