ISO-10303-21;
HEADER;
FILE_DESCRIPTION((''),'2;1');
FILE_NAME('tinytouch-v1-top.step','1970-01-01T00:00:00Z',(''),(''),'','','');

FILE_SCHEMA (('AP242_MANAGED_MODEL_BASED_3D_ENGINEERING_MIM_LF { 1 0 10303 442 3 1 4 }'));
ENDSEC;

DATA;
#10=SHAPE_REPRESENTATION_RELATIONSHIP('','',#893,#11);
#11=ADVANCED_BREP_SHAPE_REPRESENTATION('',(#891),#1505);
#12=CYLINDRICAL_SURFACE('',#904,0.002);
#13=CYLINDRICAL_SURFACE('',#908,0.002);
#14=CYLINDRICAL_SURFACE('',#911,0.002);
#15=CYLINDRICAL_SURFACE('',#915,0.0005);
#16=CYLINDRICAL_SURFACE('',#918,0.0005);
#17=CYLINDRICAL_SURFACE('',#922,0.000500000000000006);
#18=CYLINDRICAL_SURFACE('',#925,0.000500000000000007);
#19=CYLINDRICAL_SURFACE('',#928,0.002);
#20=CYLINDRICAL_SURFACE('',#934,0.00175);
#21=CYLINDRICAL_SURFACE('',#935,0.00175);
#22=CYLINDRICAL_SURFACE('',#951,0.0095);
#23=CYLINDRICAL_SURFACE('',#972,0.0005);
#24=CYLINDRICAL_SURFACE('',#973,0.0005);
#25=CYLINDRICAL_SURFACE('',#974,0.0005);
#26=CYLINDRICAL_SURFACE('',#975,0.0005);
#27=CYLINDRICAL_SURFACE('',#976,0.0005);
#28=CYLINDRICAL_SURFACE('',#977,0.0005);
#29=CYLINDRICAL_SURFACE('',#978,0.0005);
#30=CYLINDRICAL_SURFACE('',#979,0.0005);
#31=CYLINDRICAL_SURFACE('',#980,0.0005);
#32=CYLINDRICAL_SURFACE('',#981,0.0005);
#33=CIRCLE('',#898,0.00175);
#34=CIRCLE('',#899,0.00175);
#35=CIRCLE('',#901,0.00175);
#36=CIRCLE('',#902,0.00175);
#37=CIRCLE('',#905,0.002);
#38=CIRCLE('',#906,0.002);
#39=CIRCLE('',#909,0.002);
#40=CIRCLE('',#910,0.002);
#41=CIRCLE('',#912,0.002);
#42=CIRCLE('',#913,0.002);
#43=CIRCLE('',#916,0.0005);
#44=CIRCLE('',#917,0.0005);
#45=CIRCLE('',#919,0.0005);
#46=CIRCLE('',#920,0.0005);
#47=CIRCLE('',#923,0.000500000000000006);
#48=CIRCLE('',#924,0.000500000000000006);
#49=CIRCLE('',#926,0.000500000000000007);
#50=CIRCLE('',#927,0.000500000000000007);
#51=CIRCLE('',#929,0.002);
#52=CIRCLE('',#930,0.002);
#53=CIRCLE('',#938,0.0095);
#54=CIRCLE('',#939,0.0005);
#55=CIRCLE('',#940,0.0005);
#56=CIRCLE('',#941,0.0005);
#57=CIRCLE('',#942,0.0005);
#58=CIRCLE('',#943,0.0005);
#59=CIRCLE('',#944,0.0005);
#60=CIRCLE('',#945,0.0005);
#61=CIRCLE('',#946,0.0005);
#62=CIRCLE('',#947,0.0005);
#63=CIRCLE('',#948,0.0005);
#64=CIRCLE('',#950,0.0095);
#65=CIRCLE('',#953,0.0005);
#66=CIRCLE('',#954,0.0005);
#67=CIRCLE('',#955,0.0005);
#68=CIRCLE('',#956,0.0005);
#69=CIRCLE('',#961,0.0005);
#70=CIRCLE('',#962,0.0005);
#71=CIRCLE('',#963,0.0005);
#72=CIRCLE('',#967,0.0005);
#73=CIRCLE('',#968,0.0005);
#74=CIRCLE('',#969,0.0005);
#75=ORIENTED_EDGE('',*,*,#331,.F.);
#76=ORIENTED_EDGE('',*,*,#332,.T.);
#77=ORIENTED_EDGE('',*,*,#333,.T.);
#78=ORIENTED_EDGE('',*,*,#334,.T.);
#79=ORIENTED_EDGE('',*,*,#335,.T.);
#80=ORIENTED_EDGE('',*,*,#336,.F.);
#81=ORIENTED_EDGE('',*,*,#337,.T.);
#82=ORIENTED_EDGE('',*,*,#338,.T.);
#83=ORIENTED_EDGE('',*,*,#339,.F.);
#84=ORIENTED_EDGE('',*,*,#340,.T.);
#85=ORIENTED_EDGE('',*,*,#341,.T.);
#86=ORIENTED_EDGE('',*,*,#342,.F.);
#87=ORIENTED_EDGE('',*,*,#343,.F.);
#88=ORIENTED_EDGE('',*,*,#344,.T.);
#89=ORIENTED_EDGE('',*,*,#345,.F.);
#90=ORIENTED_EDGE('',*,*,#346,.T.);
#91=ORIENTED_EDGE('',*,*,#347,.F.);
#92=ORIENTED_EDGE('',*,*,#348,.F.);
#93=ORIENTED_EDGE('',*,*,#349,.T.);
#94=ORIENTED_EDGE('',*,*,#350,.T.);
#95=ORIENTED_EDGE('',*,*,#351,.F.);
#96=ORIENTED_EDGE('',*,*,#352,.F.);
#97=ORIENTED_EDGE('',*,*,#353,.T.);
#98=ORIENTED_EDGE('',*,*,#354,.T.);
#99=ORIENTED_EDGE('',*,*,#355,.T.);
#100=ORIENTED_EDGE('',*,*,#356,.T.);
#101=ORIENTED_EDGE('',*,*,#357,.F.);
#102=ORIENTED_EDGE('',*,*,#358,.T.);
#103=ORIENTED_EDGE('',*,*,#359,.F.);
#104=ORIENTED_EDGE('',*,*,#360,.F.);
#105=ORIENTED_EDGE('',*,*,#361,.T.);
#106=ORIENTED_EDGE('',*,*,#362,.T.);
#107=ORIENTED_EDGE('',*,*,#363,.F.);
#108=ORIENTED_EDGE('',*,*,#364,.T.);
#109=ORIENTED_EDGE('',*,*,#365,.F.);
#110=ORIENTED_EDGE('',*,*,#366,.F.);
#111=ORIENTED_EDGE('',*,*,#367,.F.);
#112=ORIENTED_EDGE('',*,*,#368,.T.);
#113=ORIENTED_EDGE('',*,*,#369,.F.);
#114=ORIENTED_EDGE('',*,*,#370,.F.);
#115=ORIENTED_EDGE('',*,*,#371,.T.);
#116=ORIENTED_EDGE('',*,*,#372,.T.);
#117=ORIENTED_EDGE('',*,*,#373,.T.);
#118=ORIENTED_EDGE('',*,*,#374,.F.);
#119=ORIENTED_EDGE('',*,*,#375,.F.);
#120=ORIENTED_EDGE('',*,*,#370,.T.);
#121=ORIENTED_EDGE('',*,*,#376,.F.);
#122=ORIENTED_EDGE('',*,*,#377,.F.);
#123=ORIENTED_EDGE('',*,*,#378,.T.);
#124=ORIENTED_EDGE('',*,*,#374,.T.);
#125=ORIENTED_EDGE('',*,*,#379,.T.);
#126=ORIENTED_EDGE('',*,*,#353,.F.);
#127=ORIENTED_EDGE('',*,*,#380,.F.);
#128=ORIENTED_EDGE('',*,*,#377,.T.);
#129=ORIENTED_EDGE('',*,*,#381,.T.);
#130=ORIENTED_EDGE('',*,*,#382,.F.);
#131=ORIENTED_EDGE('',*,*,#383,.F.);
#132=ORIENTED_EDGE('',*,*,#351,.T.);
#133=ORIENTED_EDGE('',*,*,#384,.T.);
#134=ORIENTED_EDGE('',*,*,#385,.F.);
#135=ORIENTED_EDGE('',*,*,#386,.F.);
#136=ORIENTED_EDGE('',*,*,#382,.T.);
#137=ORIENTED_EDGE('',*,*,#387,.F.);
#138=ORIENTED_EDGE('',*,*,#340,.F.);
#139=ORIENTED_EDGE('',*,*,#388,.T.);
#140=ORIENTED_EDGE('',*,*,#336,.T.);
#141=ORIENTED_EDGE('',*,*,#389,.F.);
#142=ORIENTED_EDGE('',*,*,#390,.F.);
#143=ORIENTED_EDGE('',*,*,#391,.T.);
#144=ORIENTED_EDGE('',*,*,#342,.T.);
#145=ORIENTED_EDGE('',*,*,#392,.F.);
#146=ORIENTED_EDGE('',*,*,#393,.T.);
#147=ORIENTED_EDGE('',*,*,#394,.T.);
#148=ORIENTED_EDGE('',*,*,#390,.T.);
#149=ORIENTED_EDGE('',*,*,#395,.F.);
#150=ORIENTED_EDGE('',*,*,#396,.F.);
#151=ORIENTED_EDGE('',*,*,#397,.F.);
#152=ORIENTED_EDGE('',*,*,#396,.T.);
#153=ORIENTED_EDGE('',*,*,#398,.F.);
#154=ORIENTED_EDGE('',*,*,#358,.F.);
#155=ORIENTED_EDGE('',*,*,#399,.F.);
#156=ORIENTED_EDGE('',*,*,#366,.T.);
#157=ORIENTED_EDGE('',*,*,#400,.F.);
#158=ORIENTED_EDGE('',*,*,#334,.F.);
#159=ORIENTED_EDGE('',*,*,#401,.T.);
#160=ORIENTED_EDGE('',*,*,#372,.F.);
#161=ORIENTED_EDGE('',*,*,#402,.F.);
#162=ORIENTED_EDGE('',*,*,#385,.T.);
#163=ORIENTED_EDGE('',*,*,#365,.T.);
#164=ORIENTED_EDGE('',*,*,#403,.T.);
#165=ORIENTED_EDGE('',*,*,#354,.F.);
#166=ORIENTED_EDGE('',*,*,#379,.F.);
#167=ORIENTED_EDGE('',*,*,#376,.T.);
#168=ORIENTED_EDGE('',*,*,#373,.F.);
#169=ORIENTED_EDGE('',*,*,#369,.T.);
#170=ORIENTED_EDGE('',*,*,#401,.F.);
#171=ORIENTED_EDGE('',*,*,#384,.F.);
#172=ORIENTED_EDGE('',*,*,#381,.F.);
#173=ORIENTED_EDGE('',*,*,#350,.F.);
#174=ORIENTED_EDGE('',*,*,#404,.F.);
#175=ORIENTED_EDGE('',*,*,#359,.T.);
#176=ORIENTED_EDGE('',*,*,#398,.T.);
#177=ORIENTED_EDGE('',*,*,#395,.T.);
#178=ORIENTED_EDGE('',*,*,#389,.T.);
#179=ORIENTED_EDGE('',*,*,#341,.F.);
#180=ORIENTED_EDGE('',*,*,#387,.T.);
#181=ORIENTED_EDGE('',*,*,#335,.F.);
#182=ORIENTED_EDGE('',*,*,#400,.T.);
#183=ORIENTED_EDGE('',*,*,#405,.T.);
#184=ORIENTED_EDGE('',*,*,#345,.T.);
#185=ORIENTED_EDGE('',*,*,#403,.F.);
#186=ORIENTED_EDGE('',*,*,#364,.F.);
#187=ORIENTED_EDGE('',*,*,#360,.T.);
#188=ORIENTED_EDGE('',*,*,#404,.T.);
#189=ORIENTED_EDGE('',*,*,#349,.F.);
#190=ORIENTED_EDGE('',*,*,#406,.F.);
#191=ORIENTED_EDGE('',*,*,#363,.T.);
#192=ORIENTED_EDGE('',*,*,#407,.T.);
#193=ORIENTED_EDGE('',*,*,#346,.F.);
#194=ORIENTED_EDGE('',*,*,#405,.F.);
#195=ORIENTED_EDGE('',*,*,#406,.T.);
#196=ORIENTED_EDGE('',*,*,#348,.T.);
#197=ORIENTED_EDGE('',*,*,#408,.F.);
#198=ORIENTED_EDGE('',*,*,#361,.F.);
#199=ORIENTED_EDGE('',*,*,#408,.T.);
#200=ORIENTED_EDGE('',*,*,#347,.T.);
#201=ORIENTED_EDGE('',*,*,#407,.F.);
#202=ORIENTED_EDGE('',*,*,#362,.F.);
#203=ORIENTED_EDGE('',*,*,#409,.T.);
#204=ORIENTED_EDGE('',*,*,#339,.T.);
#205=ORIENTED_EDGE('',*,*,#410,.T.);
#206=ORIENTED_EDGE('',*,*,#411,.T.);
#207=ORIENTED_EDGE('',*,*,#412,.T.);
#208=ORIENTED_EDGE('',*,*,#413,.F.);
#209=ORIENTED_EDGE('',*,*,#414,.T.);
#210=ORIENTED_EDGE('',*,*,#415,.F.);
#211=ORIENTED_EDGE('',*,*,#416,.T.);
#212=ORIENTED_EDGE('',*,*,#343,.T.);
#213=ORIENTED_EDGE('',*,*,#391,.F.);
#214=ORIENTED_EDGE('',*,*,#394,.F.);
#215=ORIENTED_EDGE('',*,*,#417,.T.);
#216=ORIENTED_EDGE('',*,*,#418,.T.);
#217=ORIENTED_EDGE('',*,*,#419,.T.);
#218=ORIENTED_EDGE('',*,*,#420,.F.);
#219=ORIENTED_EDGE('',*,*,#421,.T.);
#220=ORIENTED_EDGE('',*,*,#355,.F.);
#221=ORIENTED_EDGE('',*,*,#422,.T.);
#222=ORIENTED_EDGE('',*,*,#423,.T.);
#223=ORIENTED_EDGE('',*,*,#424,.T.);
#224=ORIENTED_EDGE('',*,*,#425,.F.);
#225=ORIENTED_EDGE('',*,*,#426,.T.);
#226=ORIENTED_EDGE('',*,*,#331,.T.);
#227=ORIENTED_EDGE('',*,*,#388,.F.);
#228=ORIENTED_EDGE('',*,*,#427,.F.);
#229=ORIENTED_EDGE('',*,*,#371,.F.);
#230=ORIENTED_EDGE('',*,*,#375,.T.);
#231=ORIENTED_EDGE('',*,*,#378,.F.);
#232=ORIENTED_EDGE('',*,*,#380,.T.);
#233=ORIENTED_EDGE('',*,*,#352,.T.);
#234=ORIENTED_EDGE('',*,*,#383,.T.);
#235=ORIENTED_EDGE('',*,*,#386,.T.);
#236=ORIENTED_EDGE('',*,*,#402,.T.);
#237=ORIENTED_EDGE('',*,*,#427,.T.);
#238=ORIENTED_EDGE('',*,*,#409,.F.);
#239=ORIENTED_EDGE('',*,*,#428,.F.);
#240=ORIENTED_EDGE('',*,*,#429,.T.);
#241=ORIENTED_EDGE('',*,*,#430,.F.);
#242=ORIENTED_EDGE('',*,*,#431,.T.);
#243=ORIENTED_EDGE('',*,*,#432,.T.);
#244=ORIENTED_EDGE('',*,*,#433,.T.);
#245=ORIENTED_EDGE('',*,*,#337,.F.);
#246=ORIENTED_EDGE('',*,*,#434,.T.);
#247=ORIENTED_EDGE('',*,*,#411,.F.);
#248=ORIENTED_EDGE('',*,*,#435,.T.);
#249=ORIENTED_EDGE('',*,*,#432,.F.);
#250=ORIENTED_EDGE('',*,*,#436,.T.);
#251=ORIENTED_EDGE('',*,*,#430,.T.);
#252=ORIENTED_EDGE('',*,*,#437,.T.);
#253=ORIENTED_EDGE('',*,*,#413,.T.);
#254=ORIENTED_EDGE('',*,*,#438,.T.);
#255=ORIENTED_EDGE('',*,*,#428,.T.);
#256=ORIENTED_EDGE('',*,*,#439,.T.);
#257=ORIENTED_EDGE('',*,*,#415,.T.);
#258=ORIENTED_EDGE('',*,*,#440,.T.);
#259=ORIENTED_EDGE('',*,*,#441,.F.);
#260=ORIENTED_EDGE('',*,*,#442,.T.);
#261=ORIENTED_EDGE('',*,*,#443,.T.);
#262=ORIENTED_EDGE('',*,*,#444,.T.);
#263=ORIENTED_EDGE('',*,*,#367,.T.);
#264=ORIENTED_EDGE('',*,*,#399,.T.);
#265=ORIENTED_EDGE('',*,*,#333,.F.);
#266=ORIENTED_EDGE('',*,*,#445,.T.);
#267=ORIENTED_EDGE('',*,*,#441,.T.);
#268=ORIENTED_EDGE('',*,*,#446,.T.);
#269=ORIENTED_EDGE('',*,*,#425,.T.);
#270=ORIENTED_EDGE('',*,*,#447,.T.);
#271=ORIENTED_EDGE('',*,*,#423,.F.);
#272=ORIENTED_EDGE('',*,*,#448,.T.);
#273=ORIENTED_EDGE('',*,*,#443,.F.);
#274=ORIENTED_EDGE('',*,*,#449,.T.);
#275=ORIENTED_EDGE('',*,*,#450,.F.);
#276=ORIENTED_EDGE('',*,*,#451,.T.);
#277=ORIENTED_EDGE('',*,*,#452,.T.);
#278=ORIENTED_EDGE('',*,*,#453,.T.);
#279=ORIENTED_EDGE('',*,*,#392,.T.);
#280=ORIENTED_EDGE('',*,*,#397,.T.);
#281=ORIENTED_EDGE('',*,*,#357,.T.);
#282=ORIENTED_EDGE('',*,*,#454,.T.);
#283=ORIENTED_EDGE('',*,*,#450,.T.);
#284=ORIENTED_EDGE('',*,*,#455,.T.);
#285=ORIENTED_EDGE('',*,*,#420,.T.);
#286=ORIENTED_EDGE('',*,*,#456,.T.);
#287=ORIENTED_EDGE('',*,*,#418,.F.);
#288=ORIENTED_EDGE('',*,*,#457,.T.);
#289=ORIENTED_EDGE('',*,*,#452,.F.);
#290=ORIENTED_EDGE('',*,*,#458,.T.);
#291=ORIENTED_EDGE('',*,*,#433,.F.);
#292=ORIENTED_EDGE('',*,*,#435,.F.);
#293=ORIENTED_EDGE('',*,*,#410,.F.);
#294=ORIENTED_EDGE('',*,*,#338,.F.);
#295=ORIENTED_EDGE('',*,*,#434,.F.);
#296=ORIENTED_EDGE('',*,*,#344,.F.);
#297=ORIENTED_EDGE('',*,*,#416,.F.);
#298=ORIENTED_EDGE('',*,*,#439,.F.);
#299=ORIENTED_EDGE('',*,*,#445,.F.);
#300=ORIENTED_EDGE('',*,*,#332,.F.);
#301=ORIENTED_EDGE('',*,*,#426,.F.);
#302=ORIENTED_EDGE('',*,*,#446,.F.);
#303=ORIENTED_EDGE('',*,*,#453,.F.);
#304=ORIENTED_EDGE('',*,*,#457,.F.);
#305=ORIENTED_EDGE('',*,*,#417,.F.);
#306=ORIENTED_EDGE('',*,*,#393,.F.);
#307=ORIENTED_EDGE('',*,*,#454,.F.);
#308=ORIENTED_EDGE('',*,*,#356,.F.);
#309=ORIENTED_EDGE('',*,*,#421,.F.);
#310=ORIENTED_EDGE('',*,*,#455,.F.);
#311=ORIENTED_EDGE('',*,*,#444,.F.);
#312=ORIENTED_EDGE('',*,*,#448,.F.);
#313=ORIENTED_EDGE('',*,*,#422,.F.);
#314=ORIENTED_EDGE('',*,*,#368,.F.);
#315=ORIENTED_EDGE('',*,*,#442,.F.);
#316=ORIENTED_EDGE('',*,*,#447,.F.);
#317=ORIENTED_EDGE('',*,*,#424,.F.);
#318=ORIENTED_EDGE('',*,*,#449,.F.);
#319=ORIENTED_EDGE('',*,*,#451,.F.);
#320=ORIENTED_EDGE('',*,*,#456,.F.);
#321=ORIENTED_EDGE('',*,*,#419,.F.);
#322=ORIENTED_EDGE('',*,*,#458,.F.);
#323=ORIENTED_EDGE('',*,*,#429,.F.);
#324=ORIENTED_EDGE('',*,*,#440,.F.);
#325=ORIENTED_EDGE('',*,*,#414,.F.);
#326=ORIENTED_EDGE('',*,*,#437,.F.);
#327=ORIENTED_EDGE('',*,*,#431,.F.);
#328=ORIENTED_EDGE('',*,*,#438,.F.);
#329=ORIENTED_EDGE('',*,*,#412,.F.);
#330=ORIENTED_EDGE('',*,*,#436,.F.);
#331=EDGE_CURVE('',#459,#460,#545,.T.);
#332=EDGE_CURVE('',#459,#461,#546,.F.);
#333=EDGE_CURVE('',#461,#462,#547,.T.);
#334=EDGE_CURVE('',#462,#463,#548,.T.);
#335=EDGE_CURVE('',#463,#464,#549,.T.);
#336=EDGE_CURVE('',#460,#464,#550,.T.);
#337=EDGE_CURVE('',#465,#466,#551,.T.);
#338=EDGE_CURVE('',#466,#467,#552,.T.);
#339=EDGE_CURVE('',#468,#467,#553,.T.);
#340=EDGE_CURVE('',#468,#469,#554,.T.);
#341=EDGE_CURVE('',#469,#470,#555,.T.);
#342=EDGE_CURVE('',#471,#470,#556,.T.);
#343=EDGE_CURVE('',#472,#471,#557,.T.);
#344=EDGE_CURVE('',#472,#465,#558,.F.);
#345=EDGE_CURVE('',#473,#474,#559,.T.);
#346=EDGE_CURVE('',#473,#475,#33,.T.);
#347=EDGE_CURVE('',#476,#475,#560,.T.);
#348=EDGE_CURVE('',#477,#476,#34,.T.);
#349=EDGE_CURVE('',#477,#478,#561,.T.);
#350=EDGE_CURVE('',#478,#479,#562,.T.);
#351=EDGE_CURVE('',#480,#479,#563,.T.);
#352=EDGE_CURVE('',#481,#480,#564,.T.);
#353=EDGE_CURVE('',#481,#482,#565,.T.);
#354=EDGE_CURVE('',#482,#474,#566,.T.);
#355=EDGE_CURVE('',#483,#484,#567,.T.);
#356=EDGE_CURVE('',#484,#485,#568,.F.);
#357=EDGE_CURVE('',#486,#485,#569,.T.);
#358=EDGE_CURVE('',#486,#487,#570,.T.);
#359=EDGE_CURVE('',#488,#487,#571,.T.);
#360=EDGE_CURVE('',#489,#488,#572,.T.);
#361=EDGE_CURVE('',#489,#490,#35,.F.);
#362=EDGE_CURVE('',#490,#491,#573,.T.);
#363=EDGE_CURVE('',#492,#491,#36,.T.);
#364=EDGE_CURVE('',#492,#493,#574,.T.);
#365=EDGE_CURVE('',#494,#493,#575,.T.);
#366=EDGE_CURVE('',#495,#494,#576,.T.);
#367=EDGE_CURVE('',#496,#495,#577,.T.);
#368=EDGE_CURVE('',#496,#483,#578,.T.);
#369=EDGE_CURVE('',#497,#498,#579,.T.);
#370=EDGE_CURVE('',#499,#497,#580,.T.);
#371=EDGE_CURVE('',#499,#500,#581,.T.);
#372=EDGE_CURVE('',#500,#498,#582,.T.);
#373=EDGE_CURVE('',#497,#501,#37,.T.);
#374=EDGE_CURVE('',#502,#501,#583,.T.);
#375=EDGE_CURVE('',#499,#502,#38,.T.);
#376=EDGE_CURVE('',#503,#501,#584,.T.);
#377=EDGE_CURVE('',#504,#503,#585,.T.);
#378=EDGE_CURVE('',#504,#502,#586,.T.);
#379=EDGE_CURVE('',#503,#482,#39,.T.);
#380=EDGE_CURVE('',#504,#481,#40,.T.);
#381=EDGE_CURVE('',#479,#505,#41,.T.);
#382=EDGE_CURVE('',#506,#505,#587,.T.);
#383=EDGE_CURVE('',#480,#506,#42,.T.);
#384=EDGE_CURVE('',#505,#507,#588,.T.);
#385=EDGE_CURVE('',#508,#507,#589,.T.);
#386=EDGE_CURVE('',#506,#508,#590,.T.);
#387=EDGE_CURVE('',#469,#464,#43,.T.);
#388=EDGE_CURVE('',#468,#460,#44,.T.);
#389=EDGE_CURVE('',#509,#470,#45,.T.);
#390=EDGE_CURVE('',#510,#509,#591,.T.);
#391=EDGE_CURVE('',#510,#471,#46,.T.);
#392=EDGE_CURVE('',#511,#512,#592,.T.);
#393=EDGE_CURVE('',#511,#513,#593,.T.);
#394=EDGE_CURVE('',#513,#510,#594,.T.);
#395=EDGE_CURVE('',#514,#509,#595,.T.);
#396=EDGE_CURVE('',#512,#514,#596,.T.);
#397=EDGE_CURVE('',#512,#486,#47,.F.);
#398=EDGE_CURVE('',#487,#514,#48,.T.);
#399=EDGE_CURVE('',#495,#462,#49,.F.);
#400=EDGE_CURVE('',#463,#494,#50,.T.);
#401=EDGE_CURVE('',#507,#498,#51,.T.);
#402=EDGE_CURVE('',#508,#500,#52,.T.);
#403=EDGE_CURVE('',#493,#474,#597,.T.);
#404=EDGE_CURVE('',#488,#478,#598,.T.);
#405=EDGE_CURVE('',#492,#473,#599,.T.);
#406=EDGE_CURVE('',#489,#477,#600,.T.);
#407=EDGE_CURVE('',#491,#475,#601,.T.);
#408=EDGE_CURVE('',#490,#476,#602,.T.);
#409=EDGE_CURVE('',#515,#515,#53,.T.);
#410=EDGE_CURVE('',#467,#516,#54,.F.);
#411=EDGE_CURVE('',#516,#517,#603,.T.);
#412=EDGE_CURVE('',#517,#518,#55,.T.);
#413=EDGE_CURVE('',#519,#518,#604,.T.);
#414=EDGE_CURVE('',#519,#520,#56,.T.);
#415=EDGE_CURVE('',#521,#520,#605,.T.);
#416=EDGE_CURVE('',#521,#472,#57,.F.);
#417=EDGE_CURVE('',#513,#522,#58,.F.);
#418=EDGE_CURVE('',#522,#523,#606,.T.);
#419=EDGE_CURVE('',#523,#524,#59,.T.);
#420=EDGE_CURVE('',#525,#524,#607,.T.);
#421=EDGE_CURVE('',#525,#484,#60,.F.);
#422=EDGE_CURVE('',#483,#526,#61,.F.);
#423=EDGE_CURVE('',#526,#527,#608,.T.);
#424=EDGE_CURVE('',#527,#528,#62,.T.);
#425=EDGE_CURVE('',#529,#528,#609,.T.);
#426=EDGE_CURVE('',#529,#459,#63,.F.);
#427=EDGE_CURVE('',#530,#530,#64,.T.);
#428=EDGE_CURVE('',#531,#532,#610,.T.);
#429=EDGE_CURVE('',#531,#533,#65,.F.);
#430=EDGE_CURVE('',#534,#533,#611,.T.);
#431=EDGE_CURVE('',#534,#535,#66,.F.);
#432=EDGE_CURVE('',#535,#536,#612,.T.);
#433=EDGE_CURVE('',#536,#466,#67,.T.);
#434=EDGE_CURVE('',#465,#532,#68,.T.);
#435=EDGE_CURVE('',#516,#536,#613,.F.);
#436=EDGE_CURVE('',#535,#517,#614,.T.);
#437=EDGE_CURVE('',#533,#519,#615,.T.);
#438=EDGE_CURVE('',#518,#534,#616,.F.);
#439=EDGE_CURVE('',#532,#521,#617,.T.);
#440=EDGE_CURVE('',#520,#531,#618,.F.);
#441=EDGE_CURVE('',#537,#538,#619,.T.);
#442=EDGE_CURVE('',#537,#539,#69,.F.);
#443=EDGE_CURVE('',#539,#540,#620,.T.);
#444=EDGE_CURVE('',#540,#496,#70,.T.);
#445=EDGE_CURVE('',#461,#538,#71,.T.);
#446=EDGE_CURVE('',#538,#529,#621,.T.);
#447=EDGE_CURVE('',#528,#537,#622,.F.);
#448=EDGE_CURVE('',#526,#540,#623,.F.);
#449=EDGE_CURVE('',#539,#527,#624,.T.);
#450=EDGE_CURVE('',#541,#542,#625,.T.);
#451=EDGE_CURVE('',#541,#543,#72,.F.);
#452=EDGE_CURVE('',#543,#544,#626,.T.);
#453=EDGE_CURVE('',#544,#511,#73,.T.);
#454=EDGE_CURVE('',#485,#542,#74,.T.);
#455=EDGE_CURVE('',#542,#525,#627,.T.);
#456=EDGE_CURVE('',#524,#541,#628,.F.);
#457=EDGE_CURVE('',#522,#544,#629,.F.);
#458=EDGE_CURVE('',#543,#523,#630,.T.);
#459=VERTEX_POINT('',#1247);
#460=VERTEX_POINT('',#1248);
#461=VERTEX_POINT('',#1250);
#462=VERTEX_POINT('',#1252);
#463=VERTEX_POINT('',#1254);
#464=VERTEX_POINT('',#1256);
#465=VERTEX_POINT('',#1260);
#466=VERTEX_POINT('',#1261);
#467=VERTEX_POINT('',#1263);
#468=VERTEX_POINT('',#1265);
#469=VERTEX_POINT('',#1267);
#470=VERTEX_POINT('',#1269);
#471=VERTEX_POINT('',#1271);
#472=VERTEX_POINT('',#1273);
#473=VERTEX_POINT('',#1277);
#474=VERTEX_POINT('',#1278);
#475=VERTEX_POINT('',#1280);
#476=VERTEX_POINT('',#1282);
#477=VERTEX_POINT('',#1284);
#478=VERTEX_POINT('',#1286);
#479=VERTEX_POINT('',#1288);
#480=VERTEX_POINT('',#1290);
#481=VERTEX_POINT('',#1292);
#482=VERTEX_POINT('',#1294);
#483=VERTEX_POINT('',#1298);
#484=VERTEX_POINT('',#1299);
#485=VERTEX_POINT('',#1301);
#486=VERTEX_POINT('',#1303);
#487=VERTEX_POINT('',#1305);
#488=VERTEX_POINT('',#1307);
#489=VERTEX_POINT('',#1309);
#490=VERTEX_POINT('',#1311);
#491=VERTEX_POINT('',#1313);
#492=VERTEX_POINT('',#1315);
#493=VERTEX_POINT('',#1317);
#494=VERTEX_POINT('',#1319);
#495=VERTEX_POINT('',#1321);
#496=VERTEX_POINT('',#1323);
#497=VERTEX_POINT('',#1327);
#498=VERTEX_POINT('',#1328);
#499=VERTEX_POINT('',#1330);
#500=VERTEX_POINT('',#1332);
#501=VERTEX_POINT('',#1336);
#502=VERTEX_POINT('',#1338);
#503=VERTEX_POINT('',#1342);
#504=VERTEX_POINT('',#1344);
#505=VERTEX_POINT('',#1351);
#506=VERTEX_POINT('',#1353);
#507=VERTEX_POINT('',#1357);
#508=VERTEX_POINT('',#1359);
#509=VERTEX_POINT('',#1366);
#510=VERTEX_POINT('',#1368);
#511=VERTEX_POINT('',#1372);
#512=VERTEX_POINT('',#1373);
#513=VERTEX_POINT('',#1375);
#514=VERTEX_POINT('',#1378);
#515=VERTEX_POINT('',#1403);
#516=VERTEX_POINT('',#1405);
#517=VERTEX_POINT('',#1407);
#518=VERTEX_POINT('',#1409);
#519=VERTEX_POINT('',#1411);
#520=VERTEX_POINT('',#1413);
#521=VERTEX_POINT('',#1415);
#522=VERTEX_POINT('',#1418);
#523=VERTEX_POINT('',#1420);
#524=VERTEX_POINT('',#1422);
#525=VERTEX_POINT('',#1424);
#526=VERTEX_POINT('',#1427);
#527=VERTEX_POINT('',#1429);
#528=VERTEX_POINT('',#1431);
#529=VERTEX_POINT('',#1433);
#530=VERTEX_POINT('',#1437);
#531=VERTEX_POINT('',#1441);
#532=VERTEX_POINT('',#1442);
#533=VERTEX_POINT('',#1444);
#534=VERTEX_POINT('',#1446);
#535=VERTEX_POINT('',#1448);
#536=VERTEX_POINT('',#1450);
#537=VERTEX_POINT('',#1464);
#538=VERTEX_POINT('',#1465);
#539=VERTEX_POINT('',#1467);
#540=VERTEX_POINT('',#1469);
#541=VERTEX_POINT('',#1480);
#542=VERTEX_POINT('',#1481);
#543=VERTEX_POINT('',#1483);
#544=VERTEX_POINT('',#1485);
#545=LINE('',#1246,#631);
#546=LINE('',#1249,#632);
#547=LINE('',#1251,#633);
#548=LINE('',#1253,#634);
#549=LINE('',#1255,#635);
#550=LINE('',#1257,#636);
#551=LINE('',#1259,#637);
#552=LINE('',#1262,#638);
#553=LINE('',#1264,#639);
#554=LINE('',#1266,#640);
#555=LINE('',#1268,#641);
#556=LINE('',#1270,#642);
#557=LINE('',#1272,#643);
#558=LINE('',#1274,#644);
#559=LINE('',#1276,#645);
#560=LINE('',#1281,#646);
#561=LINE('',#1285,#647);
#562=LINE('',#1287,#648);
#563=LINE('',#1289,#649);
#564=LINE('',#1291,#650);
#565=LINE('',#1293,#651);
#566=LINE('',#1295,#652);
#567=LINE('',#1297,#653);
#568=LINE('',#1300,#654);
#569=LINE('',#1302,#655);
#570=LINE('',#1304,#656);
#571=LINE('',#1306,#657);
#572=LINE('',#1308,#658);
#573=LINE('',#1312,#659);
#574=LINE('',#1316,#660);
#575=LINE('',#1318,#661);
#576=LINE('',#1320,#662);
#577=LINE('',#1322,#663);
#578=LINE('',#1324,#664);
#579=LINE('',#1326,#665);
#580=LINE('',#1329,#666);
#581=LINE('',#1331,#667);
#582=LINE('',#1333,#668);
#583=LINE('',#1337,#669);
#584=LINE('',#1341,#670);
#585=LINE('',#1343,#671);
#586=LINE('',#1345,#672);
#587=LINE('',#1352,#673);
#588=LINE('',#1356,#674);
#589=LINE('',#1358,#675);
#590=LINE('',#1360,#676);
#591=LINE('',#1367,#677);
#592=LINE('',#1371,#678);
#593=LINE('',#1374,#679);
#594=LINE('',#1376,#680);
#595=LINE('',#1377,#681);
#596=LINE('',#1379,#682);
#597=LINE('',#1390,#683);
#598=LINE('',#1391,#684);
#599=LINE('',#1393,#685);
#600=LINE('',#1395,#686);
#601=LINE('',#1397,#687);
#602=LINE('',#1399,#688);
#603=LINE('',#1406,#689);
#604=LINE('',#1410,#690);
#605=LINE('',#1414,#691);
#606=LINE('',#1419,#692);
#607=LINE('',#1423,#693);
#608=LINE('',#1428,#694);
#609=LINE('',#1432,#695);
#610=LINE('',#1440,#696);
#611=LINE('',#1445,#697);
#612=LINE('',#1449,#698);
#613=LINE('',#1454,#699);
#614=LINE('',#1455,#700);
#615=LINE('',#1457,#701);
#616=LINE('',#1458,#702);
#617=LINE('',#1460,#703);
#618=LINE('',#1461,#704);
#619=LINE('',#1463,#705);
#620=LINE('',#1468,#706);
#621=LINE('',#1473,#707);
#622=LINE('',#1474,#708);
#623=LINE('',#1476,#709);
#624=LINE('',#1477,#710);
#625=LINE('',#1479,#711);
#626=LINE('',#1484,#712);
#627=LINE('',#1489,#713);
#628=LINE('',#1490,#714);
#629=LINE('',#1492,#715);
#630=LINE('',#1493,#716);
#631=VECTOR('',#986,1.);
#632=VECTOR('',#987,1.);
#633=VECTOR('',#988,1.);
#634=VECTOR('',#989,1.);
#635=VECTOR('',#990,1.);
#636=VECTOR('',#991,1.);
#637=VECTOR('',#994,1.);
#638=VECTOR('',#995,1.);
#639=VECTOR('',#996,1.);
#640=VECTOR('',#997,1.);
#641=VECTOR('',#998,1.);
#642=VECTOR('',#999,1.);
#643=VECTOR('',#1000,1.);
#644=VECTOR('',#1001,1.);
#645=VECTOR('',#1004,1.);
#646=VECTOR('',#1007,1.);
#647=VECTOR('',#1010,1.);
#648=VECTOR('',#1011,1.);
#649=VECTOR('',#1012,1.);
#650=VECTOR('',#1013,1.);
#651=VECTOR('',#1014,1.);
#652=VECTOR('',#1015,1.);
#653=VECTOR('',#1018,1.);
#654=VECTOR('',#1019,1.);
#655=VECTOR('',#1020,1.);
#656=VECTOR('',#1021,1.);
#657=VECTOR('',#1022,1.);
#658=VECTOR('',#1023,1.);
#659=VECTOR('',#1026,1.);
#660=VECTOR('',#1029,1.);
#661=VECTOR('',#1030,1.);
#662=VECTOR('',#1031,1.);
#663=VECTOR('',#1032,1.);
#664=VECTOR('',#1033,1.);
#665=VECTOR('',#1036,1.);
#666=VECTOR('',#1037,1.);
#667=VECTOR('',#1038,1.);
#668=VECTOR('',#1039,1.);
#669=VECTOR('',#1044,1.);
#670=VECTOR('',#1049,1.);
#671=VECTOR('',#1050,1.);
#672=VECTOR('',#1051,1.);
#673=VECTOR('',#1062,1.);
#674=VECTOR('',#1067,1.);
#675=VECTOR('',#1068,1.);
#676=VECTOR('',#1069,1.);
#677=VECTOR('',#1080,1.);
#678=VECTOR('',#1085,1.);
#679=VECTOR('',#1086,1.);
#680=VECTOR('',#1087,1.);
#681=VECTOR('',#1088,1.);
#682=VECTOR('',#1089,1.);
#683=VECTOR('',#1110,1.);
#684=VECTOR('',#1111,1.);
#685=VECTOR('',#1114,1.);
#686=VECTOR('',#1117,1.);
#687=VECTOR('',#1120,1.);
#688=VECTOR('',#1123,1.);
#689=VECTOR('',#1132,1.);
#690=VECTOR('',#1135,1.);
#691=VECTOR('',#1138,1.);
#692=VECTOR('',#1143,1.);
#693=VECTOR('',#1146,1.);
#694=VECTOR('',#1151,1.);
#695=VECTOR('',#1154,1.);
#696=VECTOR('',#1165,1.);
#697=VECTOR('',#1168,1.);
#698=VECTOR('',#1171,1.);
#699=VECTOR('',#1178,1.);
#700=VECTOR('',#1179,1.);
#701=VECTOR('',#1182,1.);
#702=VECTOR('',#1183,1.);
#703=VECTOR('',#1186,1.);
#704=VECTOR('',#1187,1.);
#705=VECTOR('',#1190,1.);
#706=VECTOR('',#1193,1.);
#707=VECTOR('',#1200,1.);
#708=VECTOR('',#1201,1.);
#709=VECTOR('',#1204,1.);
#710=VECTOR('',#1205,1.);
#711=VECTOR('',#1208,1.);
#712=VECTOR('',#1211,1.);
#713=VECTOR('',#1218,1.);
#714=VECTOR('',#1219,1.);
#715=VECTOR('',#1222,1.);
#716=VECTOR('',#1223,1.);
#717=EDGE_LOOP('',(#75,#76,#77,#78,#79,#80));
#718=EDGE_LOOP('',(#81,#82,#83,#84,#85,#86,#87,#88));
#719=EDGE_LOOP('',(#89,#90,#91,#92,#93,#94,#95,#96,#97,#98));
#720=EDGE_LOOP('',(#99,#100,#101,#102,#103,#104,#105,#106,#107,#108,#109,
#110,#111,#112));
#721=EDGE_LOOP('',(#113,#114,#115,#116));
#722=EDGE_LOOP('',(#117,#118,#119,#120));
#723=EDGE_LOOP('',(#121,#122,#123,#124));
#724=EDGE_LOOP('',(#125,#126,#127,#128));
#725=EDGE_LOOP('',(#129,#130,#131,#132));
#726=EDGE_LOOP('',(#133,#134,#135,#136));
#727=EDGE_LOOP('',(#137,#138,#139,#140));
#728=EDGE_LOOP('',(#141,#142,#143,#144));
#729=EDGE_LOOP('',(#145,#146,#147,#148,#149,#150));
#730=EDGE_LOOP('',(#151,#152,#153,#154));
#731=EDGE_LOOP('',(#155,#156,#157,#158));
#732=EDGE_LOOP('',(#159,#160,#161,#162));
#733=EDGE_LOOP('',(#163,#164,#165,#166,#167,#168,#169,#170,#171,#172,#173,
#174,#175,#176,#177,#178,#179,#180,#181,#182));
#734=EDGE_LOOP('',(#183,#184,#185,#186));
#735=EDGE_LOOP('',(#187,#188,#189,#190));
#736=EDGE_LOOP('',(#191,#192,#193,#194));
#737=EDGE_LOOP('',(#195,#196,#197,#198));
#738=EDGE_LOOP('',(#199,#200,#201,#202));
#739=EDGE_LOOP('',(#203));
#740=EDGE_LOOP('',(#204,#205,#206,#207,#208,#209,#210,#211,#212,#213,#214,
#215,#216,#217,#218,#219,#220,#221,#222,#223,#224,#225,#226,#227));
#741=EDGE_LOOP('',(#228));
#742=EDGE_LOOP('',(#229,#230,#231,#232,#233,#234,#235,#236));
#743=EDGE_LOOP('',(#237));
#744=EDGE_LOOP('',(#238));
#745=EDGE_LOOP('',(#239,#240,#241,#242,#243,#244,#245,#246));
#746=EDGE_LOOP('',(#247,#248,#249,#250));
#747=EDGE_LOOP('',(#251,#252,#253,#254));
#748=EDGE_LOOP('',(#255,#256,#257,#258));
#749=EDGE_LOOP('',(#259,#260,#261,#262,#263,#264,#265,#266));
#750=EDGE_LOOP('',(#267,#268,#269,#270));
#751=EDGE_LOOP('',(#271,#272,#273,#274));
#752=EDGE_LOOP('',(#275,#276,#277,#278,#279,#280,#281,#282));
#753=EDGE_LOOP('',(#283,#284,#285,#286));
#754=EDGE_LOOP('',(#287,#288,#289,#290));
#755=EDGE_LOOP('',(#291,#292,#293,#294));
#756=EDGE_LOOP('',(#295,#296,#297,#298));
#757=EDGE_LOOP('',(#299,#300,#301,#302));
#758=EDGE_LOOP('',(#303,#304,#305,#306));
#759=EDGE_LOOP('',(#307,#308,#309,#310));
#760=EDGE_LOOP('',(#311,#312,#313,#314));
#761=EDGE_LOOP('',(#315,#316,#317,#318));
#762=EDGE_LOOP('',(#319,#320,#321,#322));
#763=EDGE_LOOP('',(#323,#324,#325,#326));
#764=EDGE_LOOP('',(#327,#328,#329,#330));
#765=FACE_BOUND('',#717,.T.);
#766=FACE_BOUND('',#718,.T.);
#767=FACE_BOUND('',#719,.T.);
#768=FACE_BOUND('',#720,.T.);
#769=FACE_BOUND('',#721,.T.);
#770=FACE_BOUND('',#722,.T.);
#771=FACE_BOUND('',#723,.T.);
#772=FACE_BOUND('',#724,.T.);
#773=FACE_BOUND('',#725,.T.);
#774=FACE_BOUND('',#726,.T.);
#775=FACE_BOUND('',#727,.T.);
#776=FACE_BOUND('',#728,.T.);
#777=FACE_BOUND('',#729,.T.);
#778=FACE_BOUND('',#730,.T.);
#779=FACE_BOUND('',#731,.T.);
#780=FACE_BOUND('',#732,.T.);
#781=FACE_BOUND('',#733,.T.);
#782=FACE_BOUND('',#734,.T.);
#783=FACE_BOUND('',#735,.T.);
#784=FACE_BOUND('',#736,.T.);
#785=FACE_BOUND('',#737,.T.);
#786=FACE_BOUND('',#738,.T.);
#787=FACE_BOUND('',#739,.T.);
#788=FACE_BOUND('',#740,.T.);
#789=FACE_BOUND('',#741,.T.);
#790=FACE_BOUND('',#742,.T.);
#791=FACE_BOUND('',#743,.T.);
#792=FACE_BOUND('',#744,.T.);
#793=FACE_BOUND('',#745,.T.);
#794=FACE_BOUND('',#746,.T.);
#795=FACE_BOUND('',#747,.T.);
#796=FACE_BOUND('',#748,.T.);
#797=FACE_BOUND('',#749,.T.);
#798=FACE_BOUND('',#750,.T.);
#799=FACE_BOUND('',#751,.T.);
#800=FACE_BOUND('',#752,.T.);
#801=FACE_BOUND('',#753,.T.);
#802=FACE_BOUND('',#754,.T.);
#803=FACE_BOUND('',#755,.T.);
#804=FACE_BOUND('',#756,.T.);
#805=FACE_BOUND('',#757,.T.);
#806=FACE_BOUND('',#758,.T.);
#807=FACE_BOUND('',#759,.T.);
#808=FACE_BOUND('',#760,.T.);
#809=FACE_BOUND('',#761,.T.);
#810=FACE_BOUND('',#762,.T.);
#811=FACE_BOUND('',#763,.T.);
#812=FACE_BOUND('',#764,.T.);
#813=PLANE('',#895);
#814=PLANE('',#896);
#815=PLANE('',#897);
#816=PLANE('',#900);
#817=PLANE('',#903);
#818=PLANE('',#907);
#819=PLANE('',#914);
#820=PLANE('',#921);
#821=PLANE('',#931);
#822=PLANE('',#932);
#823=PLANE('',#933);
#824=PLANE('',#936);
#825=PLANE('',#937);
#826=PLANE('',#949);
#827=PLANE('',#952);
#828=PLANE('',#957);
#829=PLANE('',#958);
#830=PLANE('',#959);
#831=PLANE('',#960);
#832=PLANE('',#964);
#833=PLANE('',#965);
#834=PLANE('',#966);
#835=PLANE('',#970);
#836=PLANE('',#971);
#837=ADVANCED_FACE('',(#765),#813,.F.);
#838=ADVANCED_FACE('',(#766),#814,.F.);
#839=ADVANCED_FACE('',(#767),#815,.F.);
#840=ADVANCED_FACE('',(#768),#816,.T.);
#841=ADVANCED_FACE('',(#769),#817,.T.);
#842=ADVANCED_FACE('',(#770),#12,.T.);
#843=ADVANCED_FACE('',(#771),#818,.T.);
#844=ADVANCED_FACE('',(#772),#13,.T.);
#845=ADVANCED_FACE('',(#773),#14,.T.);
#846=ADVANCED_FACE('',(#774),#819,.F.);
#847=ADVANCED_FACE('',(#775),#15,.F.);
#848=ADVANCED_FACE('',(#776),#16,.F.);
#849=ADVANCED_FACE('',(#777),#820,.T.);
#850=ADVANCED_FACE('',(#778),#17,.F.);
#851=ADVANCED_FACE('',(#779),#18,.F.);
#852=ADVANCED_FACE('',(#780),#19,.T.);
#853=ADVANCED_FACE('',(#781),#821,.F.);
#854=ADVANCED_FACE('',(#782),#822,.F.);
#855=ADVANCED_FACE('',(#783),#823,.T.);
#856=ADVANCED_FACE('',(#784),#20,.F.);
#857=ADVANCED_FACE('',(#785),#21,.F.);
#858=ADVANCED_FACE('',(#786),#824,.F.);
#859=ADVANCED_FACE('',(#787,#788),#825,.F.);
#860=ADVANCED_FACE('',(#789,#790),#826,.T.);
#861=ADVANCED_FACE('',(#791,#792),#22,.F.);
#862=ADVANCED_FACE('',(#793),#827,.F.);
#863=ADVANCED_FACE('',(#794),#828,.T.);
#864=ADVANCED_FACE('',(#795),#829,.F.);
#865=ADVANCED_FACE('',(#796),#830,.F.);
#866=ADVANCED_FACE('',(#797),#831,.F.);
#867=ADVANCED_FACE('',(#798),#832,.F.);
#868=ADVANCED_FACE('',(#799),#833,.T.);
#869=ADVANCED_FACE('',(#800),#834,.F.);
#870=ADVANCED_FACE('',(#801),#835,.F.);
#871=ADVANCED_FACE('',(#802),#836,.T.);
#872=ADVANCED_FACE('',(#803),#23,.F.);
#873=ADVANCED_FACE('',(#804),#24,.F.);
#874=ADVANCED_FACE('',(#805),#25,.F.);
#875=ADVANCED_FACE('',(#806),#26,.F.);
#876=ADVANCED_FACE('',(#807),#27,.F.);
#877=ADVANCED_FACE('',(#808),#28,.F.);
#878=ADVANCED_FACE('',(#809),#29,.T.);
#879=ADVANCED_FACE('',(#810),#30,.T.);
#880=ADVANCED_FACE('',(#811),#31,.T.);
#881=ADVANCED_FACE('',(#812),#32,.T.);
#882=CLOSED_SHELL('',(#837,#838,#839,#840,#841,#842,#843,#844,#845,#846,
#847,#848,#849,#850,#851,#852,#853,#854,#855,#856,#857,#858,#859,#860,#861,
#862,#863,#864,#865,#866,#867,#868,#869,#870,#871,#872,#873,#874,#875,#876,
#877,#878,#879,#880,#881));
#883=STYLED_ITEM('',(#884),#891);
#884=PRESENTATION_STYLE_ASSIGNMENT((#885));
#885=SURFACE_STYLE_USAGE(.BOTH.,#886);
#886=SURFACE_SIDE_STYLE('',(#887));
#887=SURFACE_STYLE_FILL_AREA(#888);
#888=FILL_AREA_STYLE('',(#889));
#889=FILL_AREA_STYLE_COLOUR('',#890);
#890=COLOUR_RGB('',0.647058823529412,0.647058823529412,0.647058823529412);
#891=MANIFOLD_SOLID_BREP('tinytouch-v1-top',#882);
#892=SHAPE_DEFINITION_REPRESENTATION(#1510,#893);
#893=SHAPE_REPRESENTATION('tinytouch-v1-top',(#894),#1505);
#894=AXIS2_PLACEMENT_3D('',#1244,#982,#983);
#895=AXIS2_PLACEMENT_3D('',#1245,#984,#985);
#896=AXIS2_PLACEMENT_3D('',#1258,#992,#993);
#897=AXIS2_PLACEMENT_3D('',#1275,#1002,#1003);
#898=AXIS2_PLACEMENT_3D('',#1279,#1005,#1006);
#899=AXIS2_PLACEMENT_3D('',#1283,#1008,#1009);
#900=AXIS2_PLACEMENT_3D('',#1296,#1016,#1017);
#901=AXIS2_PLACEMENT_3D('',#1310,#1024,#1025);
#902=AXIS2_PLACEMENT_3D('',#1314,#1027,#1028);
#903=AXIS2_PLACEMENT_3D('',#1325,#1034,#1035);
#904=AXIS2_PLACEMENT_3D('',#1334,#1040,#1041);
#905=AXIS2_PLACEMENT_3D('',#1335,#1042,#1043);
#906=AXIS2_PLACEMENT_3D('',#1339,#1045,#1046);
#907=AXIS2_PLACEMENT_3D('',#1340,#1047,#1048);
#908=AXIS2_PLACEMENT_3D('',#1346,#1052,#1053);
#909=AXIS2_PLACEMENT_3D('',#1347,#1054,#1055);
#910=AXIS2_PLACEMENT_3D('',#1348,#1056,#1057);
#911=AXIS2_PLACEMENT_3D('',#1349,#1058,#1059);
#912=AXIS2_PLACEMENT_3D('',#1350,#1060,#1061);
#913=AXIS2_PLACEMENT_3D('',#1354,#1063,#1064);
#914=AXIS2_PLACEMENT_3D('',#1355,#1065,#1066);
#915=AXIS2_PLACEMENT_3D('',#1361,#1070,#1071);
#916=AXIS2_PLACEMENT_3D('',#1362,#1072,#1073);
#917=AXIS2_PLACEMENT_3D('',#1363,#1074,#1075);
#918=AXIS2_PLACEMENT_3D('',#1364,#1076,#1077);
#919=AXIS2_PLACEMENT_3D('',#1365,#1078,#1079);
#920=AXIS2_PLACEMENT_3D('',#1369,#1081,#1082);
#921=AXIS2_PLACEMENT_3D('',#1370,#1083,#1084);
#922=AXIS2_PLACEMENT_3D('',#1380,#1090,#1091);
#923=AXIS2_PLACEMENT_3D('',#1381,#1092,#1093);
#924=AXIS2_PLACEMENT_3D('',#1382,#1094,#1095);
#925=AXIS2_PLACEMENT_3D('',#1383,#1096,#1097);
#926=AXIS2_PLACEMENT_3D('',#1384,#1098,#1099);
#927=AXIS2_PLACEMENT_3D('',#1385,#1100,#1101);
#928=AXIS2_PLACEMENT_3D('',#1386,#1102,#1103);
#929=AXIS2_PLACEMENT_3D('',#1387,#1104,#1105);
#930=AXIS2_PLACEMENT_3D('',#1388,#1106,#1107);
#931=AXIS2_PLACEMENT_3D('',#1389,#1108,#1109);
#932=AXIS2_PLACEMENT_3D('',#1392,#1112,#1113);
#933=AXIS2_PLACEMENT_3D('',#1394,#1115,#1116);
#934=AXIS2_PLACEMENT_3D('',#1396,#1118,#1119);
#935=AXIS2_PLACEMENT_3D('',#1398,#1121,#1122);
#936=AXIS2_PLACEMENT_3D('',#1400,#1124,#1125);
#937=AXIS2_PLACEMENT_3D('',#1401,#1126,#1127);
#938=AXIS2_PLACEMENT_3D('',#1402,#1128,#1129);
#939=AXIS2_PLACEMENT_3D('',#1404,#1130,#1131);
#940=AXIS2_PLACEMENT_3D('',#1408,#1133,#1134);
#941=AXIS2_PLACEMENT_3D('',#1412,#1136,#1137);
#942=AXIS2_PLACEMENT_3D('',#1416,#1139,#1140);
#943=AXIS2_PLACEMENT_3D('',#1417,#1141,#1142);
#944=AXIS2_PLACEMENT_3D('',#1421,#1144,#1145);
#945=AXIS2_PLACEMENT_3D('',#1425,#1147,#1148);
#946=AXIS2_PLACEMENT_3D('',#1426,#1149,#1150);
#947=AXIS2_PLACEMENT_3D('',#1430,#1152,#1153);
#948=AXIS2_PLACEMENT_3D('',#1434,#1155,#1156);
#949=AXIS2_PLACEMENT_3D('',#1435,#1157,#1158);
#950=AXIS2_PLACEMENT_3D('',#1436,#1159,#1160);
#951=AXIS2_PLACEMENT_3D('',#1438,#1161,#1162);
#952=AXIS2_PLACEMENT_3D('',#1439,#1163,#1164);
#953=AXIS2_PLACEMENT_3D('',#1443,#1166,#1167);
#954=AXIS2_PLACEMENT_3D('',#1447,#1169,#1170);
#955=AXIS2_PLACEMENT_3D('',#1451,#1172,#1173);
#956=AXIS2_PLACEMENT_3D('',#1452,#1174,#1175);
#957=AXIS2_PLACEMENT_3D('',#1453,#1176,#1177);
#958=AXIS2_PLACEMENT_3D('',#1456,#1180,#1181);
#959=AXIS2_PLACEMENT_3D('',#1459,#1184,#1185);
#960=AXIS2_PLACEMENT_3D('',#1462,#1188,#1189);
#961=AXIS2_PLACEMENT_3D('',#1466,#1191,#1192);
#962=AXIS2_PLACEMENT_3D('',#1470,#1194,#1195);
#963=AXIS2_PLACEMENT_3D('',#1471,#1196,#1197);
#964=AXIS2_PLACEMENT_3D('',#1472,#1198,#1199);
#965=AXIS2_PLACEMENT_3D('',#1475,#1202,#1203);
#966=AXIS2_PLACEMENT_3D('',#1478,#1206,#1207);
#967=AXIS2_PLACEMENT_3D('',#1482,#1209,#1210);
#968=AXIS2_PLACEMENT_3D('',#1486,#1212,#1213);
#969=AXIS2_PLACEMENT_3D('',#1487,#1214,#1215);
#970=AXIS2_PLACEMENT_3D('',#1488,#1216,#1217);
#971=AXIS2_PLACEMENT_3D('',#1491,#1220,#1221);
#972=AXIS2_PLACEMENT_3D('',#1494,#1224,#1225);
#973=AXIS2_PLACEMENT_3D('',#1495,#1226,#1227);
#974=AXIS2_PLACEMENT_3D('',#1496,#1228,#1229);
#975=AXIS2_PLACEMENT_3D('',#1497,#1230,#1231);
#976=AXIS2_PLACEMENT_3D('',#1498,#1232,#1233);
#977=AXIS2_PLACEMENT_3D('',#1499,#1234,#1235);
#978=AXIS2_PLACEMENT_3D('',#1500,#1236,#1237);
#979=AXIS2_PLACEMENT_3D('',#1501,#1238,#1239);
#980=AXIS2_PLACEMENT_3D('',#1502,#1240,#1241);
#981=AXIS2_PLACEMENT_3D('',#1503,#1242,#1243);
#982=DIRECTION('',(0.,0.,1.));
#983=DIRECTION('',(1.,0.,0.));
#984=DIRECTION('',(1.,0.,-2.66880534765662E-16));
#985=DIRECTION('',(-2.66880534765662E-16,0.,-1.));
#986=DIRECTION('',(2.66880534765662E-16,0.,1.));
#987=DIRECTION('',(0.,1.,0.));
#988=DIRECTION('',(-2.66880534765662E-16,0.,-1.));
#989=DIRECTION('',(0.,-1.,0.));
#990=DIRECTION('',(2.66880534765662E-16,0.,1.));
#991=DIRECTION('',(0.,-1.,0.));
#992=DIRECTION('',(1.33440267382831E-16,0.,1.));
#993=DIRECTION('',(1.,0.,-1.33440267382831E-16));
#994=DIRECTION('',(1.,0.,-1.33440267382831E-16));
#995=DIRECTION('',(0.,1.,0.));
#996=DIRECTION('',(-1.,0.,1.33440267382831E-16));
#997=DIRECTION('',(0.,-1.,0.));
#998=DIRECTION('',(-1.,0.,1.33440267382831E-16));
#999=DIRECTION('',(0.,-1.,0.));
#1000=DIRECTION('',(-1.,0.,1.33440267382831E-16));
#1001=DIRECTION('',(0.,1.,0.));
#1002=DIRECTION('',(6.67201336914157E-17,0.,1.));
#1003=DIRECTION('',(1.,0.,-6.67201336914157E-17));
#1004=DIRECTION('',(0.,-1.,0.));
#1005=DIRECTION('',(6.67201336914157E-17,0.,1.));
#1006=DIRECTION('',(-1.,0.,6.67201336914157E-17));
#1007=DIRECTION('',(1.,0.,-6.67201336914157E-17));
#1008=DIRECTION('',(-6.67201336914157E-17,0.,-1.));
#1009=DIRECTION('',(-1.,0.,6.67201336914157E-17));
#1010=DIRECTION('',(-2.040851148208E-15,-1.,1.36165861452717E-31));
#1011=DIRECTION('',(-1.,0.,6.67201336914157E-17));
#1012=DIRECTION('',(0.,-1.,0.));
#1013=DIRECTION('',(-1.,0.,6.67201336914157E-17));
#1014=DIRECTION('',(0.,-1.,0.));
#1015=DIRECTION('',(-1.,0.,6.67201336914157E-17));
#1016=DIRECTION('',(6.67201336914157E-17,0.,1.));
#1017=DIRECTION('',(1.,0.,-6.67201336914157E-17));
#1018=DIRECTION('',(-1.,0.,6.67201336914157E-17));
#1019=DIRECTION('',(0.,1.,0.));
#1020=DIRECTION('',(1.,0.,-6.67201336914157E-17));
#1021=DIRECTION('',(0.,-1.,0.));
#1022=DIRECTION('',(-1.,0.,6.67201336914157E-17));
#1023=DIRECTION('',(-2.040851148208E-15,-1.,1.36165861452717E-31));
#1024=DIRECTION('',(6.67201336914157E-17,0.,1.));
#1025=DIRECTION('',(1.,0.,-6.67201336914157E-17));
#1026=DIRECTION('',(1.,0.,-6.67201336914157E-17));
#1027=DIRECTION('',(6.67201336914157E-17,0.,1.));
#1028=DIRECTION('',(1.,0.,-6.67201336914157E-17));
#1029=DIRECTION('',(0.,-1.,0.));
#1030=DIRECTION('',(-1.,0.,6.67201336914157E-17));
#1031=DIRECTION('',(0.,-1.,0.));
#1032=DIRECTION('',(1.,0.,-6.67201336914157E-17));
#1033=DIRECTION('',(0.,1.,0.));
#1034=DIRECTION('',(1.33440267382831E-16,0.,1.));
#1035=DIRECTION('',(1.,0.,-1.33440267382831E-16));
#1036=DIRECTION('',(-1.,0.,1.33440267382831E-16));
#1037=DIRECTION('',(0.,-1.,0.));
#1038=DIRECTION('',(-1.,0.,1.33440267382831E-16));
#1039=DIRECTION('',(0.,-1.,0.));
#1040=DIRECTION('',(0.,-1.,0.));
#1041=DIRECTION('',(-1.,0.,0.));
#1042=DIRECTION('',(0.,1.,0.));
#1043=DIRECTION('',(1.,0.,0.));
#1044=DIRECTION('',(0.,-1.,0.));
#1045=DIRECTION('',(0.,1.,0.));
#1046=DIRECTION('',(1.,0.,0.));
#1047=DIRECTION('',(1.,0.,-6.67201336914156E-17));
#1048=DIRECTION('',(-6.67201336914156E-17,0.,-1.));
#1049=DIRECTION('',(6.67201336914156E-17,0.,1.));
#1050=DIRECTION('',(0.,-1.,0.));
#1051=DIRECTION('',(6.67201336914156E-17,0.,1.));
#1052=DIRECTION('',(0.,-1.,0.));
#1053=DIRECTION('',(-1.,0.,0.));
#1054=DIRECTION('',(0.,1.,0.));
#1055=DIRECTION('',(1.,0.,0.));
#1056=DIRECTION('',(0.,1.,0.));
#1057=DIRECTION('',(1.,0.,0.));
#1058=DIRECTION('',(0.,-1.,0.));
#1059=DIRECTION('',(-1.,0.,0.));
#1060=DIRECTION('',(0.,1.,0.));
#1061=DIRECTION('',(1.,0.,0.));
#1062=DIRECTION('',(0.,-1.,0.));
#1063=DIRECTION('',(0.,1.,0.));
#1064=DIRECTION('',(1.,0.,0.));
#1065=DIRECTION('',(1.,0.,-6.67201336914156E-17));
#1066=DIRECTION('',(-6.67201336914156E-17,0.,-1.));
#1067=DIRECTION('',(6.67201336914156E-17,0.,1.));
#1068=DIRECTION('',(0.,-1.,0.));
#1069=DIRECTION('',(6.67201336914156E-17,0.,1.));
#1070=DIRECTION('',(0.,-1.,0.));
#1071=DIRECTION('',(-1.,0.,0.));
#1072=DIRECTION('',(0.,1.,0.));
#1073=DIRECTION('',(1.,0.,0.));
#1074=DIRECTION('',(0.,1.,0.));
#1075=DIRECTION('',(1.,0.,0.));
#1076=DIRECTION('',(0.,-1.,0.));
#1077=DIRECTION('',(-1.,0.,0.));
#1078=DIRECTION('',(0.,1.,0.));
#1079=DIRECTION('',(1.,0.,0.));
#1080=DIRECTION('',(0.,-1.,0.));
#1081=DIRECTION('',(0.,1.,0.));
#1082=DIRECTION('',(1.,0.,0.));
#1083=DIRECTION('',(1.,0.,-2.66880534765662E-16));
#1084=DIRECTION('',(-2.66880534765662E-16,0.,-1.));
#1085=DIRECTION('',(-2.66880534765662E-16,0.,-1.));
#1086=DIRECTION('',(0.,1.,0.));
#1087=DIRECTION('',(2.66880534765662E-16,0.,1.));
#1088=DIRECTION('',(2.66880534765662E-16,0.,1.));
#1089=DIRECTION('',(0.,-1.,0.));
#1090=DIRECTION('',(0.,-1.,0.));
#1091=DIRECTION('',(-1.,0.,0.));
#1092=DIRECTION('',(0.,1.,0.));
#1093=DIRECTION('',(1.,0.,0.));
#1094=DIRECTION('',(0.,1.,0.));
#1095=DIRECTION('',(1.,0.,0.));
#1096=DIRECTION('',(0.,-1.,0.));
#1097=DIRECTION('',(-1.,0.,0.));
#1098=DIRECTION('',(0.,1.,0.));
#1099=DIRECTION('',(1.,0.,0.));
#1100=DIRECTION('',(0.,1.,0.));
#1101=DIRECTION('',(1.,0.,0.));
#1102=DIRECTION('',(0.,-1.,0.));
#1103=DIRECTION('',(-1.,0.,0.));
#1104=DIRECTION('',(0.,1.,0.));
#1105=DIRECTION('',(1.,0.,0.));
#1106=DIRECTION('',(0.,1.,0.));
#1107=DIRECTION('',(1.,0.,0.));
#1108=DIRECTION('',(0.,1.,0.));
#1109=DIRECTION('',(1.,0.,0.));
#1110=DIRECTION('',(-6.67201336914157E-17,0.,-1.));
#1111=DIRECTION('',(-6.67201336914157E-17,0.,-1.));
#1112=DIRECTION('',(1.,0.,-6.67201336914157E-17));
#1113=DIRECTION('',(-6.67201336914157E-17,0.,-1.));
#1114=DIRECTION('',(-6.67201336914157E-17,0.,-1.));
#1115=DIRECTION('',(1.,-2.040851148208E-15,-6.67201336914157E-17));
#1116=DIRECTION('',(-2.040851148208E-15,-1.,0.));
#1117=DIRECTION('',(-6.67201336914157E-17,0.,-1.));
#1118=DIRECTION('',(-6.67201336914157E-17,0.,-1.));
#1119=DIRECTION('',(-1.,0.,6.67201336914157E-17));
#1120=DIRECTION('',(-6.67201336914157E-17,0.,-1.));
#1121=DIRECTION('',(-6.67201336914157E-17,0.,-1.));
#1122=DIRECTION('',(-1.,0.,6.67201336914157E-17));
#1123=DIRECTION('',(-6.67201336914157E-17,0.,-1.));
#1124=DIRECTION('',(0.,1.,0.));
#1125=DIRECTION('',(1.,0.,0.));
#1126=DIRECTION('',(0.,1.,0.));
#1127=DIRECTION('',(1.,0.,0.));
#1128=DIRECTION('',(0.,1.,0.));
#1129=DIRECTION('',(1.,0.,0.));
#1130=DIRECTION('',(0.,1.,0.));
#1131=DIRECTION('',(1.,0.,0.));
#1132=DIRECTION('',(-1.44560289664734E-16,0.,-1.));
#1133=DIRECTION('',(0.,1.,0.));
#1134=DIRECTION('',(1.,0.,0.));
#1135=DIRECTION('',(1.,0.,0.));
#1136=DIRECTION('',(0.,1.,0.));
#1137=DIRECTION('',(1.,0.,0.));
#1138=DIRECTION('',(-1.44560289664734E-16,0.,-1.));
#1139=DIRECTION('',(0.,1.,0.));
#1140=DIRECTION('',(1.,0.,0.));
#1141=DIRECTION('',(0.,1.,0.));
#1142=DIRECTION('',(1.,0.,0.));
#1143=DIRECTION('',(1.,0.,0.));
#1144=DIRECTION('',(0.,1.,0.));
#1145=DIRECTION('',(1.,0.,0.));
#1146=DIRECTION('',(0.,0.,1.));
#1147=DIRECTION('',(0.,1.,0.));
#1148=DIRECTION('',(1.,0.,0.));
#1149=DIRECTION('',(0.,1.,0.));
#1150=DIRECTION('',(1.,0.,0.));
#1151=DIRECTION('',(0.,0.,1.));
#1152=DIRECTION('',(0.,1.,0.));
#1153=DIRECTION('',(1.,0.,0.));
#1154=DIRECTION('',(-1.,0.,0.));
#1155=DIRECTION('',(0.,1.,0.));
#1156=DIRECTION('',(1.,0.,0.));
#1157=DIRECTION('',(0.,1.,0.));
#1158=DIRECTION('',(1.,0.,0.));
#1159=DIRECTION('',(0.,1.,0.));
#1160=DIRECTION('',(1.,0.,0.));
#1161=DIRECTION('',(0.,1.,0.));
#1162=DIRECTION('',(1.,0.,0.));
#1163=DIRECTION('',(0.,1.,0.));
#1164=DIRECTION('',(1.,0.,0.));
#1165=DIRECTION('',(1.44560289664734E-16,0.,1.));
#1166=DIRECTION('',(0.,1.,0.));
#1167=DIRECTION('',(1.,0.,0.));
#1168=DIRECTION('',(-1.,0.,0.));
#1169=DIRECTION('',(0.,1.,0.));
#1170=DIRECTION('',(1.,0.,0.));
#1171=DIRECTION('',(1.44560289664734E-16,0.,1.));
#1172=DIRECTION('',(0.,1.,0.));
#1173=DIRECTION('',(1.,0.,0.));
#1174=DIRECTION('',(0.,1.,0.));
#1175=DIRECTION('',(1.,0.,0.));
#1176=DIRECTION('',(1.,0.,-1.44560289664734E-16));
#1177=DIRECTION('',(-1.44560289664734E-16,0.,-1.));
#1178=DIRECTION('',(0.,1.,0.));
#1179=DIRECTION('',(0.,1.,0.));
#1180=DIRECTION('',(0.,0.,1.));
#1181=DIRECTION('',(0.,-1.,0.));
#1182=DIRECTION('',(0.,1.,0.));
#1183=DIRECTION('',(0.,1.,0.));
#1184=DIRECTION('',(1.,0.,-1.44560289664734E-16));
#1185=DIRECTION('',(-1.44560289664734E-16,0.,-1.));
#1186=DIRECTION('',(0.,1.,0.));
#1187=DIRECTION('',(0.,1.,0.));
#1188=DIRECTION('',(0.,1.,0.));
#1189=DIRECTION('',(1.,0.,0.));
#1190=DIRECTION('',(1.,0.,0.));
#1191=DIRECTION('',(0.,1.,0.));
#1192=DIRECTION('',(1.,0.,0.));
#1193=DIRECTION('',(0.,0.,-1.));
#1194=DIRECTION('',(0.,1.,0.));
#1195=DIRECTION('',(1.,0.,0.));
#1196=DIRECTION('',(0.,1.,0.));
#1197=DIRECTION('',(1.,0.,0.));
#1198=DIRECTION('',(0.,0.,-1.));
#1199=DIRECTION('',(0.,1.,0.));
#1200=DIRECTION('',(0.,1.,0.));
#1201=DIRECTION('',(0.,1.,0.));
#1202=DIRECTION('',(-1.,0.,0.));
#1203=DIRECTION('',(0.,1.,0.));
#1204=DIRECTION('',(0.,1.,0.));
#1205=DIRECTION('',(0.,1.,0.));
#1206=DIRECTION('',(0.,1.,0.));
#1207=DIRECTION('',(1.,0.,0.));
#1208=DIRECTION('',(0.,0.,-1.));
#1209=DIRECTION('',(0.,1.,0.));
#1210=DIRECTION('',(1.,0.,0.));
#1211=DIRECTION('',(-1.,0.,0.));
#1212=DIRECTION('',(0.,1.,0.));
#1213=DIRECTION('',(1.,0.,0.));
#1214=DIRECTION('',(0.,1.,0.));
#1215=DIRECTION('',(1.,0.,0.));
#1216=DIRECTION('',(-1.,0.,0.));
#1217=DIRECTION('',(0.,1.,0.));
#1218=DIRECTION('',(0.,1.,0.));
#1219=DIRECTION('',(0.,1.,0.));
#1220=DIRECTION('',(0.,0.,1.));
#1221=DIRECTION('',(0.,-1.,0.));
#1222=DIRECTION('',(0.,1.,0.));
#1223=DIRECTION('',(0.,1.,0.));
#1224=DIRECTION('',(0.,1.,0.));
#1225=DIRECTION('',(1.,0.,0.));
#1226=DIRECTION('',(0.,-1.,0.));
#1227=DIRECTION('',(-1.,0.,0.));
#1228=DIRECTION('',(0.,-1.,0.));
#1229=DIRECTION('',(-1.,0.,0.));
#1230=DIRECTION('',(0.,-1.,0.));
#1231=DIRECTION('',(-1.,0.,0.));
#1232=DIRECTION('',(0.,1.,0.));
#1233=DIRECTION('',(1.,0.,0.));
#1234=DIRECTION('',(0.,-1.,0.));
#1235=DIRECTION('',(-1.,0.,0.));
#1236=DIRECTION('',(0.,-1.,0.));
#1237=DIRECTION('',(-1.,0.,0.));
#1238=DIRECTION('',(0.,-1.,0.));
#1239=DIRECTION('',(-1.,0.,0.));
#1240=DIRECTION('',(0.,1.,0.));
#1241=DIRECTION('',(1.,0.,0.));
#1242=DIRECTION('',(0.,-1.,0.));
#1243=DIRECTION('',(-1.,0.,0.));
#1244=CARTESIAN_POINT('',(0.,0.,0.));
#1245=CARTESIAN_POINT('',(0.0135,0.01325,0.));
#1246=CARTESIAN_POINT('',(0.0135,0.01325,0.));
#1247=CARTESIAN_POINT('',(0.0135,0.01325,-0.0115));
#1248=CARTESIAN_POINT('',(0.0135,0.01325,0.013));
#1249=CARTESIAN_POINT('',(0.0135,0.0061,-0.0115));
#1250=CARTESIAN_POINT('',(0.0135,0.0061,-0.0115));
#1251=CARTESIAN_POINT('',(0.0135,0.0061,0.));
#1252=CARTESIAN_POINT('',(0.0135,0.0061,-0.013));
#1253=CARTESIAN_POINT('',(0.0135,0.01325,-0.013));
#1254=CARTESIAN_POINT('',(0.0135,0.,-0.013));
#1255=CARTESIAN_POINT('',(0.0135,0.,0.));
#1256=CARTESIAN_POINT('',(0.0135,0.,0.013));
#1257=CARTESIAN_POINT('',(0.0135,0.01325,0.013));
#1258=CARTESIAN_POINT('',(-1.7347234759768E-18,0.01325,0.0135));
#1259=CARTESIAN_POINT('',(-1.7347234759768E-18,0.0061,0.0135));
#1260=CARTESIAN_POINT('',(-0.002,0.0061,0.0135));
#1261=CARTESIAN_POINT('',(0.002,0.0061,0.0135));
#1262=CARTESIAN_POINT('',(0.002,0.01325,0.0135));
#1263=CARTESIAN_POINT('',(0.002,0.01325,0.0135));
#1264=CARTESIAN_POINT('',(-1.7347234759768E-18,0.01325,0.0135));
#1265=CARTESIAN_POINT('',(0.013,0.01325,0.0135));
#1266=CARTESIAN_POINT('',(0.013,0.01325,0.0135));
#1267=CARTESIAN_POINT('',(0.013,0.,0.0135));
#1268=CARTESIAN_POINT('',(-1.7347234759768E-18,0.,0.0135));
#1269=CARTESIAN_POINT('',(-0.013,0.,0.0135));
#1270=CARTESIAN_POINT('',(-0.013,0.01325,0.0135));
#1271=CARTESIAN_POINT('',(-0.013,0.01325,0.0135));
#1272=CARTESIAN_POINT('',(-1.7347234759768E-18,0.01325,0.0135));
#1273=CARTESIAN_POINT('',(-0.002,0.01325,0.0135));
#1274=CARTESIAN_POINT('',(-0.002,0.0061,0.0135));
#1275=CARTESIAN_POINT('',(-1.7347234759768E-18,0.01325,-0.015));
#1276=CARTESIAN_POINT('',(0.00497,0.00255,-0.015));
#1277=CARTESIAN_POINT('',(0.00497,0.00581,-0.015));
#1278=CARTESIAN_POINT('',(0.00497,0.,-0.015));
#1279=CARTESIAN_POINT('',(0.00322,0.00581,-0.015));
#1280=CARTESIAN_POINT('',(0.00322,0.00756,-0.015));
#1281=CARTESIAN_POINT('',(-0.00161,0.00756,-0.015));
#1282=CARTESIAN_POINT('',(-0.00322,0.00756,-0.015));
#1283=CARTESIAN_POINT('',(-0.00322,0.00581,-0.015));
#1284=CARTESIAN_POINT('',(-0.00497,0.00581,-0.015));
#1285=CARTESIAN_POINT('',(-0.00497,0.00255,-0.015));
#1286=CARTESIAN_POINT('',(-0.00497,0.,-0.015));
#1287=CARTESIAN_POINT('',(-1.7347234759768E-18,0.,-0.015));
#1288=CARTESIAN_POINT('',(-0.013,0.,-0.015));
#1289=CARTESIAN_POINT('',(-0.013,0.01325,-0.015));
#1290=CARTESIAN_POINT('',(-0.013,0.01525,-0.015));
#1291=CARTESIAN_POINT('',(-1.7347234759768E-18,0.01525,-0.015));
#1292=CARTESIAN_POINT('',(0.013,0.01525,-0.015));
#1293=CARTESIAN_POINT('',(0.013,0.01325,-0.015));
#1294=CARTESIAN_POINT('',(0.013,0.,-0.015));
#1295=CARTESIAN_POINT('',(-1.7347234759768E-18,0.,-0.015));
#1296=CARTESIAN_POINT('',(-8.67361737988404E-18,0.01325,-0.0135));
#1297=CARTESIAN_POINT('',(-8.67361737988404E-18,0.01325,-0.0135));
#1298=CARTESIAN_POINT('',(0.01,0.01325,-0.0135));
#1299=CARTESIAN_POINT('',(-0.01,0.01325,-0.0135));
#1300=CARTESIAN_POINT('',(-0.01,0.01325,-0.0135));
#1301=CARTESIAN_POINT('',(-0.01,0.0061,-0.0135));
#1302=CARTESIAN_POINT('',(-8.67361737988404E-18,0.0061,-0.0135));
#1303=CARTESIAN_POINT('',(-0.013,0.0061,-0.0135));
#1304=CARTESIAN_POINT('',(-0.013,0.01325,-0.0135));
#1305=CARTESIAN_POINT('',(-0.013,0.,-0.0135));
#1306=CARTESIAN_POINT('',(-8.67361737988404E-18,0.,-0.0135));
#1307=CARTESIAN_POINT('',(-0.00497,0.,-0.0135));
#1308=CARTESIAN_POINT('',(-0.00497,0.00255,-0.0135));
#1309=CARTESIAN_POINT('',(-0.00497,0.00581,-0.0135));
#1310=CARTESIAN_POINT('',(-0.00322,0.00581,-0.0135));
#1311=CARTESIAN_POINT('',(-0.00322,0.00756,-0.0135));
#1312=CARTESIAN_POINT('',(-0.00161,0.00756,-0.0135));
#1313=CARTESIAN_POINT('',(0.00322,0.00756,-0.0135));
#1314=CARTESIAN_POINT('',(0.00322,0.00581,-0.0135));
#1315=CARTESIAN_POINT('',(0.00497,0.00581,-0.0135));
#1316=CARTESIAN_POINT('',(0.00497,0.00255,-0.0135));
#1317=CARTESIAN_POINT('',(0.00497,0.,-0.0135));
#1318=CARTESIAN_POINT('',(-8.67361737988404E-18,0.,-0.0135));
#1319=CARTESIAN_POINT('',(0.013,0.,-0.0135));
#1320=CARTESIAN_POINT('',(0.013,0.01325,-0.0135));
#1321=CARTESIAN_POINT('',(0.013,0.0061,-0.0135));
#1322=CARTESIAN_POINT('',(-8.67361737988404E-18,0.0061,-0.0135));
#1323=CARTESIAN_POINT('',(0.01,0.0061,-0.0135));
#1324=CARTESIAN_POINT('',(0.01,0.01325,-0.0135));
#1325=CARTESIAN_POINT('',(1.7347234759768E-18,0.01325,0.015));
#1326=CARTESIAN_POINT('',(1.7347234759768E-18,0.,0.015));
#1327=CARTESIAN_POINT('',(0.013,0.,0.015));
#1328=CARTESIAN_POINT('',(-0.013,0.,0.015));
#1329=CARTESIAN_POINT('',(0.013,0.01325,0.015));
#1330=CARTESIAN_POINT('',(0.013,0.01525,0.015));
#1331=CARTESIAN_POINT('',(1.7347234759768E-18,0.01525,0.015));
#1332=CARTESIAN_POINT('',(-0.013,0.01525,0.015));
#1333=CARTESIAN_POINT('',(-0.013,0.01325,0.015));
#1334=CARTESIAN_POINT('',(0.013,0.01325,0.013));
#1335=CARTESIAN_POINT('',(0.013,0.,0.013));
#1336=CARTESIAN_POINT('',(0.015,0.,0.013));
#1337=CARTESIAN_POINT('',(0.015,0.01325,0.013));
#1338=CARTESIAN_POINT('',(0.015,0.01525,0.013));
#1339=CARTESIAN_POINT('',(0.013,0.01525,0.013));
#1340=CARTESIAN_POINT('',(0.015,0.01325,-1.7347234759768E-18));
#1341=CARTESIAN_POINT('',(0.015,0.,-1.7347234759768E-18));
#1342=CARTESIAN_POINT('',(0.015,0.,-0.013));
#1343=CARTESIAN_POINT('',(0.015,0.01325,-0.013));
#1344=CARTESIAN_POINT('',(0.015,0.01525,-0.013));
#1345=CARTESIAN_POINT('',(0.015,0.01525,-1.7347234759768E-18));
#1346=CARTESIAN_POINT('',(0.013,0.01325,-0.013));
#1347=CARTESIAN_POINT('',(0.013,0.,-0.013));
#1348=CARTESIAN_POINT('',(0.013,0.01525,-0.013));
#1349=CARTESIAN_POINT('',(-0.013,0.01325,-0.013));
#1350=CARTESIAN_POINT('',(-0.013,0.,-0.013));
#1351=CARTESIAN_POINT('',(-0.015,0.,-0.013));
#1352=CARTESIAN_POINT('',(-0.015,0.01325,-0.013));
#1353=CARTESIAN_POINT('',(-0.015,0.01525,-0.013));
#1354=CARTESIAN_POINT('',(-0.013,0.01525,-0.013));
#1355=CARTESIAN_POINT('',(-0.015,0.01325,-8.67361737988404E-19));
#1356=CARTESIAN_POINT('',(-0.015,0.,-8.67361737988404E-19));
#1357=CARTESIAN_POINT('',(-0.015,0.,0.013));
#1358=CARTESIAN_POINT('',(-0.015,0.01325,0.013));
#1359=CARTESIAN_POINT('',(-0.015,0.01525,0.013));
#1360=CARTESIAN_POINT('',(-0.015,0.01525,-8.67361737988404E-19));
#1361=CARTESIAN_POINT('',(0.013,0.01325,0.013));
#1362=CARTESIAN_POINT('',(0.013,0.,0.013));
#1363=CARTESIAN_POINT('',(0.013,0.01325,0.013));
#1364=CARTESIAN_POINT('',(-0.013,0.01325,0.013));
#1365=CARTESIAN_POINT('',(-0.013,0.,0.013));
#1366=CARTESIAN_POINT('',(-0.0135,0.,0.013));
#1367=CARTESIAN_POINT('',(-0.0135,0.01325,0.013));
#1368=CARTESIAN_POINT('',(-0.0135,0.01325,0.013));
#1369=CARTESIAN_POINT('',(-0.013,0.01325,0.013));
#1370=CARTESIAN_POINT('',(-0.0135,0.01325,4.33680868994202E-18));
#1371=CARTESIAN_POINT('',(-0.0135,0.0061,4.33680868994202E-18));
#1372=CARTESIAN_POINT('',(-0.0135,0.0061,-0.0115));
#1373=CARTESIAN_POINT('',(-0.0135,0.0061,-0.013));
#1374=CARTESIAN_POINT('',(-0.0135,0.01325,-0.0115));
#1375=CARTESIAN_POINT('',(-0.0135,0.01325,-0.0115));
#1376=CARTESIAN_POINT('',(-0.0135,0.01325,4.33680868994202E-18));
#1377=CARTESIAN_POINT('',(-0.0135,0.,4.33680868994202E-18));
#1378=CARTESIAN_POINT('',(-0.0135,0.,-0.013));
#1379=CARTESIAN_POINT('',(-0.0135,0.01325,-0.013));
#1380=CARTESIAN_POINT('',(-0.013,0.01325,-0.013));
#1381=CARTESIAN_POINT('',(-0.013,0.0061,-0.013));
#1382=CARTESIAN_POINT('',(-0.013,0.,-0.013));
#1383=CARTESIAN_POINT('',(0.013,0.01325,-0.013));
#1384=CARTESIAN_POINT('',(0.013,0.0061,-0.013));
#1385=CARTESIAN_POINT('',(0.013,0.,-0.013));
#1386=CARTESIAN_POINT('',(-0.013,0.01325,0.013));
#1387=CARTESIAN_POINT('',(-0.013,0.,0.013));
#1388=CARTESIAN_POINT('',(-0.013,0.01525,0.013));
#1389=CARTESIAN_POINT('',(0.,0.,0.));
#1390=CARTESIAN_POINT('',(0.00497,0.,-0.013498));
#1391=CARTESIAN_POINT('',(-0.00497,0.,-0.013498));
#1392=CARTESIAN_POINT('',(0.00497,0.00255,-0.013498));
#1393=CARTESIAN_POINT('',(0.00497,0.00581,-0.013498));
#1394=CARTESIAN_POINT('',(-0.00497,0.00255,-0.013498));
#1395=CARTESIAN_POINT('',(-0.00497,0.00581,-0.013498));
#1396=CARTESIAN_POINT('',(0.00322,0.00581,-0.013498));
#1397=CARTESIAN_POINT('',(0.00322,0.00756,-0.013498));
#1398=CARTESIAN_POINT('',(-0.00322,0.00581,-0.013498));
#1399=CARTESIAN_POINT('',(-0.00322,0.00756,-0.013498));
#1400=CARTESIAN_POINT('',(-0.00161,0.00756,-0.013498));
#1401=CARTESIAN_POINT('',(0.,0.01325,0.));
#1402=CARTESIAN_POINT('',(0.,0.01325,-5.81707229594993E-19));
#1403=CARTESIAN_POINT('',(0.0095,0.01325,-5.81707229594993E-19));
#1404=CARTESIAN_POINT('',(0.002,0.01325,0.013));
#1405=CARTESIAN_POINT('',(0.0015,0.01325,0.013));
#1406=CARTESIAN_POINT('',(0.0015,0.01325,0.01275));
#1407=CARTESIAN_POINT('',(0.0015,0.01325,0.0125));
#1408=CARTESIAN_POINT('',(0.001,0.01325,0.0125));
#1409=CARTESIAN_POINT('',(0.001,0.01325,0.012));
#1410=CARTESIAN_POINT('',(-1.7347234759768E-18,0.01325,0.012));
#1411=CARTESIAN_POINT('',(-0.001,0.01325,0.012));
#1412=CARTESIAN_POINT('',(-0.001,0.01325,0.0125));
#1413=CARTESIAN_POINT('',(-0.0015,0.01325,0.0125));
#1414=CARTESIAN_POINT('',(-0.0015,0.01325,0.01275));
#1415=CARTESIAN_POINT('',(-0.0015,0.01325,0.013));
#1416=CARTESIAN_POINT('',(-0.002,0.01325,0.013));
#1417=CARTESIAN_POINT('',(-0.013,0.01325,-0.0115));
#1418=CARTESIAN_POINT('',(-0.013,0.01325,-0.012));
#1419=CARTESIAN_POINT('',(-0.012,0.01325,-0.012));
#1420=CARTESIAN_POINT('',(-0.011,0.01325,-0.012));
#1421=CARTESIAN_POINT('',(-0.011,0.01325,-0.0125));
#1422=CARTESIAN_POINT('',(-0.0105,0.01325,-0.0125));
#1423=CARTESIAN_POINT('',(-0.0105,0.01325,-0.01275));
#1424=CARTESIAN_POINT('',(-0.0105,0.01325,-0.013));
#1425=CARTESIAN_POINT('',(-0.01,0.01325,-0.013));
#1426=CARTESIAN_POINT('',(0.01,0.01325,-0.013));
#1427=CARTESIAN_POINT('',(0.0105,0.01325,-0.013));
#1428=CARTESIAN_POINT('',(0.0105,0.01325,-0.01275));
#1429=CARTESIAN_POINT('',(0.0105,0.01325,-0.0125));
#1430=CARTESIAN_POINT('',(0.011,0.01325,-0.0125));
#1431=CARTESIAN_POINT('',(0.011,0.01325,-0.012));
#1432=CARTESIAN_POINT('',(0.012,0.01325,-0.012));
#1433=CARTESIAN_POINT('',(0.013,0.01325,-0.012));
#1434=CARTESIAN_POINT('',(0.013,0.01325,-0.0115));
#1435=CARTESIAN_POINT('',(0.,0.01525,0.));
#1436=CARTESIAN_POINT('',(0.,0.01525,-5.81707229594993E-19));
#1437=CARTESIAN_POINT('',(0.0095,0.01525,-5.81707229594993E-19));
#1438=CARTESIAN_POINT('',(0.,-0.00975,-5.81707229594993E-19));
#1439=CARTESIAN_POINT('',(-3.46944695195361E-18,0.0061,3.46944695195361E-18));
#1440=CARTESIAN_POINT('',(-0.0015,0.0061,0.01275));
#1441=CARTESIAN_POINT('',(-0.0015,0.0061,0.0125));
#1442=CARTESIAN_POINT('',(-0.0015,0.0061,0.013));
#1443=CARTESIAN_POINT('',(-0.001,0.0061,0.0125));
#1444=CARTESIAN_POINT('',(-0.001,0.0061,0.012));
#1445=CARTESIAN_POINT('',(-1.7347234759768E-18,0.0061,0.012));
#1446=CARTESIAN_POINT('',(0.001,0.0061,0.012));
#1447=CARTESIAN_POINT('',(0.001,0.0061,0.0125));
#1448=CARTESIAN_POINT('',(0.0015,0.0061,0.0125));
#1449=CARTESIAN_POINT('',(0.0015,0.0061,0.01275));
#1450=CARTESIAN_POINT('',(0.0015,0.0061,0.013));
#1451=CARTESIAN_POINT('',(0.002,0.0061,0.013));
#1452=CARTESIAN_POINT('',(-0.002,0.0061,0.013));
#1453=CARTESIAN_POINT('',(0.0015,-0.246467621135331,0.01275));
#1454=CARTESIAN_POINT('',(0.0015,-0.246467621135331,0.013));
#1455=CARTESIAN_POINT('',(0.0015,0.01325,0.0125));
#1456=CARTESIAN_POINT('',(-1.7347234759768E-18,-0.246467621135331,0.012));
#1457=CARTESIAN_POINT('',(-0.001,-0.246467621135331,0.012));
#1458=CARTESIAN_POINT('',(0.001,0.0061,0.012));
#1459=CARTESIAN_POINT('',(-0.0015,-0.246467621135331,0.01275));
#1460=CARTESIAN_POINT('',(-0.0015,0.01325,0.013));
#1461=CARTESIAN_POINT('',(-0.0015,-0.246467621135331,0.0125));
#1462=CARTESIAN_POINT('',(-3.46944695195361E-18,0.0061,3.46944695195361E-18));
#1463=CARTESIAN_POINT('',(0.012,0.0061,-0.012));
#1464=CARTESIAN_POINT('',(0.011,0.0061,-0.012));
#1465=CARTESIAN_POINT('',(0.013,0.0061,-0.012));
#1466=CARTESIAN_POINT('',(0.011,0.0061,-0.0125));
#1467=CARTESIAN_POINT('',(0.0105,0.0061,-0.0125));
#1468=CARTESIAN_POINT('',(0.0105,0.0061,-0.01275));
#1469=CARTESIAN_POINT('',(0.0105,0.0061,-0.013));
#1470=CARTESIAN_POINT('',(0.01,0.0061,-0.013));
#1471=CARTESIAN_POINT('',(0.013,0.0061,-0.0115));
#1472=CARTESIAN_POINT('',(0.012,-0.246467621135331,-0.012));
#1473=CARTESIAN_POINT('',(0.013,0.01325,-0.012));
#1474=CARTESIAN_POINT('',(0.011,0.0061,-0.012));
#1475=CARTESIAN_POINT('',(0.0105,-0.246467621135331,-0.01275));
#1476=CARTESIAN_POINT('',(0.0105,0.0061,-0.013));
#1477=CARTESIAN_POINT('',(0.0105,0.01325,-0.0125));
#1478=CARTESIAN_POINT('',(-3.46944695195361E-18,0.0061,3.46944695195361E-18));
#1479=CARTESIAN_POINT('',(-0.0105,0.0061,-0.01275));
#1480=CARTESIAN_POINT('',(-0.0105,0.0061,-0.0125));
#1481=CARTESIAN_POINT('',(-0.0105,0.0061,-0.013));
#1482=CARTESIAN_POINT('',(-0.011,0.0061,-0.0125));
#1483=CARTESIAN_POINT('',(-0.011,0.0061,-0.012));
#1484=CARTESIAN_POINT('',(-0.012,0.0061,-0.012));
#1485=CARTESIAN_POINT('',(-0.013,0.0061,-0.012));
#1486=CARTESIAN_POINT('',(-0.013,0.0061,-0.0115));
#1487=CARTESIAN_POINT('',(-0.01,0.0061,-0.013));
#1488=CARTESIAN_POINT('',(-0.0105,-0.246467621135331,-0.01275));
#1489=CARTESIAN_POINT('',(-0.0105,-0.246467621135331,-0.013));
#1490=CARTESIAN_POINT('',(-0.0105,0.0061,-0.0125));
#1491=CARTESIAN_POINT('',(-0.012,-0.246467621135331,-0.012));
#1492=CARTESIAN_POINT('',(-0.013,0.0061,-0.012));
#1493=CARTESIAN_POINT('',(-0.011,0.01325,-0.012));
#1494=CARTESIAN_POINT('',(0.002,0.01325,0.013));
#1495=CARTESIAN_POINT('',(-0.002,-0.246467621135331,0.013));
#1496=CARTESIAN_POINT('',(0.013,-0.246467621135331,-0.0115));
#1497=CARTESIAN_POINT('',(-0.013,0.01325,-0.0115));
#1498=CARTESIAN_POINT('',(-0.01,-0.246467621135331,-0.013));
#1499=CARTESIAN_POINT('',(0.01,0.01325,-0.013));
#1500=CARTESIAN_POINT('',(0.011,-0.246467621135331,-0.0125));
#1501=CARTESIAN_POINT('',(-0.011,-0.246467621135331,-0.0125));
#1502=CARTESIAN_POINT('',(-0.001,-0.246467621135331,0.0125));
#1503=CARTESIAN_POINT('',(0.001,-0.246467621135331,0.0125));
#1504=MECHANICAL_DESIGN_GEOMETRIC_PRESENTATION_REPRESENTATION('',(#883),
#1505);
#1505=(
GEOMETRIC_REPRESENTATION_CONTEXT(3)
GLOBAL_UNCERTAINTY_ASSIGNED_CONTEXT((#1506))
GLOBAL_UNIT_ASSIGNED_CONTEXT((#1509,#1508,#1507))
REPRESENTATION_CONTEXT('tinytouch-v1-top','TOP_LEVEL_ASSEMBLY_PART')
);
#1506=UNCERTAINTY_MEASURE_WITH_UNIT(LENGTH_MEASURE(1.E-8),#1509,
'DISTANCE_ACCURACY_VALUE','Maximum Tolerance applied to model');
#1507=(
NAMED_UNIT(*)
SI_UNIT($,.STERADIAN.)
SOLID_ANGLE_UNIT()
);
#1508=(
NAMED_UNIT(*)
PLANE_ANGLE_UNIT()
SI_UNIT($,.RADIAN.)
);
#1509=(
LENGTH_UNIT()
NAMED_UNIT(*)
SI_UNIT($,.METRE.)
);
#1510=PRODUCT_DEFINITION_SHAPE('','',#1511);
#1511=PRODUCT_DEFINITION('','',#1513,#1512);
#1512=PRODUCT_DEFINITION_CONTEXT('',#1519,'design');
#1513=PRODUCT_DEFINITION_FORMATION_WITH_SPECIFIED_SOURCE('','',#1515,
 .NOT_KNOWN.);
#1514=PRODUCT_RELATED_PRODUCT_CATEGORY('','',(#1515));
#1515=PRODUCT('tinytouch-v1-top','tinytouch-v1-top','',(#1517));
#1516=PRODUCT_CATEGORY('','');
#1517=PRODUCT_CONTEXT('',#1519,'mechanical');
#1518=APPLICATION_PROTOCOL_DEFINITION('international standard',
'ap242_managed_model_based_3d_engineering',2020,#1519);
#1519=APPLICATION_CONTEXT('managed model based 3d engineering');
ENDSEC;
END-ISO-10303-21;
